<svg id="群組_8" data-name="群組 8" xmlns="http://www.w3.org/2000/svg" width="106.563" height="16.59" viewBox="0 0 106.563 16.59">
  <metadata><?xpacket begin="﻿" id="W5M0MpCehiHzreSzNTczkc9d"?>
<x:xmpmeta xmlns:x="adobe:ns:meta/" x:xmptk="Adobe XMP Core 5.6-c138 79.159824, 2016/09/14-01:09:01        ">
   <rdf:RDF xmlns:rdf="http://www.w3.org/1999/02/22-rdf-syntax-ns#">
      <rdf:Description rdf:about=""/>
   </rdf:RDF>
</x:xmpmeta>
                                                                                                    
                                                                                                    
                                                                                                    
                                                                                                    
                                                                                                    
                                                                                                    
                                                                                                    
                                                                                                    
                                                                                                    
                                                                                                    
                                                                                                    
                                                                                                    
                                                                                                    
                                                                                                    
                                                                                                    
                                                                                                    
                                                                                                    
                                                                                                    
                                                                                                    
                                                                                                    
                           
<?xpacket end="w"?></metadata>
<defs>
    <style>
      .cls-1, .cls-2 {
        fill: #fff;
      }

      .cls-1 {
        fill-rule: evenodd;
      }
    </style>
  </defs>
  <path id="活動參與_" data-name="活動參與  " class="cls-1" d="M276.511,1825.85a31.178,31.178,0,0,0-3.352-1.86l-0.735.96a37.379,37.379,0,0,1,3.316,1.98Zm-0.914,4.86c-0.789-.51-2.277-1.3-3.316-1.82l-0.735.97c1.093,0.58,2.563,1.44,3.3,1.95Zm-2.51,9.25a64.443,64.443,0,0,0,3.245-5.78l-0.968-.88a51.522,51.522,0,0,1-3.388,5.76Zm12.3-1.76H279v-3.71h6.382v3.71Zm2.438-7.91V1829h-4.912v-3.12a28.3,28.3,0,0,0,4.159-1.01l-1.057-1.04a43.661,43.661,0,0,1-8.677,1.6,6.472,6.472,0,0,1,.359,1.14c1.272-.13,2.635-0.29,3.943-0.49V1829h-5.163v1.29h5.163v2.96h-3.854v6.95H279v-0.76h6.382v0.67h1.273v-6.86h-3.747v-2.96h4.912Zm3.276,3.12v-1.32h2.258v1.32H291.1Zm0-3.49h2.258v1.29H291.1v-1.29Zm5.808,0v1.29h-2.349v-1.29h2.349Zm0,3.49h-2.349v-1.32h2.349v1.32Zm4.715-5.47c0.036-1.26.036-2.6,0.036-3.95H300.4c0,1.37,0,2.69-.036,3.95h-2.133v1.26h2.1c-0.161,3.38-.627,6.28-2.187,8.4v-0.09c-1.2.15-2.42,0.27-3.586,0.38v-1.42h3.514v-1.03h-3.514v-1.09h3.478V1829h-3.478v-1.14h3.8v-1.04h-3.8v-1.32a32.076,32.076,0,0,0,3.5-.52l-0.663-1.02a57.406,57.406,0,0,1-7.727.88,3.956,3.956,0,0,1,.323.99c1.058-.04,2.223-0.11,3.37-0.2v1.19h-3.872v1.04h3.872V1829h-3.352v5.35h3.352v1.09h-3.388v1.03h3.388v1.55c-1.47.14-2.814,0.27-3.89,0.36l0.2,1.17c2.008-.22,4.787-0.52,7.512-0.85a8.927,8.927,0,0,1-.789.63,4.6,4.6,0,0,1,.986.96c3.155-2.38,3.98-6.3,4.195-11.09h2.564c-0.18,6.53-.395,8.91-0.807,9.43a0.688,0.688,0,0,1-.646.29c-0.34,0-1.129-.02-1.989-0.09a3.631,3.631,0,0,1,.376,1.26,12.928,12.928,0,0,0,2.169,0,1.4,1.4,0,0,0,1.2-.67c0.61-.75.771-3.26,0.968-10.8,0-.18.018-0.68,0.018-0.68h-3.8Zm19.857-.85a20.839,20.839,0,0,0-3.71-2.95l-0.968.52c0.519,0.34,1.075.75,1.6,1.17l-6.077.21a22.306,22.306,0,0,0,2.689-1.76l-1.183-.59a17.891,17.891,0,0,1-3.066,2.07,3.177,3.177,0,0,1-1.111.41,8.43,8.43,0,0,1,.394,1.15c0.556-.18,1.4-0.18,9.5-0.54a11.47,11.47,0,0,1,.9.89Zm-1.4,8.26c-1.99,2.06-5.987,3.26-10.326,3.77a5.067,5.067,0,0,1,.646,1.1c4.481-.64,8.587-1.99,10.774-4.33Zm-4.051-3.54a18.692,18.692,0,0,1-5.611,2.48,5.137,5.137,0,0,1,.788.83,19.107,19.107,0,0,0,5.809-2.83Zm1.954,1.73c-1.65,1.35-4.715,2.43-7.44,2.97a5.238,5.238,0,0,1,.717.97,20.159,20.159,0,0,0,7.745-3.42Zm5.378-2.72a11.675,11.675,0,0,0-2.044-2.67l-0.932.43a11.1,11.1,0,0,1,.753.87l-2.438.14a11.4,11.4,0,0,0,1.2-1.62l-1.2-.52a7.021,7.021,0,0,1-1.219,1.89,1.172,1.172,0,0,1-.574.4l0.09,0.19a8.771,8.771,0,0,1-.879-0.86c0.108-.16.215-0.34,0.3-0.5l-1.219-.36a8.86,8.86,0,0,1-1.506,1.94,15.513,15.513,0,0,0-1.093-1.64l-0.968.34c0.179,0.24.358,0.47,0.537,0.74l-2.079.09a12.755,12.755,0,0,0,1.595-1.82l-1.2-.52a9.157,9.157,0,0,1-1.613,2.04,1.616,1.616,0,0,1-.717.43,6.414,6.414,0,0,1,.43,1.13c0.287-.12.843-0.2,4.123-0.39a2.457,2.457,0,0,1,.144.36,16.965,16.965,0,0,1-5.486,2.7,5.608,5.608,0,0,1,.771,1.02,16.016,16.016,0,0,0,7.3-4.62,18.617,18.617,0,0,0,7.673,4.5,4.826,4.826,0,0,1,.842-1.05,19.486,19.486,0,0,1-5.951-2.73c0.555-.08,1.631-0.17,3.818-0.33a6.519,6.519,0,0,1,.538.9Zm11.02,2.55a0.192,0.192,0,0,1-.233.24,10.612,10.612,0,0,1-1.345-.02,3.566,3.566,0,0,1,.341.92,5.827,5.827,0,0,0,1.882-.16,0.863,0.863,0,0,0,.5-0.98v-4.73h-0.484v-0.02H332.7v-1.93h2.958v-1.13H332.7v-1.68h-1.165v5.82h2.851v3.67Zm-2.277-2.9a7.077,7.077,0,0,1-.986,2.98,5.559,5.559,0,0,1,.932.57,9.076,9.076,0,0,0,1.094-3.37Zm-1.488,5.82a20.577,20.577,0,0,1-4.984,2.88,12.318,12.318,0,0,1,.789,1.01,28.485,28.485,0,0,0,5.342-3.08Zm4.571,0.86a40.465,40.465,0,0,1,5.074,2.98l0.878-1.01a42.533,42.533,0,0,0-5.217-2.88Zm4.643-2.39c0.162-2.67.251-6.93,0.269-10.08h-3.8v1.17h2.581c0,0.72-.018,1.47-0.036,2.25h-2.384v1.15h2.366c-0.035.76-.053,1.49-0.089,2.21h-2.367v1.14H338.7c-0.036.77-.09,1.53-0.125,2.16H328.412l-0.072-2.22h2.313v-1.15h-2.367l-0.071-2.19h2.366v-1.16h-2.4l-0.072-2.1c0.914-.29,1.9-0.63,2.725-0.98l-0.645-1.09a28.315,28.315,0,0,1-3.317,1.38l0.341,9.51H325.4V1836h16.152v-1.24h-1.721Z" transform="translate(-235 -1823.69)"/>
  <rect id="矩形_1483_拷貝" data-name="矩形 1483 拷貝" class="cls-2" y="1.31" width="9" height="14"/>
</svg>
