<svg id="群組_8" data-name="群組 8" xmlns="http://www.w3.org/2000/svg" width="106.781" height="16.56" viewBox="0 0 106.781 16.56">
  <metadata><?xpacket begin="﻿" id="W5M0MpCehiHzreSzNTczkc9d"?>
<x:xmpmeta xmlns:x="adobe:ns:meta/" x:xmptk="Adobe XMP Core 5.6-c138 79.159824, 2016/09/14-01:09:01        ">
   <rdf:RDF xmlns:rdf="http://www.w3.org/1999/02/22-rdf-syntax-ns#">
      <rdf:Description rdf:about=""/>
   </rdf:RDF>
</x:xmpmeta>
                                                                                                    
                                                                                                    
                                                                                                    
                                                                                                    
                                                                                                    
                                                                                                    
                                                                                                    
                                                                                                    
                                                                                                    
                                                                                                    
                                                                                                    
                                                                                                    
                                                                                                    
                                                                                                    
                                                                                                    
                                                                                                    
                                                                                                    
                                                                                                    
                                                                                                    
                                                                                                    
                           
<?xpacket end="w"?></metadata>
<defs>
    <style>
      .cls-1, .cls-2 {
        fill: #fff;
      }

      .cls-1 {
        fill-rule: evenodd;
      }
    </style>
  </defs>
  <path id="職場性格_" data-name="職場性格  " class="cls-1" d="M287.357,2091.94a14.493,14.493,0,0,0-1.434-3.05l-0.986.36a14.588,14.588,0,0,1,1.38,3.1Zm-4.589-2.24h-1.936a17.343,17.343,0,0,0-.753-1.82l-1.094.24c0.215,0.48.431,1.08,0.61,1.58H277.39v1.07h5.378v-1.07Zm-7.35,2.58h-1.883v-2.52h1.883v2.52Zm-1.883,4.82h1.883v2.45c-0.646.15-1.291,0.29-1.883,0.42v-2.87Zm1.883-1.11h-1.883v-2.58h1.883v2.58Zm1.918-6.23v-1.23h-5.773v1.23h0.951v10.42c-0.413.06-.789,0.15-1.13,0.2l0.269,1.15c1.094-.27,2.42-0.56,3.765-0.88v3.57h1.057v-14.46h0.861Zm1.506,10.89v-1.69h2.545v1.69h-2.545Zm2.545-4.32v1.66h-2.545v-1.66h2.545Zm5.181-1.01a16.055,16.055,0,0,1-1.5,3.44c-0.18-1.24-.323-2.76-0.413-4.43h3.173v-1.17h-3.245c-0.089-1.67-.125-3.49-0.143-5.38H283.27c0.036,1.89.089,3.71,0.161,5.38h-1.81c0.2-.59.43-1.35,0.645-2.03l-1.112-.2a18.625,18.625,0,0,1-.519,2.23h-1.273a15.46,15.46,0,0,0-.5-2.21l-0.968.14a17.82,17.82,0,0,1,.412,2.07h-1.219v1.17H283.5a49.553,49.553,0,0,0,.609,5.83,14.3,14.3,0,0,1-1.685,1.93v-6.73h-4.643v7.52h1.058v-1.26h2.545v0.49h1a11.471,11.471,0,0,1-1.5,1.2,5.682,5.682,0,0,1,.77.73,15.106,15.106,0,0,0,2.779-2.54c0.466,1.67,1.094,2.64,1.99,2.66,0.592,0.02,1.2-.7,1.524-3.4a3.875,3.875,0,0,1-.861-0.67c-0.125,1.64-.34,2.61-0.627,2.61-0.466-.02-0.825-0.88-1.148-2.36a17,17,0,0,0,2.313-4.5Zm16.739-4.59H297.57v-1.42h5.737v1.42Zm0,2.38H297.57v-1.44h5.737v1.44Zm1.237-4.81h-8.193v5.81h8.193v-5.81Zm-9.717,8.84-1.828.83v-5.06h1.936v-1.26H293v-3.75h-1.237v3.75h-2.1v1.26h2.1v5.63c-0.914.42-1.757,0.78-2.438,1.07l0.52,1.31c1.506-.72,3.46-1.67,5.27-2.59Zm10.99-.88v-1.14H294.594v1.14h2.51a10.251,10.251,0,0,1-3.549,3.6,5.694,5.694,0,0,1,.914.83,12.351,12.351,0,0,0,2.33-2.06h1.811a11.81,11.81,0,0,1-4.034,4.04,3.536,3.536,0,0,1,.879.82,13.493,13.493,0,0,0,4.356-4.86h1.739a10.544,10.544,0,0,1-3.5,4.86,4.127,4.127,0,0,1,.95.78,12.5,12.5,0,0,0,3.657-5.64h1.4c-0.233,2.83-.5,3.96-0.807,4.29a0.554,0.554,0,0,1-.538.2c-0.269,0-.86-0.02-1.524-0.08a2.289,2.289,0,0,1,.305,1.09c0.717,0.03,1.381.03,1.775,0.01a1.419,1.419,0,0,0,1-.45c0.5-.52.789-1.92,1.058-5.63a5.33,5.33,0,0,0,.053-0.54h-7.708a11.8,11.8,0,0,0,.771-1.26h7.368Zm2.361-.13a20.155,20.155,0,0,0,.9-4.82l-1-.15a18.248,18.248,0,0,1-.932,4.61Zm1.541,8.07h1.327v-16.44h-1.327v16.44Zm1.452-13.13a18.071,18.071,0,0,1,1.237,3.06l1-.48a16.914,16.914,0,0,0-1.308-3.01Zm7.87,11.24v-4.5H322.7v-1.25h-3.658v-3.72h4.052v-1.28h-4.052v-3.73h-1.326v3.73h-2.241c0.251-.88.466-1.82,0.645-2.76l-1.29-.21a17.5,17.5,0,0,1-2.17,6.42,11.539,11.539,0,0,1,1.184.62,13.115,13.115,0,0,0,1.254-2.79h2.618v3.72h-3.8v1.25h3.8v4.5h-5.127v1.27h10.935v-1.27h-4.482Zm19.786-3.5v3.24h-5.27v-3.24h5.27Zm-6.543,5.37h1.273v-0.92h5.27v0.88h1.309v-6.51h-7.852v6.55Zm1.847-13.4h4.75a10.776,10.776,0,0,1-2.563,2.94,9.494,9.494,0,0,1-2.295-2.76Zm5.736-1.26-0.233.06h-4.858c0.233-.51.466-1.03,0.663-1.55l-1.183-.33a13.222,13.222,0,0,1-3.191,5.03,6.9,6.9,0,0,1,.825,1.02,12.854,12.854,0,0,0,1.452-1.72,11.048,11.048,0,0,0,2.026,2.37,16.953,16.953,0,0,1-4.59,2.13l0.61-.74c-0.323-.47-1.7-2.4-2.151-2.92v-0.39h1.954v-1.26h-1.954v-3.46h-1.273v3.46h-2.51v1.26h2.313a19.844,19.844,0,0,1-2.69,6.73,5.7,5.7,0,0,1,.682,1.28,20.1,20.1,0,0,0,2.2-5.21v8.92h1.273v-9.71c0.448,0.74.95,1.6,1.237,2.14l-0.09.02a5.038,5.038,0,0,1,.7,1.17,19.523,19.523,0,0,0,5.288-2.59,16.367,16.367,0,0,0,4.912,2.4,5.174,5.174,0,0,1,.5-1.23,13.908,13.908,0,0,1-4.445-1.93,12.145,12.145,0,0,0,3.352-4.43Z" transform="translate(-235 -2087.72)"/>
  <rect id="矩形_1483_拷貝_2" data-name="矩形 1483 拷貝 2" class="cls-2" y="1.28" width="9" height="14"/>
</svg>
