<svg id="Skill" xmlns="http://www.w3.org/2000/svg" viewBox="0 0 611 187.5"><defs><style>.cls-1{fill:none;stroke:#ffc8b9;}.cls-2{fill:#f4f4f4;}.cls-3{fill:#333;}.cls-4{fill:#ffc730;}.cls-5{fill:#672700;}.cls-6{fill:#a73410;}.cls-7{fill:#ffc8b9;}.cls-8{fill:#fff;}.cls-9{fill:#653e66;}.cls-10{fill:#f8a3ff;}.cls-11{fill:#393687;}.cls-12{fill:#89d3ff;}.cls-13{fill:#6d4c13;}.cls-14{fill:#ffbd2e;}.cls-15{fill:#7a2f32;}.cls-16{fill:#f63415;}.cls-17{fill:#6f2b41;}.cls-18{fill:#ff70bd;}.cls-19{fill:#3a3375;}.cls-20{fill:#e7adfb;}</style></defs><title>a_Skill</title><rect id="矩形_1433" data-name="矩形 1433" class="cls-1" x="0.5" y="45" width="610" height="142" rx="8" ry="8"/><g id="_3" data-name=" 3"><g id="CSP"><rect id="矩形_1451" data-name="矩形 1451" class="cls-2" x="412.5" y="67" width="28" height="28" rx="6" ry="6"/><path id="形狀_1450" data-name="形狀 1450" class="cls-3" d="M423.45,85.76l.66-.34,6.22-3a3.55,3.55,0,0,0,2.09-2.81A3.9,3.9,0,0,0,431,75.88a4.26,4.26,0,0,0-4.75-.73c-1.56.68-3.1,1.4-4.65,2.11a1.26,1.26,0,0,0-.9,1.54l0,.07a1.37,1.37,0,0,0,1.74.85l.07,0c1-.4,1.89-.86,2.83-1.29l1.54-.71a1.56,1.56,0,0,1,1.87.38,1.33,1.33,0,0,1-.16,2.08,39.41,39.41,0,0,1-5.6,2.52,4.14,4.14,0,0,1-4.53-1.59,4,4,0,0,1,1.43-6.29q2.53-1.16,5.08-2.24a7.77,7.77,0,0,1,9.18,2.76,6.5,6.5,0,0,1-2,9.64c-1.19.66-2.42,1.23-3.63,1.84l-.58.31.73,1.19a1.66,1.66,0,0,1-.12,2.31,1.57,1.57,0,0,1-2.22-.15l-.13-.17C425.29,88.83,424.4,87.31,423.45,85.76Z" transform="translate(0 0)"/></g><g id="Pa"><rect id="矩形_1451_拷貝" data-name="矩形 1451 拷貝" class="cls-4" x="412.5" y="105" width="28" height="28" rx="6" ry="6"/><path id="矩形_1451_拷貝_2" data-name="矩形 1451 拷貝 2" class="cls-5" d="M428,116.44a14.91,14.91,0,0,0-1.41,2.11,6.14,6.14,0,0,1,2,2.3,19.22,19.22,0,0,0,2.49-1.33c4.32-3.5,6.75-9.14,6.39-9.5S431.81,112.43,428,116.44Zm-2.66,3.09c-1.88-.32-3.73.82-5,3.67s-3.45,4-3.87,3.93c2.3.8,9.34,2.86,11.09-5a5.26,5.26,0,0,0-2.25-2.63Z" transform="translate(0 0)"/></g><g id="h5"><rect id="矩形_1451_拷貝_3" data-name="矩形 1451 拷貝 3" class="cls-6" x="412.5" y="143" width="28" height="28" rx="6" ry="6"/><path id="形狀_1467" data-name="形狀 1467" class="cls-2" d="M435,148a.44.44,0,0,1,.47.39.43.43,0,0,1,0,.06l-.09.95-.06.7c0,.27-.06.67-.08.88s0,.37,0,.37H422.7a.46.46,0,0,0-.47.51l.22,2.43a.57.57,0,0,0,.56.5h11.45a.41.41,0,0,1,.42.45l-.09,1-.71,7.82-.07.79a.69.69,0,0,1-.52.42l-6,1.63-.5.14-.5-.13-6-1.64a.8.8,0,0,1-.54-.64l-.39-4.26a.46.46,0,0,1,.41-.51h2.45a.57.57,0,0,1,.56.51l.15,1.67a.78.78,0,0,0,.54.63l2.8.75.5.13.5-.13,2.81-.75a.79.79,0,0,0,.54-.64l.3-3.34a.46.46,0,0,0-.42-.5H419.9a.58.58,0,0,1-.56-.51l-.75-8.24c0-.27-.07-.7-.09-.95a.44.44,0,0,1,.42-.45H435Z" transform="translate(0 0)"/></g></g><g id="level"><rect id="矩形_1405_拷貝" data-name="矩形 1405 拷貝" class="cls-7" x="61.5" y="73" width="21" height="14" rx="2" ry="2"/><rect id="矩形_1405_拷貝_2" data-name="矩形 1405 拷貝 2" class="cls-7" x="89.5" y="73" width="21" height="14" rx="2" ry="2"/><rect id="矩形_1405_拷貝_3" data-name="矩形 1405 拷貝 3" class="cls-7" x="117.5" y="73" width="21" height="14" rx="2" ry="2"/><rect id="矩形_1405_拷貝_4" data-name="矩形 1405 拷貝 4" class="cls-7" x="144.5" y="73" width="21" height="14" rx="2" ry="2"/><rect id="矩形_1405_拷貝_5" data-name="矩形 1405 拷貝 5" class="cls-7" x="172.5" y="73" width="21" height="14" rx="2" ry="2"/></g><g id="level_拷貝" data-name="level 拷貝"><rect id="矩形_1405_拷貝-2" data-name="矩形 1405 拷貝-2" class="cls-7" x="61.5" y="112" width="21" height="14" rx="2" ry="2"/><rect id="矩形_1405_拷貝_2-2" data-name="矩形 1405 拷貝 2-2" class="cls-7" x="89.5" y="112" width="21" height="14" rx="2" ry="2"/><rect id="矩形_1405_拷貝_3-2" data-name="矩形 1405 拷貝 3-2" class="cls-7" x="117.5" y="112" width="21" height="14" rx="2" ry="2"/><rect id="矩形_1405_拷貝_4-2" data-name="矩形 1405 拷貝 4-2" class="cls-7" x="144.5" y="112" width="21" height="14" rx="2" ry="2"/><rect id="矩形_1405_拷貝_5-2" data-name="矩形 1405 拷貝 5-2" class="cls-7" x="172.5" y="112" width="21" height="14" rx="2" ry="2"/></g><g id="level_拷貝_2" data-name="level 拷貝 2"><rect id="矩形_1405_拷貝-3" data-name="矩形 1405 拷貝-3" class="cls-7" x="61.5" y="149" width="21" height="14" rx="2" ry="2"/><rect id="矩形_1405_拷貝_2-3" data-name="矩形 1405 拷貝 2-3" class="cls-7" x="89.5" y="149" width="21" height="14" rx="2" ry="2"/><rect id="矩形_1405_拷貝_3-3" data-name="矩形 1405 拷貝 3-3" class="cls-7" x="117.5" y="149" width="21" height="14" rx="2" ry="2"/><rect id="矩形_1405_拷貝_4-3" data-name="矩形 1405 拷貝 4-3" class="cls-7" x="144.5" y="149" width="21" height="14" rx="2" ry="2"/><rect id="矩形_1405_拷貝_5-3" data-name="矩形 1405 拷貝 5-3" class="cls-7" x="172.5" y="149" width="21" height="14" rx="2" ry="2"/></g><g id="level_拷貝_4" data-name="level 拷貝 4"><rect id="矩形_1405_拷貝-4" data-name="矩形 1405 拷貝-4" class="cls-7" x="460.5" y="73" width="21" height="14" rx="2" ry="2"/><rect id="矩形_1405_拷貝_2-4" data-name="矩形 1405 拷貝 2-4" class="cls-7" x="488.5" y="73" width="21" height="14" rx="2" ry="2"/><rect id="矩形_1405_拷貝_3-4" data-name="矩形 1405 拷貝 3-4" class="cls-7" x="516.5" y="73" width="21" height="14" rx="2" ry="2"/><rect id="矩形_1405_拷貝_4-4" data-name="矩形 1405 拷貝 4-4" class="cls-7" x="543.5" y="73" width="21" height="14" rx="2" ry="2"/><rect id="矩形_1405_拷貝_5-4" data-name="矩形 1405 拷貝 5-4" class="cls-7" x="571.5" y="73" width="21" height="14" rx="2" ry="2"/></g><g id="level_拷貝_4-2" data-name="level 拷貝 4-2"><rect id="矩形_1405_拷貝-5" data-name="矩形 1405 拷貝-5" class="cls-7" x="460.5" y="112" width="21" height="14" rx="2" ry="2"/><rect id="矩形_1405_拷貝_2-5" data-name="矩形 1405 拷貝 2-5" class="cls-7" x="488.5" y="112" width="21" height="14" rx="2" ry="2"/><rect id="矩形_1405_拷貝_3-5" data-name="矩形 1405 拷貝 3-5" class="cls-7" x="516.5" y="112" width="21" height="14" rx="2" ry="2"/><rect id="矩形_1405_拷貝_4-5" data-name="矩形 1405 拷貝 4-5" class="cls-7" x="543.5" y="112" width="21" height="14" rx="2" ry="2"/><rect id="矩形_1405_拷貝_5-5" data-name="矩形 1405 拷貝 5-5" class="cls-7" x="571.5" y="112" width="21" height="14" rx="2" ry="2"/></g><g id="level_拷貝_4-3" data-name="level 拷貝 4-3"><rect id="矩形_1405_拷貝-6" data-name="矩形 1405 拷貝-6" class="cls-7" x="460.5" y="149" width="21" height="14" rx="2" ry="2"/><rect id="矩形_1405_拷貝_5-6" data-name="矩形 1405 拷貝 5-6" class="cls-7" x="489.5" y="149" width="21" height="14" rx="2" ry="2"/></g><g id="level_拷貝_3" data-name="level 拷貝 3"><rect id="矩形_1405_拷貝-7" data-name="矩形 1405 拷貝-7" class="cls-7" x="258.5" y="73" width="21" height="14" rx="2" ry="2"/><rect id="矩形_1405_拷貝_2-6" data-name="矩形 1405 拷貝 2-6" class="cls-7" x="286.5" y="73" width="21" height="14" rx="2" ry="2"/><rect id="矩形_1405_拷貝_3-6" data-name="矩形 1405 拷貝 3-6" class="cls-7" x="314.5" y="73" width="21" height="14" rx="2" ry="2"/><rect id="矩形_1405_拷貝_5-7" data-name="矩形 1405 拷貝 5-7" class="cls-7" x="341.5" y="73" width="21" height="14" rx="2" ry="2"/></g><g id="level_拷貝_3-2" data-name="level 拷貝 3-2"><rect id="矩形_1405_拷貝-8" data-name="矩形 1405 拷貝-8" class="cls-7" x="258.5" y="112" width="21" height="14" rx="2" ry="2"/><rect id="矩形_1405_拷貝_2-7" data-name="矩形 1405 拷貝 2-7" class="cls-7" x="286.5" y="112" width="21" height="14" rx="2" ry="2"/><rect id="矩形_1405_拷貝_3-7" data-name="矩形 1405 拷貝 3-7" class="cls-7" x="314.5" y="112" width="21" height="14" rx="2" ry="2"/><rect id="矩形_1405_拷貝_5-8" data-name="矩形 1405 拷貝 5-8" class="cls-7" x="341.5" y="112" width="21" height="14" rx="2" ry="2"/></g><g id="level_拷貝_3-3" data-name="level 拷貝 3-3"><rect id="矩形_1405_拷貝-9" data-name="矩形 1405 拷貝-9" class="cls-7" x="258.5" y="149" width="21" height="14" rx="2" ry="2"/><rect id="矩形_1405_拷貝_2-8" data-name="矩形 1405 拷貝 2-8" class="cls-7" x="286.5" y="149" width="21" height="14" rx="2" ry="2"/><rect id="矩形_1405_拷貝_5-9" data-name="矩形 1405 拷貝 5-9" class="cls-7" x="315.5" y="149" width="21" height="14" rx="2" ry="2"/></g><path id="矩形_1304_拷貝" data-name="矩形 1304 拷貝" class="cls-7" d="M6.5,0h598a6,6,0,0,1,6,6V51c0,3.31-2.69-4-6-4H6.5c-3.31,0-6,7.31-6,4V6A6,6,0,0,1,6.5,0Z" transform="translate(0 0)"/><rect id="矩形_1483" data-name="矩形 1483" class="cls-8" x="12.5" y="16" width="9" height="14"/><path id="工作技能_職能現場_拷貝" data-name="工作技能 職能現場 拷貝" class="cls-8" d="M58.19,28.5V18.16h6.46V16.79H50.43v1.37h6.3V28.5H49.49v1.33H65.55V28.5H58.19ZM71.67,14.83A20,20,0,0,1,67.22,22,6.65,6.65,0,0,1,68,23.31a17.89,17.89,0,0,0,1.78-2.14v10h1.33V19.1a27.51,27.51,0,0,0,1.84-3.86ZM83.75,19V17.77H76.26c.36-.8.7-1.61,1-2.44L76,15a19.13,19.13,0,0,1-4,6.9,7.78,7.78,0,0,1,1,.9A19.9,19.9,0,0,0,75.61,19h1.24V31.2H78.2V26.84h5.38V25.58H78.2V22.86h5.13V21.62H78.2V19h5.55Zm7.32,3.59-2,.57V19.64h2V18.38h-2v-3.6H87.76v3.6h-2.3v1.26h2.3v3.92c-1,.27-1.82.49-2.54.65l.38,1.32,2.16-.63v4.69a.3.3,0,0,1-.24.35H87.4c-.22,0-1,0-1.86,0A5,5,0,0,1,86,31.16a6.3,6.3,0,0,0,2.43-.23,1.24,1.24,0,0,0,.67-1.34V24.5l2.16-.65Zm8,.12a10.9,10.9,0,0,1-2.9,4.14,12.21,12.21,0,0,1-2.65-4.14h5.55Zm.85-1.29-.22.05H96.85V18.83h4.3V17.59h-4.3V14.76H95.54v2.83H91.32v1.24h4.21v2.68H91.68v1.24h.59l-.05,0a14.32,14.32,0,0,0,3,4.93A14.68,14.68,0,0,1,90.3,30,5.16,5.16,0,0,1,91,31.2a16.57,16.57,0,0,0,5.11-2.58,12.85,12.85,0,0,0,4.81,2.61,5.5,5.5,0,0,1,.86-1.15,12.35,12.35,0,0,1-4.64-2.32,13.21,13.21,0,0,0,3.65-5.93Zm17.87,1.06a9,9,0,0,0,1.6-.11c-.05-.31-.11-.81-.14-1.17a7.76,7.76,0,0,1-1.49.11h-3.31c-.58,0-.72-.22-.72-.87v-2h4.84V17.26h-4.84V14.78h-1.31v5.67c0,1.51.43,2.07,2,2.07h3.37ZM105.92,24a29.19,29.19,0,0,1,2.85,1.94l.72-.74a33,33,0,0,0-2.86-1.87Zm-.14-1.7h3.72v3.64c-1.44.72-2.86,1.44-3.87,1.89a17,17,0,0,0,.14-2.27V22.28Zm5-1.15h-6.25v4.4a7.94,7.94,0,0,1-1.14,4.78,4.12,4.12,0,0,1,.92.94,7,7,0,0,0,1.3-3.37l.47,1.08c1-.57,2.23-1.27,3.42-2v2.78c0,.23-.05.3-.31.3s-1,0-1.84,0a4.58,4.58,0,0,1,.43,1.12,7.26,7.26,0,0,0,2.36-.21,1,1,0,0,0,.63-1.19V21.13Zm-2.23-4.64c.38.55.76,1.17,1.12,1.78l-3.69.25a23.44,23.44,0,0,0,2.5-3.31l-1.33-.45A18.18,18.18,0,0,1,104.85,18a2.19,2.19,0,0,1-1,.71,8.59,8.59,0,0,1,.43,1.26c.41-.2,1-.27,5.92-.67.23.45.43.86.58,1.22L112,20a25,25,0,0,0-2.36-4Zm6.19,13.37c-.85,0-1-.1-1-.7v-2.7h5v-1.2h-5V23.11h-1.31v6.05c0,1.48.45,1.89,2.2,1.89h3.19c1.49,0,1.89-.61,2.05-2.95a4.24,4.24,0,0,1-1.19-.5c-.09,1.92-.22,2.26-1,2.26h-3Zm12-3.54a3.52,3.52,0,0,1,1.66-2.58,20.06,20.06,0,0,0,3.48,3.95,4,4,0,0,1-2.52,1.06,2.43,2.43,0,0,1-2.6-2.25q0-.09,0-.18Zm1.55-6.84a1.7,1.7,0,0,1,1.48-1.9h.15A1.26,1.26,0,0,1,131.21,19c0,1.17-1,2-2.25,2.79a5.5,5.5,0,0,1-.62-2.34Zm8.14,9.21A7.83,7.83,0,0,1,134,27.43a14.17,14.17,0,0,0,2.3-4.71h-1.5a11.23,11.23,0,0,1-1.87,3.9,15.92,15.92,0,0,1-3.35-3.72c1.46-1.07,3-2.18,3-3.91a2.43,2.43,0,0,0-2.24-2.61H130a3,3,0,0,0-3,2.92q0,.1,0,.21a7,7,0,0,0,.86,3.08c-1.35.94-2.59,2.05-2.59,3.82,0,2.12,1.62,3.65,4,3.65A5.49,5.49,0,0,0,133,28.55a9.66,9.66,0,0,0,3,1.51Zm21-9.75a14.45,14.45,0,0,0-1.44-3.05l-1,.36a14.65,14.65,0,0,1,1.39,3.1Zm-4.61-2.24h-1.94a17.17,17.17,0,0,0-.76-1.82l-1.1.24c.22.48.43,1.08.61,1.58h-2.21v1.07h5.4V16.7Zm-7.39,2.58h-1.89V16.76h1.89Zm-1.89,4.82h1.89v2.45l-1.89.42ZM145.5,23h-1.89V20.41h1.89Zm1.93-6.23V15.53h-5.8v1.23h1V27.18c-.41.06-.79.15-1.13.2l.27,1.15c1.1-.27,2.43-.56,3.78-.88v3.57h1.06V16.76h.87Zm1.51,10.89V26h2.56v1.69h-2.56Zm2.56-4.32V25h-2.56V23.33h2.56Zm5.2-1a16.07,16.07,0,0,1-1.51,3.44c-.18-1.24-.32-2.76-.41-4.43H158V20.16H154.7c-.09-1.67-.13-3.49-.14-5.38h-1.17c0,1.89.09,3.71.16,5.38h-1.82c.2-.59.43-1.35.65-2l-1.12-.2a18.66,18.66,0,0,1-.52,2.23h-1.28a15.34,15.34,0,0,0-.5-2.21l-1,.14a17.63,17.63,0,0,1,.41,2.07h-1.22v1.17h6.45a49.28,49.28,0,0,0,.61,5.83,14.28,14.28,0,0,1-1.69,1.93V22.36h-4.66v7.52h1.06V28.62h2.56v.49h1a11.47,11.47,0,0,1-1.51,1.2,5.72,5.72,0,0,1,.77.73,15.16,15.16,0,0,0,2.79-2.54c.47,1.67,1.1,2.64,2,2.66.59,0,1.21-.7,1.53-3.4a3.89,3.89,0,0,1-.86-.67c-.13,1.64-.34,2.61-.63,2.61-.47,0-.83-.88-1.15-2.36a17,17,0,0,0,2.32-4.5Zm17.4.2a9,9,0,0,0,1.6-.11c-.05-.31-.11-.81-.14-1.17a7.77,7.77,0,0,1-1.5.11h-3.31c-.58,0-.72-.22-.72-.87v-2h4.84V17.26H170V14.78h-1.31v5.67c0,1.51.43,2.07,2,2.07h3.38ZM162.22,24a29.19,29.19,0,0,1,2.85,1.94l.72-.74a33.19,33.19,0,0,0-2.86-1.87Zm-.14-1.7h3.73v3.64c-1.44.72-2.86,1.44-3.87,1.89a17,17,0,0,0,.14-2.27Zm5-1.15h-6.25v4.4a8,8,0,0,1-1.13,4.78,4.1,4.1,0,0,1,.92.94,7,7,0,0,0,1.3-3.37l.47,1.08c1-.57,2.23-1.27,3.42-2v2.78c0,.23-.05.3-.31.3s-1,0-1.84,0a4.62,4.62,0,0,1,.43,1.12,7.26,7.26,0,0,0,2.36-.21,1,1,0,0,0,.63-1.19V21.13Zm-2.23-4.64c.38.55.76,1.17,1.12,1.78l-3.69.25a23.52,23.52,0,0,0,2.5-3.31l-1.33-.45a18.18,18.18,0,0,1-2.29,3.29,2.2,2.2,0,0,1-1,.71,8.58,8.58,0,0,1,.43,1.26c.42-.2,1-.27,5.92-.67.23.45.43.86.58,1.22l1.15-.52a25,25,0,0,0-2.36-4ZM171,29.86c-.85,0-1-.1-1-.7v-2.7h5v-1.2h-5V23.11h-1.31v6.05c0,1.48.45,1.89,2.2,1.89h3.19c1.5,0,1.89-.61,2.05-2.95a4.24,4.24,0,0,1-1.19-.5c-.09,1.92-.22,2.26-1,2.26h-3Zm13-4.55-2.48.7V22h2.21V20.75h-2.21V16.92h2.39V15.69h-6.14v1.23h2.48v3.83H178V22h2.27v4.35c-1.06.31-2,.56-2.83.76l.36,1.28,6.39-1.89Zm2-2.88h5.83v1.84H186Zm0-2.88h5.83v1.8H186Zm0-2.87h5.83v1.81H186Zm5.22,13.24c-.45,0-.52-.07-.52-.52v-4h2.45V15.55h-8.41V25.4h1.6c-.29,2.32-1.1,3.94-4.27,4.81a3.92,3.92,0,0,1,.76,1.1c3.49-1.09,4.46-3.05,4.83-5.91h1.77v4c0,1.29.32,1.67,1.6,1.67h1.75c1.08,0,1.42-.56,1.51-2.75a3.09,3.09,0,0,1-1.12-.53c-.05,1.86-.13,2.13-.54,2.13h-1.4ZM209.5,17.73h-5.76V16.31h5.76Zm0,2.38h-5.76V18.67h5.76Zm1.24-4.81h-8.23v5.81h8.23ZM201,24.14l-1.84.83V19.91h1.95V18.65h-1.95V14.9h-1.24v3.75H195.8v1.26h2.11v5.63c-.92.42-1.77.78-2.45,1.07l.52,1.31c1.51-.72,3.48-1.67,5.29-2.59Zm11-.88V22.12H200.76v1.14h2.52a10.27,10.27,0,0,1-3.57,3.6,5.7,5.7,0,0,1,.92.83A12.4,12.4,0,0,0,203,25.63h1.82a11.84,11.84,0,0,1-4.05,4,3.55,3.55,0,0,1,.88.82A13.51,13.51,0,0,0,206,25.63h1.75a10.55,10.55,0,0,1-3.51,4.86,4.15,4.15,0,0,1,1,.78,12.5,12.5,0,0,0,3.67-5.64h1.4c-.23,2.83-.5,4-.81,4.29a.56.56,0,0,1-.54.2c-.27,0-.86,0-1.53-.08a2.29,2.29,0,0,1,.31,1.09c.72,0,1.39,0,1.78,0a1.43,1.43,0,0,0,1-.45c.5-.52.79-1.92,1.06-5.63a5.14,5.14,0,0,0,.05-.54h-7.74a11.82,11.82,0,0,0,.77-1.26H212Z" transform="translate(0 0)"/><path class="cls-9" d="M234.94,94.93H218.76a6.1,6.1,0,0,1-6.1-6.1V72.65a6.1,6.1,0,0,1,6.1-6.1h16.18a6.1,6.1,0,0,1,6.1,6.1V88.83a6.1,6.1,0,0,1-6.1,6.1Zm0,0" transform="translate(0 0)"/><path class="cls-10" d="M221,87.84h-1.57V72.56h5.26a3.77,3.77,0,0,1,3.18,1.33,5.53,5.53,0,0,1,1,3.49q0,.76,0,1.32a7.7,7.7,0,0,1-.27,1.4,4.16,4.16,0,0,1-.62,1.37,3.25,3.25,0,0,1-1.2.94,4.21,4.21,0,0,1-1.92.41H221v5Zm0-6.55h3.64A2.69,2.69,0,0,0,226,81a2.4,2.4,0,0,0,.8-.66,2.73,2.73,0,0,0,.39-1,6.28,6.28,0,0,0,.15-1c0-.22,0-.53,0-.94q0-3.32-2.77-3.32H221Zm0,0" transform="translate(0 0)"/><path class="cls-10" d="M232.59,87.84H231V76.9h1.53v.57a4.1,4.1,0,0,1,2.49-.72,8.73,8.73,0,0,1,1.64.17l-.39,1.48a5.26,5.26,0,0,0-1.58-.24,2.6,2.6,0,0,0-1.46.43,1.31,1.31,0,0,0-.64,1.15Zm0,0" transform="translate(0 0)"/><path class="cls-11" d="M35.18,94.89H19.32a6,6,0,0,1-6-6V73a6,6,0,0,1,6-6H35.18a6,6,0,0,1,6,6V88.91a6,6,0,0,1-6,6Zm0,0" transform="translate(0 0)"/><path class="cls-12" d="M19.84,87.93H18.3v-15h5.16a3.7,3.7,0,0,1,3.12,1.31,5.42,5.42,0,0,1,1,3.42q0,.75,0,1.3a7.81,7.81,0,0,1-.27,1.37,4.09,4.09,0,0,1-.61,1.35,3.19,3.19,0,0,1-1.18.92,4.13,4.13,0,0,1-1.88.4H19.84Zm0-6.42h3.57a2.64,2.64,0,0,0,1.31-.3,2.34,2.34,0,0,0,.78-.64,2.66,2.66,0,0,0,.39-1,6.19,6.19,0,0,0,.15-1c0-.21,0-.52,0-.92q0-3.25-2.72-3.25H19.84Zm0,0" transform="translate(0 0)"/><path class="cls-12" d="M29.11,85.21l1.5-.07a1.6,1.6,0,0,0,.79,1.23,3,3,0,0,0,1.63.44,3,3,0,0,0,1.59-.42,1.33,1.33,0,0,0,.67-1.2A1.51,1.51,0,0,0,34.72,84a4.42,4.42,0,0,0-1.41-.73c-.56-.18-1.12-.37-1.68-.57a3.92,3.92,0,0,1-1.49-.94,2.43,2.43,0,0,1-.79-1.83,2.91,2.91,0,0,1,.86-2A3.7,3.7,0,0,1,33,76.95a4.93,4.93,0,0,1,1.28.16,3.89,3.89,0,0,1,.86.31l.26.15-.49,1.35a2.84,2.84,0,0,0-1.8-.54,2.71,2.71,0,0,0-1.66.42,1.27,1.27,0,0,0-.55,1.06A1.24,1.24,0,0,0,31.62,81a7.57,7.57,0,0,0,1.54.68c.57.19,1.14.39,1.7.62a3.51,3.51,0,0,1,1.43,1.07,3,3,0,0,1,.59,1.93,2.76,2.76,0,0,1-1,2.09,4,4,0,0,1-2.82.89,4.39,4.39,0,0,1-2.9-.88,2.84,2.84,0,0,1-1.09-2.16Zm0,0" transform="translate(0 0)"/><path class="cls-13" d="M35.48,132.89h-16a6,6,0,0,1-6-6v-16a6,6,0,0,1,6-6h16a6,6,0,0,1,6,6v16a6,6,0,0,1-6,6Zm0,0" transform="translate(0 0)"/><path class="cls-14" d="M30,125.89H28.28L26.79,121H22.31l-1.42,4.87H19.21l4.44-15.07h1.79Zm-3.62-6.46-1.87-6.12-1.81,6.12Zm0,0" transform="translate(0 0)"/><path class="cls-14" d="M33.68,111.48a.84.84,0,0,1-.26.62.83.83,0,0,1-.61.26.86.86,0,0,1-.63-.27.84.84,0,0,1,0-1.23.87.87,0,0,1,.63-.27.83.83,0,0,1,.61.26.85.85,0,0,1,.26.63Zm-.13,14.41H32V115.1h1.55Zm0,0" transform="translate(0 0)"/><path class="cls-15" d="M35.65,170.89h-16a6,6,0,0,1-6-6v-16a6,6,0,0,1,6-6h16a6,6,0,0,1,6,6v16a6,6,0,0,1-6,6Zm0,0" transform="translate(0 0)"/><path class="cls-16" d="M24.18,163.89H22.63V148.81h7.19v1.51H24.18V155h3.49l-.58,1.51H24.18Zm0,0" transform="translate(0 0)"/><rect class="cls-16" x="30.96" y="148.81" width="1.55" height="15.07"/><path class="cls-17" d="M234.22,132.72H218.45a6,6,0,0,1-5.95-5.95V111a6,6,0,0,1,5.95-5.95h15.77a6,6,0,0,1,5.95,5.95v15.77a6,6,0,0,1-5.95,5.95Zm0,0" transform="translate(0 0)"/><path class="cls-18" d="M222.12,125.8h-1.53V112.36l-1.41,0v-1.4h2.94Zm0,0" transform="translate(0 0)"/><path class="cls-18" d="M227.23,115.38a5.68,5.68,0,0,1,2.27-.41,4,4,0,0,1,2.25.6v-4.66h1.53v14.9a24.39,24.39,0,0,1-3.38.26,6.09,6.09,0,0,1-2.81-.64,3,3,0,0,1-1.66-3v-4a3.07,3.07,0,0,1,1.81-3.07Zm4.51,1.66a5,5,0,0,0-2.43-.6,2.29,2.29,0,0,0-1.82.65,2.42,2.42,0,0,0-.56,1.65v3.79a1.84,1.84,0,0,0,.7,1.53,3.07,3.07,0,0,0,1.89.57,14.26,14.26,0,0,0,2.21-.17Zm0,0" transform="translate(0 0)"/><path class="cls-19" d="M234.48,170.89h-16a6,6,0,0,1-6-6v-16a6,6,0,0,1,6-6h16a6,6,0,0,1,6,6v16a6,6,0,0,1-6,6Zm0,0" transform="translate(0 0)"/><path class="cls-20" d="M227.28,163.89h-1.75L224,159h-4.48l-1.42,4.87h-1.68l4.44-15.07h1.79Zm-3.62-6.46-1.87-6.12L220,157.43Zm0,0" transform="translate(0 0)"/><path class="cls-20" d="M229.45,160.92q0,1.83,2.15,1.83a6.12,6.12,0,0,0,2.93-.88l.58,1.27a6.57,6.57,0,0,1-3.47,1q-3.75,0-3.75-3.15v-4.41a3.44,3.44,0,0,1,1.09-2.71,4.16,4.16,0,0,1,2.88-1,3.86,3.86,0,0,1,2.79,1,3.5,3.5,0,0,1,1,2.66v3l-6.2.32Zm4.63-2.82v-1.66a1.83,1.83,0,0,0-.71-1.63,2.87,2.87,0,0,0-1.66-.48,2.33,2.33,0,0,0-1.6.58,2.15,2.15,0,0,0-.66,1.7v1.72Zm0,0" transform="translate(0 0)"/></svg>