<svg xmlns="http://www.w3.org/2000/svg" viewBox="0 0 167.83 163.77"><defs><style>.cls-1{fill:#fff;}.cls-2{fill:#333331;}.cls-3{fill:#ffc13a;}</style></defs><title>bg_design_04</title><g id="圖層_2" data-name="圖層 2"><g id="圖層_8" data-name="圖層 8"><g id="_群組_" data-name="&lt;群組&gt;"><path id="_矩形_" data-name="&lt;矩形&gt;" class="cls-1" d="M8.46,50.79H141.63a0,0,0,0,1,0,0v68a13.5,13.5,0,0,1-13.5,13.5H22a13.5,13.5,0,0,1-13.5-13.5v-68a0,0,0,0,1,0,0Z" transform="translate(77.62 -26.81) rotate(40.6)"/><path class="cls-2" d="M95.88,163.35a7.46,7.46,0,0,1-2.4-1.38L2.62,84.1A7.51,7.51,0,0,1,1.8,73.52L50.43,16.78a.75.75,0,0,1,1.06-.08l101.12,86.66a.75.75,0,0,1,.08,1.06l-48.63,56.74A7.52,7.52,0,0,1,95.88,163.35Zm-1.42-2.52a6,6,0,0,0,8.46-.65L151.06,104l-100-85.68L2.94,74.49A6,6,0,0,0,3.59,83Z"/><polygon id="_路徑_" data-name="&lt;路徑&gt;" class="cls-3" points="152.12 103.92 51 17.27 54.92 3.28 165.34 97.91 152.12 103.92"/><path class="cls-2" d="M151.87,104.63a.75.75,0,0,1-.24-.14L50.51,17.83a.75.75,0,0,1-.23-.77l3.92-14a.75.75,0,0,1,1.21-.37L165.82,97.34a.75.75,0,0,1-.18,1.25l-13.22,6A.75.75,0,0,1,151.87,104.63ZM51.85,17l100.39,86L164,97.71,55.33,4.62Z"/><path id="_矩形_2" data-name="&lt;矩形&gt;" class="cls-1" d="M46.37,44.21H178.61a6.59,6.59,0,0,1,6.59,6.59v.67a0,0,0,0,1,0,0H39.78a0,0,0,0,1,0,0V50.8a6.59,6.59,0,0,1,6.59-6.59Z" transform="translate(58.2 -61.68) rotate(40.6)"/><path class="cls-2" d="M165.09,98.61a.76.76,0,0,1-.24-.14L54.43,3.85a.75.75,0,0,1-.08-1.06,8,8,0,0,1,11.29-.87L165,87.11h0a8,8,0,0,1,.87,11.29A.75.75,0,0,1,165.09,98.61ZM56,3.23,165.22,96.82a6.51,6.51,0,0,0-1.16-8.57L64.66,3.06A6.51,6.51,0,0,0,56,3.23Z"/><g id="_群組_2" data-name="&lt;群組&gt;"><polygon id="_路徑_2" data-name="&lt;路徑&gt;" class="cls-1" points="56.32 15.65 57.45 11.62 156.71 96.68 152.9 98.42 56.32 15.65"/><path class="cls-2" d="M152.65,99.13a.75.75,0,0,1-.24-.14L55.83,16.22a.75.75,0,0,1-.23-.77l1.13-4a.75.75,0,0,1,1.21-.37l99.26,85.06a.75.75,0,0,1-.18,1.25l-3.81,1.73A.75.75,0,0,1,152.65,99.13ZM57.17,15.39,153,97.54l2.3-1L57.85,13Z"/><polygon id="_路徑_3" data-name="&lt;路徑&gt;" class="cls-1" points="56.32 15.65 57.45 11.62 156.71 96.68 152.9 98.42 56.32 15.65"/><path class="cls-2" d="M152.65,99.13a.75.75,0,0,1-.24-.14L55.83,16.22a.75.75,0,0,1-.23-.77l1.13-4a.75.75,0,0,1,1.21-.37l99.26,85.06a.75.75,0,0,1-.18,1.25l-3.81,1.73A.75.75,0,0,1,152.65,99.13ZM57.17,15.39,153,97.54l2.3-1L57.85,13Z"/></g><rect id="_矩形_3" data-name="&lt;矩形&gt;" class="cls-3" x="40.69" y="103.66" width="34.15" height="16.07" transform="translate(86.59 -10.7) rotate(40.6)"/><path class="cls-2" d="M65.25,129.62a.75.75,0,0,1-.24-.14L39.08,107.26A.75.75,0,0,1,39,106.2L49.45,94a.75.75,0,0,1,1.06-.08l25.93,22.22a.75.75,0,0,1,.08,1.06L66.07,129.4a.75.75,0,0,1-.82.22Zm-24.63-23,24.79,21.25,9.48-11.06L50.11,95.54Z"/><line id="_路徑_4" data-name="&lt;路徑&gt;" class="cls-1" x1="42.83" y1="102.87" x2="51.32" y2="110.14"/><path class="cls-2" d="M51.07,110.85a.76.76,0,0,1-.24-.14l-8.48-7.27a.75.75,0,1,1,1-1.14l8.48,7.27a.75.75,0,0,1-.74,1.28Z"/><line id="_路徑_5" data-name="&lt;路徑&gt;" class="cls-1" x1="60.29" y1="117.83" x2="68.77" y2="125.1"/><path class="cls-2" d="M68.52,125.81a.76.76,0,0,1-.24-.14L59.8,118.4a.75.75,0,1,1,1-1.14l8.48,7.27a.75.75,0,0,1-.74,1.28Z"/><rect id="_矩形_4" data-name="&lt;矩形&gt;" class="cls-3" x="25.62" y="61.77" width="6.7" height="6.7" transform="translate(49.35 -3.18) rotate(40.6)"/><path class="cls-2" d="M29.09,70.55a.75.75,0,0,1-.24-.14l-5.08-4.36A.75.75,0,0,1,23.68,65L28,59.91a.75.75,0,0,1,1.06-.08l5.08,4.36a.75.75,0,0,1,.08,1.06L29.9,70.33a.75.75,0,0,1-.82.22ZM25.31,65.4l3.94,3.38,3.38-3.95-3.94-3.38Z"/><rect id="_矩形_5" data-name="&lt;矩形&gt;" class="cls-3" x="34.27" y="69.18" width="6.7" height="6.7" transform="translate(56.25 -7.02) rotate(40.6)"/><path class="cls-2" d="M37.73,78a.76.76,0,0,1-.24-.14L32.4,73.46a.75.75,0,0,1-.08-1.06l4.36-5.09a.75.75,0,0,1,1.06-.08l5.09,4.36a.75.75,0,0,1,.08,1.06l-4.36,5.08A.75.75,0,0,1,37.73,78ZM34,72.81l3.94,3.38,3.38-3.94-3.95-3.38Z"/><polygon id="_路徑_6" data-name="&lt;路徑&gt;" class="cls-3" points="80.47 104.85 45.9 75.22 41.54 80.3 76.11 109.93 81.2 114.29 85.56 109.21 80.47 104.85"/><path class="cls-2" d="M81,115a.76.76,0,0,1-.24-.14L41,80.87A.75.75,0,0,1,41,79.81l4.36-5.08a.75.75,0,0,1,1.06-.08L81,104.28h0L86,108.64a.75.75,0,0,1,.08,1.06l-4.36,5.08A.75.75,0,0,1,81,115ZM42.6,80.22l38.52,33,3.38-3.94L46,76.27Z"/><rect id="_矩形_6" data-name="&lt;矩形&gt;" class="cls-3" x="86.13" y="113.63" width="6.7" height="6.7" transform="translate(97.66 -30.07) rotate(40.6)"/><path class="cls-2" d="M89.6,122.41a.76.76,0,0,1-.24-.14l-5.09-4.36a.75.75,0,0,1-.08-1.06l4.36-5.08a.75.75,0,0,1,1.06-.08L94.69,116a.75.75,0,0,1,.08,1.06l-4.36,5.08A.75.75,0,0,1,89.6,122.41Zm-3.78-5.15,3.95,3.38,3.38-3.94-3.94-3.38Z"/><rect id="_矩形_7" data-name="&lt;矩形&gt;" class="cls-3" x="94.78" y="121.04" width="6.7" height="6.7" transform="translate(104.56 -33.91) rotate(40.6)"/><path class="cls-2" d="M98.24,129.82a.75.75,0,0,1-.24-.14l-5.08-4.36a.75.75,0,0,1-.08-1.06l4.36-5.08a.75.75,0,0,1,1.06-.08l5.08,4.36a.75.75,0,0,1,.08,1.06l-4.36,5.08a.75.75,0,0,1-.82.22Zm-3.78-5.15,3.94,3.38,3.38-3.94-3.94-3.38Z"/><polygon id="_路徑_7" data-name="&lt;路徑&gt;" class="cls-3" points="43.93 60.01 35.29 52.6 30.93 57.69 39.58 65.1 44.66 69.45 49.02 64.37 43.93 60.01"/><path class="cls-2" d="M44.41,70.16a.75.75,0,0,1-.24-.14L30.44,58.26a.75.75,0,0,1-.08-1.06l4.36-5.08A.75.75,0,0,1,35.78,52L49.51,63.8a.75.75,0,0,1,.08,1.06l-4.36,5.09a.75.75,0,0,1-.82.22ZM32,57.61,44.58,68.4,48,64.45l-4.52-3.87h0l-8.07-6.92Z"/><rect id="_矩形_8" data-name="&lt;矩形&gt;" class="cls-3" x="49.59" y="68.79" width="6.7" height="6.7" transform="translate(59.69 -17.09) rotate(40.6)"/><path class="cls-2" d="M53.06,77.57a.76.76,0,0,1-.24-.14l-5.08-4.36A.75.75,0,0,1,47.65,72L52,66.93a.75.75,0,0,1,1.06-.08l5.08,4.36a.75.75,0,0,1,.08,1.06l-4.36,5.08A.75.75,0,0,1,53.06,77.57Zm-3.78-5.15,3.94,3.38,3.38-3.94-3.94-3.38Z"/><rect id="_矩形_9" data-name="&lt;矩形&gt;" class="cls-3" x="58.24" y="76.2" width="6.7" height="6.7" transform="translate(66.59 -20.93) rotate(40.6)"/><path class="cls-2" d="M61.7,85a.76.76,0,0,1-.24-.14l-5.09-4.36a.75.75,0,0,1-.08-1.06l4.36-5.08a.75.75,0,0,1,1.06-.08l5.08,4.36a.75.75,0,0,1,.08,1.06l-4.36,5.08A.75.75,0,0,1,61.7,85Zm-3.78-5.15,3.95,3.38,3.38-3.94L61.3,75.89Z"/><rect id="_矩形_10" data-name="&lt;矩形&gt;" class="cls-3" x="66.88" y="83.61" width="6.7" height="6.7" transform="translate(73.49 -24.77) rotate(40.6)"/><path class="cls-2" d="M70.35,92.39a.75.75,0,0,1-.24-.14L65,87.89a.75.75,0,0,1-.08-1.06l4.36-5.08a.75.75,0,0,1,1.06-.08L75.44,86a.75.75,0,0,1,.08,1.06l-4.36,5.08a.75.75,0,0,1-.82.22Zm-3.78-5.15,3.94,3.38,3.38-3.94-3.94-3.38Z"/><rect id="_矩形_11" data-name="&lt;矩形&gt;" class="cls-3" x="92.81" y="105.83" width="6.7" height="6.7" transform="translate(94.19 -36.3) rotate(40.6)"/><path class="cls-2" d="M96.28,114.61a.76.76,0,0,1-.24-.14L91,110.12a.75.75,0,0,1-.08-1.06L95.23,104a.75.75,0,0,1,1.06-.08l5.08,4.36a.75.75,0,0,1,.08,1.06l-4.36,5.08A.75.75,0,0,1,96.28,114.61Zm-3.78-5.15,3.95,3.38,3.38-3.94-3.94-3.38Z"/><rect id="_矩形_12" data-name="&lt;矩形&gt;" class="cls-3" x="101.46" y="113.24" width="6.7" height="6.7" transform="translate(101.09 -40.14) rotate(40.6)"/><path class="cls-2" d="M104.92,122a.76.76,0,0,1-.24-.14l-5.08-4.36a.75.75,0,0,1-.08-1.06l4.36-5.08a.75.75,0,0,1,1.06-.08l5.08,4.36a.75.75,0,0,1,.08,1.06l-4.36,5.08A.75.75,0,0,1,104.92,122Zm-3.78-5.15,3.94,3.38,3.38-3.94-3.94-3.38Z"/><polygon id="_路徑_8" data-name="&lt;路徑&gt;" class="cls-3" points="113.09 119.28 108.73 124.36 102.05 132.16 107.13 136.52 113.81 128.72 118.17 123.64 113.09 119.28"/><path class="cls-2" d="M106.89,137.22a.76.76,0,0,1-.24-.14l-5.08-4.36a.75.75,0,0,1-.08-1.06l11-12.88a.75.75,0,0,1,1.06-.08l5.09,4.36a.75.75,0,0,1,.08,1.06L107.7,137A.75.75,0,0,1,106.89,137.22Zm-3.78-5.15,3.94,3.38,10.06-11.74-3.95-3.38Z"/><rect id="_矩形_13" data-name="&lt;矩形&gt;" class="cls-3" x="38.99" y="46.18" width="6.7" height="6.7" transform="translate(42.42 -15.63) rotate(40.6)"/><path class="cls-2" d="M42.45,55a.75.75,0,0,1-.24-.14l-5.08-4.36A.75.75,0,0,1,37,49.4l4.36-5.08a.75.75,0,0,1,1.06-.08l5.08,4.36a.75.75,0,0,1,.08,1.06l-4.36,5.08a.75.75,0,0,1-.82.22Zm-3.78-5.15,3.94,3.38L46,49.25l-3.94-3.38Z"/><rect id="_矩形_14" data-name="&lt;矩形&gt;" class="cls-3" x="47.63" y="53.59" width="6.7" height="6.7" transform="translate(49.32 -19.47) rotate(40.6)"/><path class="cls-2" d="M51.09,62.37a.76.76,0,0,1-.24-.14l-5.08-4.36a.75.75,0,0,1-.08-1.06L50,51.73a.75.75,0,0,1,1.06-.08L56.19,56a.75.75,0,0,1,.08,1.06l-4.36,5.08A.75.75,0,0,1,51.09,62.37Zm-3.78-5.15,3.94,3.38,3.38-3.94L50.7,53.27Z"/><rect id="_矩形_15" data-name="&lt;矩形&gt;" class="cls-3" x="56.27" y="61" width="6.7" height="6.7" transform="translate(56.22 -23.31) rotate(40.6)"/><path class="cls-2" d="M59.74,69.77a.75.75,0,0,1-.24-.14l-5.08-4.36a.75.75,0,0,1-.08-1.06l4.36-5.08a.75.75,0,0,1,1.06-.08l5.08,4.36a.75.75,0,0,1,.08,1.06l-4.36,5.09a.75.75,0,0,1-.82.22ZM56,64.63,59.9,68l3.38-3.95-3.94-3.38Z"/><rect id="_矩形_16" data-name="&lt;矩形&gt;" class="cls-3" x="64.92" y="68.4" width="6.7" height="6.7" transform="translate(63.12 -27.15) rotate(40.6)"/><path class="cls-2" d="M68.38,77.18a.76.76,0,0,1-.24-.14l-5.09-4.36A.75.75,0,0,1,63,71.63l4.36-5.09a.75.75,0,0,1,1.06-.08l5.08,4.36a.75.75,0,0,1,.08,1.06L69.2,77A.75.75,0,0,1,68.38,77.18ZM64.6,72l3.95,3.38,3.38-3.94L68,68.09Z"/><rect id="_矩形_17" data-name="&lt;矩形&gt;" class="cls-3" x="73.56" y="75.81" width="6.7" height="6.7" transform="translate(70.02 -31) rotate(40.6)"/><path class="cls-2" d="M77,84.59a.76.76,0,0,1-.24-.14L71.7,80.09A.75.75,0,0,1,71.62,79L76,74A.75.75,0,0,1,77,73.87l5.08,4.36a.75.75,0,0,1,.08,1.06l-4.36,5.08A.75.75,0,0,1,77,84.59Zm-3.78-5.15,3.94,3.38,3.38-3.94L76.63,75.5Z"/><rect id="_矩形_18" data-name="&lt;矩形&gt;" class="cls-3" x="82.21" y="83.22" width="6.7" height="6.7" transform="translate(76.92 -34.84) rotate(40.6)"/><path class="cls-2" d="M85.67,92a.75.75,0,0,1-.24-.14L80.35,87.5a.75.75,0,0,1-.08-1.06l4.36-5.08a.75.75,0,0,1,1.06-.08l5.08,4.36a.75.75,0,0,1,.08,1.06l-4.36,5.08a.75.75,0,0,1-.82.22Zm-3.78-5.15,3.94,3.38,3.38-3.94-3.94-3.38Z"/><polygon id="_路徑_9" data-name="&lt;路徑&gt;" class="cls-3" points="93.84 89.25 87.16 97.05 83.59 94 78.51 89.64 74.15 94.73 79.24 99.09 82.8 102.14 87.88 106.5 92.24 101.41 98.92 93.61 93.84 89.25"/><path class="cls-2" d="M87.63,107.2a.75.75,0,0,1-.24-.14L73.66,95.3a.75.75,0,0,1-.08-1.06l4.36-5.08A.75.75,0,0,1,79,89.07L87.07,96l6.19-7.23a.75.75,0,0,1,1.06-.08L99.41,93a.75.75,0,0,1,.08,1.06L88.45,107a.75.75,0,0,1-.82.22ZM75.21,94.65,87.8,105.44,97.86,93.69l-3.94-3.38-6.19,7.23a.75.75,0,0,1-1.06.08L78.59,90.7Z"/><rect id="_矩形_19" data-name="&lt;矩形&gt;" class="cls-3" x="99.5" y="98.04" width="6.7" height="6.7" transform="translate(90.73 -42.52) rotate(40.6)"/><path class="cls-2" d="M103,106.82a.75.75,0,0,1-.24-.14l-5.09-4.36a.75.75,0,0,1-.08-1.06l4.36-5.08a.75.75,0,0,1,1.06-.08l5.08,4.36a.75.75,0,0,1,.08,1.06l-4.36,5.09a.75.75,0,0,1-.82.22Zm-3.78-5.15,3.95,3.38,3.38-3.95-3.94-3.38Z"/><rect id="_矩形_20" data-name="&lt;矩形&gt;" class="cls-3" x="108.14" y="105.44" width="6.7" height="6.7" transform="translate(97.63 -46.36) rotate(40.6)"/><path class="cls-2" d="M111.61,114.22a.76.76,0,0,1-.24-.14l-5.08-4.36a.75.75,0,0,1-.08-1.06l4.36-5.09a.75.75,0,0,1,1.06-.08l5.08,4.36a.75.75,0,0,1,.08,1.06L112.42,114A.75.75,0,0,1,111.61,114.22Zm-3.78-5.15,3.94,3.38,3.38-3.94-3.94-3.38Z"/><rect id="_矩形_21" data-name="&lt;矩形&gt;" class="cls-3" x="116.79" y="112.85" width="6.7" height="6.7" transform="translate(104.53 -50.21) rotate(40.6)"/><path class="cls-2" d="M120.25,121.63a.76.76,0,0,1-.24-.14l-5.08-4.36a.75.75,0,0,1-.08-1.06L119.2,111a.75.75,0,0,1,1.06-.08l5.08,4.36a.75.75,0,0,1,.08,1.06l-4.36,5.08A.75.75,0,0,1,120.25,121.63Zm-3.78-5.15,3.94,3.38,3.38-3.94-3.94-3.38Z"/><polygon id="_路徑_10" data-name="&lt;路徑&gt;" class="cls-3" points="57.3 44.42 48.65 37.01 44.3 42.09 52.94 49.5 58.02 53.86 62.38 48.77 57.3 44.42"/><path class="cls-2" d="M57.78,54.57a.76.76,0,0,1-.24-.14L43.81,42.66a.75.75,0,0,1-.08-1.06l4.36-5.08a.75.75,0,0,1,1.06-.08l8.64,7.41h0l5.09,4.36A.75.75,0,0,1,63,49.26l-4.36,5.08A.75.75,0,0,1,57.78,54.57ZM45.35,42,57.94,52.8l3.38-3.94L48.73,38.07Z"/><rect id="_矩形_22" data-name="&lt;矩形&gt;" class="cls-3" x="62.96" y="53.2" width="6.7" height="6.7" transform="translate(52.76 -29.54) rotate(40.6)"/><path class="cls-2" d="M66.42,62a.76.76,0,0,1-.24-.14l-5.08-4.36A.75.75,0,0,1,61,56.42l4.36-5.08a.75.75,0,0,1,1.06-.08l5.08,4.36a.75.75,0,0,1,.08,1.06l-4.36,5.08A.75.75,0,0,1,66.42,62Zm-3.78-5.15,3.94,3.38L70,56.26,66,52.88Z"/><rect id="_矩形_23" data-name="&lt;矩形&gt;" class="cls-3" x="71.6" y="60.61" width="6.7" height="6.7" transform="translate(59.66 -33.38) rotate(40.6)"/><path class="cls-2" d="M75.07,69.39a.75.75,0,0,1-.24-.14l-5.09-4.36a.75.75,0,0,1-.08-1.06L74,58.75a.75.75,0,0,1,1.06-.08L80.16,63a.75.75,0,0,1,.08,1.06l-4.36,5.09a.75.75,0,0,1-.82.22Zm-3.78-5.15,3.95,3.38,3.38-3.95-3.94-3.38Z"/><rect id="_矩形_24" data-name="&lt;矩形&gt;" class="cls-3" x="80.25" y="68.01" width="6.7" height="6.7" transform="translate(66.56 -37.22) rotate(40.6)"/><path class="cls-2" d="M83.71,76.79a.76.76,0,0,1-.24-.14L78.38,72.3a.75.75,0,0,1-.08-1.06l4.36-5.09a.75.75,0,0,1,1.06-.08l5.08,4.36a.75.75,0,0,1,.08,1.06l-4.36,5.08A.75.75,0,0,1,83.71,76.79Zm-3.78-5.15L83.88,75l3.38-3.94L83.31,67.7Z"/><rect id="_矩形_25" data-name="&lt;矩形&gt;" class="cls-3" x="88.89" y="75.42" width="6.7" height="6.7" transform="translate(73.46 -41.06) rotate(40.6)"/><path class="cls-2" d="M92.35,84.2a.76.76,0,0,1-.24-.14L87,79.71a.75.75,0,0,1-.08-1.06l4.36-5.08a.75.75,0,0,1,1.06-.08l5.08,4.36a.75.75,0,0,1,.08,1.06L93.17,84A.75.75,0,0,1,92.35,84.2Zm-3.78-5.15,3.94,3.38,3.38-3.94L92,75.11Z"/><rect id="_矩形_26" data-name="&lt;矩形&gt;" class="cls-3" x="97.53" y="82.83" width="6.7" height="6.7" transform="translate(80.36 -44.9) rotate(40.6)"/><path class="cls-2" d="M101,91.61a.76.76,0,0,1-.24-.14l-5.08-4.36a.75.75,0,0,1-.08-1.06L99.95,81a.75.75,0,0,1,1.06-.08l5.08,4.36a.75.75,0,0,1,.08,1.06l-4.36,5.08A.75.75,0,0,1,101,91.61Zm-3.78-5.15,3.94,3.38,3.38-3.94-3.94-3.38Z"/><rect id="_矩形_27" data-name="&lt;矩形&gt;" class="cls-3" x="106.18" y="90.24" width="6.7" height="6.7" transform="translate(87.26 -48.75) rotate(40.6)"/><path class="cls-2" d="M109.64,99a.76.76,0,0,1-.24-.14l-5.09-4.36a.75.75,0,0,1-.08-1.06l4.36-5.08a.75.75,0,0,1,1.06-.08l5.08,4.36a.75.75,0,0,1,.08,1.06l-4.36,5.08A.75.75,0,0,1,109.64,99Zm-3.78-5.15,3.95,3.38,3.38-3.94-3.94-3.38Z"/><rect id="_矩形_28" data-name="&lt;矩形&gt;" class="cls-3" x="114.82" y="97.65" width="6.7" height="6.7" transform="translate(94.16 -52.59) rotate(40.6)"/><path class="cls-2" d="M118.29,106.43a.75.75,0,0,1-.24-.14L113,101.93a.75.75,0,0,1-.08-1.06l4.36-5.08a.75.75,0,0,1,1.06-.08l5.08,4.36a.75.75,0,0,1,.08,1.06l-4.36,5.09a.75.75,0,0,1-.82.22Zm-3.78-5.15,3.94,3.38,3.38-3.95-3.94-3.38Z"/><rect id="_矩形_29" data-name="&lt;矩形&gt;" class="cls-3" x="123.47" y="105.06" width="6.7" height="6.7" transform="translate(101.06 -56.43) rotate(40.6)"/><path class="cls-2" d="M126.93,113.83a.76.76,0,0,1-.24-.14l-5.08-4.36a.75.75,0,0,1-.08-1.06l4.36-5.09a.75.75,0,0,1,1.06-.08l5.08,4.36a.75.75,0,0,1,.08,1.06l-4.36,5.08A.75.75,0,0,1,126.93,113.83Zm-3.78-5.15,3.94,3.38,3.38-3.94-3.94-3.38Z"/><rect id="_矩形_30" data-name="&lt;矩形&gt;" class="cls-3" x="52.35" y="30.59" width="6.7" height="6.7" transform="translate(35.49 -28.08) rotate(40.6)"/><path class="cls-2" d="M55.81,39.36a.76.76,0,0,1-.24-.14l-5.08-4.36a.75.75,0,0,1-.08-1.06l4.36-5.09a.75.75,0,0,1,1.06-.08L60.91,33A.75.75,0,0,1,61,34.06l-4.36,5.08A.75.75,0,0,1,55.81,39.36ZM52,34.22,56,37.6l3.38-3.94-3.94-3.38Z"/><rect id="_矩形_31" data-name="&lt;矩形&gt;" class="cls-3" x="60.99" y="37.99" width="6.7" height="6.7" transform="translate(42.39 -31.92) rotate(40.6)"/><path class="cls-2" d="M64.46,46.77a.76.76,0,0,1-.24-.14l-5.08-4.36a.75.75,0,0,1-.08-1.06l4.36-5.08a.75.75,0,0,1,1.06-.08l5.08,4.36a.75.75,0,0,1,.08,1.06l-4.36,5.08A.75.75,0,0,1,64.46,46.77Zm-3.78-5.15L64.62,45,68,41.06l-3.94-3.38Z"/><rect id="_矩形_32" data-name="&lt;矩形&gt;" class="cls-3" x="69.64" y="45.4" width="6.7" height="6.7" transform="translate(49.29 -35.76) rotate(40.6)"/><path class="cls-2" d="M73.1,54.18a.76.76,0,0,1-.24-.14l-5.08-4.36a.75.75,0,0,1-.08-1.06l4.36-5.08a.75.75,0,0,1,1.06-.08l5.08,4.36a.75.75,0,0,1,.08,1.06L73.92,54A.75.75,0,0,1,73.1,54.18ZM69.32,49l3.94,3.38,3.38-3.94L72.7,45.09Z"/><rect id="_矩形_33" data-name="&lt;矩形&gt;" class="cls-3" x="78.28" y="52.81" width="6.7" height="6.7" transform="translate(56.19 -39.6) rotate(40.6)"/><path class="cls-2" d="M81.75,61.59a.76.76,0,0,1-.24-.14l-5.09-4.36A.75.75,0,0,1,76.34,56l4.36-5.08a.75.75,0,0,1,1.06-.08l5.08,4.36a.75.75,0,0,1,.08,1.06l-4.36,5.08A.75.75,0,0,1,81.75,61.59ZM78,56.44l3.95,3.38,3.38-3.94L81.35,52.5Z"/><rect id="_矩形_34" data-name="&lt;矩形&gt;" class="cls-3" x="86.93" y="60.22" width="6.7" height="6.7" transform="translate(63.09 -43.44) rotate(40.6)"/><path class="cls-2" d="M90.39,69a.75.75,0,0,1-.24-.14L85.07,64.5A.75.75,0,0,1,85,63.44l4.36-5.08a.75.75,0,0,1,1.06-.08l5.08,4.36a.75.75,0,0,1,.08,1.06l-4.36,5.09a.75.75,0,0,1-.82.22Zm-3.78-5.15,3.94,3.38,3.38-3.95L90,59.9Z"/><rect id="_矩形_35" data-name="&lt;矩形&gt;" class="cls-3" x="95.57" y="67.63" width="6.7" height="6.7" transform="translate(69.99 -47.29) rotate(40.6)"/><path class="cls-2" d="M99,76.4a.76.76,0,0,1-.24-.14l-5.08-4.36a.75.75,0,0,1-.08-1.06L98,65.76A.75.75,0,0,1,99,65.68L104.13,70a.75.75,0,0,1,.08,1.06l-4.36,5.08A.75.75,0,0,1,99,76.4Zm-3.78-5.15,3.94,3.38,3.38-3.94-3.94-3.38Z"/><rect id="_矩形_36" data-name="&lt;矩形&gt;" class="cls-3" x="104.22" y="75.03" width="6.7" height="6.7" transform="translate(76.9 -51.13) rotate(40.6)"/><path class="cls-2" d="M107.68,83.81a.76.76,0,0,1-.24-.14l-5.08-4.36a.75.75,0,0,1-.08-1.06l4.36-5.08a.75.75,0,0,1,1.06-.08l5.08,4.36a.75.75,0,0,1,.08,1.06l-4.36,5.08A.75.75,0,0,1,107.68,83.81Zm-3.78-5.15L107.85,82l3.38-3.94-3.94-3.38Z"/><rect id="_矩形_37" data-name="&lt;矩形&gt;" class="cls-3" x="112.86" y="82.44" width="6.7" height="6.7" transform="translate(83.8 -54.97) rotate(40.6)"/><path class="cls-2" d="M116.32,91.22a.76.76,0,0,1-.24-.14L111,86.72a.75.75,0,0,1-.08-1.06l4.36-5.08a.75.75,0,0,1,1.06-.08l5.08,4.36a.75.75,0,0,1,.08,1.06L117.14,91A.75.75,0,0,1,116.32,91.22Zm-3.78-5.15,3.94,3.38,3.38-3.94-3.94-3.38Z"/><rect id="_矩形_38" data-name="&lt;矩形&gt;" class="cls-3" x="121.5" y="89.85" width="6.7" height="6.7" transform="translate(90.7 -58.81) rotate(40.6)"/><path class="cls-2" d="M125,98.63a.76.76,0,0,1-.24-.14l-5.08-4.36a.75.75,0,0,1-.08-1.06L123.92,88a.75.75,0,0,1,1.06-.08l5.08,4.36a.75.75,0,0,1,.08,1.06l-4.36,5.08A.75.75,0,0,1,125,98.63Zm-3.78-5.15,3.94,3.38,3.38-3.94-3.94-3.38Z"/><rect id="_矩形_39" data-name="&lt;矩形&gt;" class="cls-3" x="130.15" y="97.26" width="6.7" height="6.7" transform="translate(97.6 -62.66) rotate(40.6)"/><path class="cls-2" d="M133.61,106a.75.75,0,0,1-.24-.14l-5.08-4.36a.75.75,0,0,1-.08-1.06l4.36-5.08a.75.75,0,0,1,1.06-.08l5.08,4.36a.75.75,0,0,1,.08,1.06l-4.36,5.09a.75.75,0,0,1-.82.22Zm-3.78-5.15,3.94,3.38,3.38-3.95-3.94-3.38Z"/></g></g></g></svg>