<svg xmlns="http://www.w3.org/2000/svg" viewBox="0 0 46.11 54.99"><defs><style>.cls-1{fill:#fff;}.cls-2{fill:#333331;}.cls-3{fill:#ffc13a;}</style></defs><title>bg_design_05</title><g id="圖層_2" data-name="圖層 2"><g id="圖層_9" data-name="圖層 9"><g id="_群組_" data-name="&lt;群組&gt;"><rect id="_矩形_" data-name="&lt;矩形&gt;" class="cls-1" x="1.26" y="1.15" width="43.59" height="52.68" rx="9.5" ry="9.5" transform="translate(0.64 -0.53) rotate(1.33)"/><path class="cls-2" d="M3.78,53.89A5.64,5.64,0,0,1,0,48.44L1,5.5A5.63,5.63,0,0,1,6.76,0L40.61.78a5.64,5.64,0,0,1,5.5,5.76l-1,42.94A5.64,5.64,0,0,1,39.35,55h0L5.5,54.2A5.6,5.6,0,0,1,3.78,53.89ZM41.83,2.55a4.11,4.11,0,0,0-1.26-.23L6.72,1.54a4.1,4.1,0,0,0-4.19,4l-1,42.94a4.1,4.1,0,0,0,4,4.19l33.85.78a4.1,4.1,0,0,0,4.19-4l1-42.94a4.1,4.1,0,0,0-2.74-4ZM39.37,54.22h0Z"/><rect id="_矩形_2" data-name="&lt;矩形&gt;" class="cls-1" x="7.14" y="7.5" width="32.45" height="8.5" transform="translate(0.28 -0.54) rotate(1.33)"/><path class="cls-2" d="M6.79,16.35a.77.77,0,0,1-.51-.74l.2-8.5a.77.77,0,0,1,.79-.75l32.44.75a.77.77,0,0,1,.75.79l-.2,8.5a.77.77,0,0,1-.79.75L7,16.4A.77.77,0,0,1,6.79,16.35ZM8,7.91l-.16,7,30.91.72.16-7Z"/><rect id="_路徑_" data-name="&lt;路徑&gt;" class="cls-3" x="22.55" y="-1" width="4.53" height="27.6" transform="matrix(0.02, -1, 1, 0.02, 11.44, 37.31)"/><rect id="_矩形_3" data-name="&lt;矩形&gt;" class="cls-3" x="6.9" y="20.38" width="7.85" height="2.97" transform="translate(0.51 -0.24) rotate(1.33)"/><path class="cls-2" d="M6.62,24a.77.77,0,0,1-.51-.74l.07-3A.77.77,0,0,1,7,19.53l7.85.18a.77.77,0,0,1,.75.79l-.07,3a.77.77,0,0,1-.79.75L6.85,24A.77.77,0,0,1,6.62,24Zm1.07-2.91,0,1.43,6.31.15,0-1.43Z"/><rect id="_矩形_4" data-name="&lt;矩形&gt;" class="cls-3" x="19.2" y="20.67" width="7.85" height="2.97" transform="translate(0.52 -0.53) rotate(1.33)"/><path class="cls-2" d="M18.91,24.27a.77.77,0,0,1-.51-.74l.07-3a.77.77,0,0,1,.79-.75L27.1,20a.77.77,0,0,1,.75.79l-.07,3a.77.77,0,0,1-.79.75l-7.85-.18A.76.76,0,0,1,18.91,24.27ZM20,21.36l0,1.43,6.31.15,0-1.43Z"/><rect id="_矩形_5" data-name="&lt;矩形&gt;" class="cls-3" x="31.5" y="20.95" width="7.85" height="2.97" transform="translate(0.53 -0.81) rotate(1.33)"/><path class="cls-2" d="M31.21,24.56a.77.77,0,0,1-.51-.74l.07-3a.77.77,0,0,1,.79-.75l7.85.18a.77.77,0,0,1,.75.79l-.07,3a.77.77,0,0,1-.79.75l-7.85-.18A.77.77,0,0,1,31.21,24.56Zm1.07-2.91,0,1.43,6.31.15,0-1.43Z"/><rect id="_矩形_6" data-name="&lt;矩形&gt;" class="cls-1" x="6.68" y="29.4" width="7.85" height="4.07" transform="translate(0.73 -0.24) rotate(1.33)"/><path class="cls-2" d="M6.38,34.1a.77.77,0,0,1-.51-.74L6,29.29a.77.77,0,0,1,.79-.75l7.85.18a.77.77,0,0,1,.75.79l-.09,4.07a.77.77,0,0,1-.79.75l-7.85-.18A.77.77,0,0,1,6.38,34.1Zm1.1-4-.06,2.53,6.31.15.06-2.53Z"/><rect id="_矩形_7" data-name="&lt;矩形&gt;" class="cls-1" x="18.98" y="29.68" width="7.85" height="4.07" transform="matrix(1, 0.02, -0.02, 1, 0.74, -0.52)"/><path class="cls-2" d="M18.68,34.38a.77.77,0,0,1-.51-.74l.09-4.07a.77.77,0,0,1,.79-.75l7.85.18a.77.77,0,0,1,.75.79l-.09,4.07a.77.77,0,0,1-.79.75l-7.85-.18A.77.77,0,0,1,18.68,34.38Zm1.1-4-.06,2.53,6.31.15.06-2.53Z"/><rect id="_矩形_8" data-name="&lt;矩形&gt;" class="cls-3" x="31.28" y="29.96" width="7.85" height="4.07" transform="translate(0.75 -0.81) rotate(1.33)"/><path class="cls-2" d="M31,34.67a.77.77,0,0,1-.51-.74l.09-4.07a.77.77,0,0,1,.79-.75l7.85.18a.77.77,0,0,1,.75.79l-.09,4.07a.77.77,0,0,1-.79.75l-7.85-.18A.77.77,0,0,1,31,34.67Zm1.1-4L32,33.19l6.31.15.06-2.53Z"/><rect id="_矩形_9" data-name="&lt;矩形&gt;" class="cls-1" x="6.51" y="36.69" width="7.85" height="4.07" transform="translate(0.9 -0.23) rotate(1.33)"/><path class="cls-2" d="M6.21,41.39a.77.77,0,0,1-.51-.74l.09-4.07a.77.77,0,0,1,.79-.75l7.85.18a.77.77,0,0,1,.75.79l-.09,4.07a.77.77,0,0,1-.79.75l-7.85-.18A.77.77,0,0,1,6.21,41.39Zm1.1-4-.06,2.53,6.31.15.06-2.53Z"/><rect id="_矩形_10" data-name="&lt;矩形&gt;" class="cls-1" x="18.81" y="36.98" width="7.85" height="4.07" transform="matrix(1, 0.02, -0.02, 1, 0.91, -0.52)"/><path class="cls-2" d="M18.51,41.68a.77.77,0,0,1-.51-.74l.09-4.07a.77.77,0,0,1,.79-.75l7.85.18a.77.77,0,0,1,.75.79l-.09,4.07a.77.77,0,0,1-.79.75l-7.85-.18A.77.77,0,0,1,18.51,41.68Zm1.1-4-.06,2.53,6.31.15.06-2.53Z"/><rect id="_矩形_11" data-name="&lt;矩形&gt;" class="cls-3" x="31.11" y="37.26" width="7.85" height="4.07" transform="translate(0.92 -0.8) rotate(1.33)"/><path class="cls-2" d="M30.81,42a.77.77,0,0,1-.51-.74l.09-4.07a.77.77,0,0,1,.79-.75l7.85.18a.77.77,0,0,1,.75.79l-.09,4.07a.77.77,0,0,1-.79.75L31,42A.77.77,0,0,1,30.81,42Zm1.1-4-.06,2.53,6.31.15.06-2.53Z"/><rect id="_矩形_12" data-name="&lt;矩形&gt;" class="cls-1" x="6.34" y="43.99" width="7.85" height="4.07" transform="translate(1.07 -0.23) rotate(1.33)"/><path class="cls-2" d="M6,48.69a.77.77,0,0,1-.51-.74l.09-4.07a.77.77,0,0,1,.79-.75l7.85.18a.77.77,0,0,1,.75.79l-.09,4.07a.77.77,0,0,1-.79.75l-7.85-.18A.77.77,0,0,1,6,48.69Zm1.1-4-.06,2.53,6.31.15.06-2.53Z"/><rect id="_矩形_13" data-name="&lt;矩形&gt;" class="cls-1" x="18.64" y="44.27" width="7.85" height="4.07" transform="translate(1.08 -0.51) rotate(1.33)"/><path class="cls-2" d="M18.34,49a.77.77,0,0,1-.51-.74l.09-4.07a.77.77,0,0,1,.79-.75l7.85.18a.77.77,0,0,1,.75.79l-.09,4.07a.77.77,0,0,1-.79.75L18.58,49A.77.77,0,0,1,18.34,49Zm1.1-4-.06,2.53,6.31.15.06-2.53Z"/><rect id="_矩形_14" data-name="&lt;矩形&gt;" class="cls-3" x="30.94" y="44.56" width="7.85" height="4.07" transform="translate(1.09 -0.79) rotate(1.33)"/><path class="cls-2" d="M30.64,49.26a.77.77,0,0,1-.51-.74l.09-4.07A.77.77,0,0,1,31,43.7l7.85.18a.77.77,0,0,1,.75.79l-.09,4.07a.77.77,0,0,1-.79.75l-7.85-.18A.77.77,0,0,1,30.64,49.26Zm1.1-4-.06,2.53,6.31.15L38,45.4Z"/></g></g></g></svg>