<svg xmlns="http://www.w3.org/2000/svg" viewBox="0 0 180.29 92.86"><defs><style>.cls-1{fill:#ffc13a;}.cls-2{fill:#333331;}.cls-3{fill:#fff;}</style></defs><title>bg_design_01</title><g id="圖層_2" data-name="圖層 2"><g id="圖層_6" data-name="圖層 6"><g id="_群組_" data-name="&lt;群組&gt;"><g id="_群組_2" data-name="&lt;群組&gt;"><path id="_路徑_" data-name="&lt;路徑&gt;" class="cls-1" d="M126.82,21.93l-3.05.83,46.91.59a2.22,2.22,0,0,0-1.76-.89Z"/><path class="cls-2" d="M126.37,28.08a.77.77,0,0,1-.52-.74l.08-6.32a.77.77,0,0,1,.78-.76l37.82.47a.77.77,0,0,1,.76.78l-.08,6.32a.77.77,0,0,1-.78.76l-37.82-.47A.76.76,0,0,1,126.37,28.08Zm1.1-6.27-.06,4.78,36.27.45.06-4.78Z"/><path id="_矩形_" data-name="&lt;矩形&gt;" class="cls-1" d="M164.48,21.54h4.79a2.78,2.78,0,0,1,2.78,2.78v.75a2.78,2.78,0,0,1-2.78,2.78h-4.79a0,0,0,0,1,0,0V21.54A0,0,0,0,1,164.48,21.54Z" transform="matrix(1, 0.01, -0.01, 1, 0.32, -2.11)"/><path class="cls-2" d="M164.18,28.55a.77.77,0,0,1-.52-.74l.08-6.32a.77.77,0,0,1,.78-.76l4.41.06h0a3.93,3.93,0,0,1-.1,7.87l-4.41-.06A.76.76,0,0,1,164.18,28.55Zm1.1-6.27-.06,4.78,3.64,0a2.39,2.39,0,0,0,.06-4.78h0Z"/><path class="cls-2" d="M115.26,24.77a.77.77,0,0,1,.05-1.48l11.19-3a.77.77,0,0,1,1,.76l-.08,6.32a.77.77,0,0,1-1,.73l-11.11-3.3ZM125.92,22l-7.56,2,7.51,2.23Z"/><path class="cls-2" d="M121.6,26.66a.77.77,0,0,1-.52-.74l0-3.61a.77.77,0,0,1,1.55,0l0,3.61a.77.77,0,0,1-.78.76A.76.76,0,0,1,121.6,26.66Z"/></g><g id="_群組_3" data-name="&lt;群組&gt;"><rect id="_矩形_2" data-name="&lt;矩形&gt;" class="cls-3" x="84.85" y="37.35" width="89.96" height="50.09" transform="translate(0.79 -1.62) rotate(0.72)"/><path class="cls-2" d="M84.29,87.61a.77.77,0,0,1-.52-.74l.63-50.09a.77.77,0,0,1,.78-.76l90,1.13a.77.77,0,0,1,.76.78L175.27,88a.77.77,0,0,1-.78.76l-90-1.13A.76.76,0,0,1,84.29,87.61Zm1.65-50-.61,48.54,88.4,1.11.61-48.54Z"/><rect id="_路徑_2" data-name="&lt;路徑&gt;" class="cls-1" x="111.93" y="24.64" width="41.79" height="82.07" transform="translate(65.49 197.67) rotate(-89.28)"/><path class="cls-2" d="M99.34,87.8a.77.77,0,0,1-.52-.74L99.45,37A.77.77,0,0,1,101,37l-.63,50.09a.77.77,0,0,1-.78.76A.76.76,0,0,1,99.34,87.8Z"/><path class="cls-2" d="M166.56,88.64a.77.77,0,0,1-.52-.74l.63-50.09a.77.77,0,0,1,1.55,0l-.63,50.09a.77.77,0,0,1-.78.76A.76.76,0,0,1,166.56,88.64Z"/><g id="_群組_4" data-name="&lt;群組&gt;"><path class="cls-2" d="M99.91,43a.77.77,0,0,1,.26-1.5l67.22.84a.77.77,0,1,1,0,1.55L100.15,43A.76.76,0,0,1,99.91,43Z"/><path class="cls-2" d="M99.41,82.55a.77.77,0,0,1,.26-1.5l67.21.84a.77.77,0,1,1,0,1.55l-67.21-.84A.76.76,0,0,1,99.41,82.55Z"/></g><g id="_群組_5" data-name="&lt;群組&gt;"><path class="cls-2" d="M99.51,74.31a.77.77,0,0,1,.26-1.5l10.79.14a.77.77,0,1,1,0,1.55l-10.79-.14A.76.76,0,0,1,99.51,74.31Z"/><path class="cls-2" d="M99.61,66.61a.77.77,0,0,1,.26-1.5l10.79.14a.77.77,0,1,1,0,1.55l-10.79-.14A.76.76,0,0,1,99.61,66.61Z"/><path class="cls-2" d="M99.71,58.9a.77.77,0,0,1,.26-1.5l10.79.14a.77.77,0,1,1,0,1.55L100,58.95A.76.76,0,0,1,99.71,58.9Z"/><path class="cls-2" d="M99.8,51.2a.77.77,0,0,1,.26-1.5l10.79.14a.77.77,0,1,1,0,1.55L100,51.24A.76.76,0,0,1,99.8,51.2Z"/></g><path class="cls-2" d="M91,66.3a4.64,4.64,0,1,1,1.47.26A4.6,4.6,0,0,1,91,66.3ZM93.55,59A3.08,3.08,0,1,0,95.62,62,3.07,3.07,0,0,0,93.55,59Z"/><rect id="_矩形_3" data-name="&lt;矩形&gt;" class="cls-1" x="174.81" y="57.94" width="4.65" height="10.11" transform="translate(0.8 -2.21) rotate(0.72)"/><path class="cls-2" d="M174.49,68.75A.77.77,0,0,1,174,68l.13-10.11a.77.77,0,0,1,.78-.76l4.65.06a.77.77,0,0,1,.76.78l-.13,10.11a.77.77,0,0,1-.78.76l-4.65-.06A.76.76,0,0,1,174.49,68.75Zm1.14-10.05-.11,8.56,3.1,0,.11-8.56Z"/></g></g><g id="_群組_6" data-name="&lt;群組&gt;"><polygon id="_路徑_3" data-name="&lt;路徑&gt;" class="cls-3" points="20.84 58.13 0.76 77.22 14.66 91.83 20.12 86.65 25.3 92.1 39.92 78.2 20.84 58.13"/><path class="cls-2" d="M14.41,92.55a.75.75,0,0,1-.3-.19L.21,77.74a.76.76,0,0,1,0-1.07L20.31,57.58a.76.76,0,0,1,.54-.21.75.75,0,0,1,.53.24L40.47,77.68a.76.76,0,0,1,0,1.07L25.83,92.65a.76.76,0,0,1-1.07,0l-4.66-4.91-4.91,4.66A.76.76,0,0,1,14.41,92.55ZM1.83,77.24,14.69,90.76l4.91-4.66a.76.76,0,0,1,.54-.21.75.75,0,0,1,.53.24L25.33,91,38.85,78.18l-18-19Z"/><polygon id="_路徑_4" data-name="&lt;路徑&gt;" class="cls-3" points="14.66 91.83 25.3 92.1 20.12 86.65 14.66 91.83"/><path class="cls-2" d="M14.41,92.55a.76.76,0,0,1-.27-1.27l5.46-5.19a.76.76,0,0,1,.54-.21.75.75,0,0,1,.53.24l5.19,5.46a.76.76,0,0,1-.57,1.28l-10.65-.27A.75.75,0,0,1,14.41,92.55Zm5.68-4.83-3.58,3.4,7,.18Z"/><line id="_路徑_5" data-name="&lt;路徑&gt;" class="cls-3" x1="17.04" y1="61.74" x2="21.7" y2="66.64"/><path class="cls-2" d="M21.45,67.36a.75.75,0,0,1-.3-.19l-4.66-4.9a.76.76,0,1,1,1.1-1l4.66,4.9a.76.76,0,0,1-.8,1.24Z"/><line id="_路徑_6" data-name="&lt;路徑&gt;" class="cls-3" x1="25.5" y1="70.64" x2="36.13" y2="81.81"/><path class="cls-2" d="M35.88,82.53a.75.75,0,0,1-.3-.19L24.95,71.16a.76.76,0,0,1,1.1-1L36.68,81.29a.76.76,0,0,1-.8,1.24Z"/></g><g id="_群組_7" data-name="&lt;群組&gt;"><path id="_矩形_4" data-name="&lt;矩形&gt;" class="cls-1" d="M15,16.91h7.85a9,9,0,0,1,9,9v1.43a0,0,0,0,1,0,0H6a0,0,0,0,1,0,0V25.91a9,9,0,0,1,9-9Z" transform="translate(15.51 -6.81) rotate(33.79)"/><path class="cls-2" d="M26.55,34.37l-.17-.09L4.9,19.91a.77.77,0,0,1-.21-1.07L7.91,14a5.4,5.4,0,0,1,7.48-1.48l13.79,9.23a5.39,5.39,0,0,1,1.48,7.48l-3.23,4.82a.77.77,0,0,1-.89.3ZM6.39,19.06l20.2,13.52,2.8-4.18A3.85,3.85,0,0,0,28.33,23h0L14.54,13.82a3.86,3.86,0,0,0-5.35,1.06Z"/><path id="_路徑_7" data-name="&lt;路徑&gt;" class="cls-1" d="M32.81,10.24A5.23,5.23,0,1,0,25.4,3.1c-.09.13-.17.27-.24.41l-.06.11c-1.93,3.67-2,11.89-5.58,12.61l2.28,1.52.06,0,2.28,1.52C23.49,16,29.67,13.13,32.81,10.24Z"/><path class="cls-2" d="M23.89,20,23.71,20l-4.62-3.09a.77.77,0,0,1,.28-1.4c1.84-.37,2.66-3.85,3.39-6.92a23.93,23.93,0,0,1,1.65-5.3l.07-.13c.09-.16.18-.32.28-.47a6,6,0,1,1,8.54,8.17A37.69,37.69,0,0,1,30,13.4c-2.56,1.84-5.47,3.93-5.1,5.77a.77.77,0,0,1-1,.88Zm-2.81-3.71,2.37,1.58c.58-2.14,3.15-4,5.65-5.78a35.63,35.63,0,0,0,3.19-2.47l.07-.06A4.46,4.46,0,1,0,26,3.52c-.07.11-.14.23-.21.35l0,.09a23.44,23.44,0,0,0-1.52,4.95C23.56,11.91,22.83,15,21.08,16.34Z"/><rect id="_矩形_5" data-name="&lt;矩形&gt;" class="cls-3" x="3.83" y="26.22" width="22.87" height="2.87" transform="translate(17.96 -3.82) rotate(33.79)"/><path class="cls-2" d="M23.72,35.93l-.17-.09-19-12.72a.77.77,0,0,1-.21-1.07l1.6-2.39A.77.77,0,0,1,7,19.46L26,32.18a.77.77,0,0,1,.21,1.07l-1.6,2.39a.77.77,0,0,1-.89.3ZM6,22.28,23.76,34.14,24.5,33,6.77,21.17Z"/><path class="cls-2" d="M14.32,22.35l-.17-.09-7.47-5A.77.77,0,0,1,7.53,16L15,21a.77.77,0,0,1-.68,1.37Z"/></g></g></g></svg>