<svg xmlns="http://www.w3.org/2000/svg" viewBox="0 0 438.31 186.41"><defs><style>.cls-1{fill:#ffc13a;}.cls-2{fill:#333331;}.cls-3{fill:#fff;}</style></defs><title>bg_design_02</title><g id="圖層_2" data-name="圖層 2"><g id="圖層_7" data-name="圖層 7"><g id="_群組_" data-name="&lt;群組&gt;"><path id="_路徑_" data-name="&lt;路徑&gt;" class="cls-1" d="M353.33,127.47l-29.16,4.09a6,6,0,0,0-5.09,6.75l.1.72.65,4.62,4.42,31.53.65,4.62.1.72a6,6,0,0,0,6.75,5.09l29.16-4.09a6,6,0,0,0,5.09-6.75l-.1-.72-.65-4.62-4.42-31.53-.65-4.62-.1-.72A6,6,0,0,0,353.33,127.47Z"/><path class="cls-2" d="M328.72,186a6.74,6.74,0,0,1-4.44-5.42l-6.57-46.83a6.72,6.72,0,0,1,5.72-7.59l29.16-4.09h0a6.72,6.72,0,0,1,7.59,5.72l6.57,46.83a6.73,6.73,0,0,1-5.72,7.59l-29.16,4.09A6.69,6.69,0,0,1,328.72,186Zm24.07-62.45-29.16,4.09a5.23,5.23,0,0,0-4.45,5.91l6.57,46.83a5.23,5.23,0,0,0,5.91,4.45l29.16-4.09a5.24,5.24,0,0,0,4.45-5.91L358.7,128a5.24,5.24,0,0,0-5.91-4.45Z"/><rect id="_矩形_" data-name="&lt;矩形&gt;" class="cls-3" x="321.52" y="135.97" width="41.4" height="36.5" transform="translate(-18.11 49.05) rotate(-7.99)"/><path class="cls-2" d="M324,175.88a.74.74,0,0,1-.49-.6l-5.07-36.15a.74.74,0,0,1,.63-.84l41-5.75a.74.74,0,0,1,.84.63L366,169.32a.74.74,0,0,1-.63.84l-41,5.75A.74.74,0,0,1,324,175.88Zm-4-36.22,4.87,34.67,39.52-5.55-4.87-34.67Z"/><circle id="_路徑_2" data-name="&lt;路徑&gt;" class="cls-3" cx="344.92" cy="177.63" r="2.46" transform="translate(-21.34 49.65) rotate(-7.99)"/><path class="cls-2" d="M343.86,180.66a3.21,3.21,0,0,1-2.12-2.58h0a3.21,3.21,0,1,1,2.12,2.58Zm-.65-2.79a1.72,1.72,0,1,0,1.46-1.94,1.72,1.72,0,0,0-1.46,1.94Z"/><circle id="_路徑_3" data-name="&lt;路徑&gt;" class="cls-2" cx="349.9" cy="128.52" r="1.47" transform="matrix(0.99, -0.14, 0.14, 0.99, -14.46, 49.87)"/><rect id="_矩形_2" data-name="&lt;矩形&gt;" class="cls-2" x="330.39" y="128.35" width="15.74" height="3.64" rx="1.67" ry="1.67" transform="translate(-14.81 48.27) rotate(-7.99)"/><rect id="_矩形_3" data-name="&lt;矩形&gt;" class="cls-1" x="360.69" y="134.53" width="2.33" height="4.54" transform="translate(-15.5 51.61) rotate(-7.99)"/><path class="cls-2" d="M360.77,139.91a.74.74,0,0,1-.49-.6l-.63-4.5a.74.74,0,0,1,.63-.84l2.31-.32a.74.74,0,0,1,.84.63l.63,4.5a.74.74,0,0,1-.63.84l-2.31.32A.74.74,0,0,1,360.77,139.91Zm.45-4.57.42,3,.84-.12-.42-3Z"/><rect id="_矩形_4" data-name="&lt;矩形&gt;" class="cls-1" x="361.7" y="141.77" width="2.33" height="4.54" transform="translate(-16.5 51.82) rotate(-7.99)"/><path class="cls-2" d="M361.79,147.15a.74.74,0,0,1-.49-.6l-.63-4.5a.74.74,0,0,1,.63-.84l2.31-.32a.74.74,0,0,1,.84.63l.63,4.5a.74.74,0,0,1-.63.84l-2.31.32A.74.74,0,0,1,361.79,147.15Zm.45-4.57.42,3,.84-.12-.42-3Z"/><rect id="_矩形_5" data-name="&lt;矩形&gt;" class="cls-1" x="320.85" y="165.32" width="2.33" height="4.54" transform="translate(-20.17 46.37) rotate(-7.99)"/><path class="cls-2" d="M320.94,170.71a.74.74,0,0,1-.49-.6l-.63-4.5a.74.74,0,0,1,.63-.84l2.31-.32a.74.74,0,0,1,.84.63l.63,4.5a.74.74,0,0,1-.63.84l-2.31.32A.74.74,0,0,1,320.94,170.71Zm.45-4.57.42,3,.84-.12-.42-3Z"/></g><g id="_群組_2" data-name="&lt;群組&gt;"><path id="_路徑_4" data-name="&lt;路徑&gt;" class="cls-1" d="M136.4,96.83l-4-2.23a7.63,7.63,0,0,1-3-10.38l1.52-2.74a5.13,5.13,0,0,1,4.76-2.63l2,.11a14.45,14.45,0,0,1,9.33,4.1l2.34,2.29a5.13,5.13,0,0,1,.19,7.13l-2.4,2.61A8.79,8.79,0,0,1,136.4,96.83Z"/><path class="cls-2" d="M137.52,98.18a9.66,9.66,0,0,1-1.5-.67h0l-4-2.23a8.4,8.4,0,0,1-3.28-11.42l1.52-2.74a5.93,5.93,0,0,1,5.47-3l2,.11a15.22,15.22,0,0,1,9.83,4.31l2.34,2.29a5.87,5.87,0,0,1,.22,8.2l-2.4,2.61A9.53,9.53,0,0,1,137.52,98.18Zm-.75-2a8,8,0,0,0,9.8-1.59L149,92a4.34,4.34,0,0,0-.16-6.06l-2.34-2.29a13.68,13.68,0,0,0-8.84-3.88l-2-.11a4.38,4.38,0,0,0-4,2.24l-1.52,2.74a6.86,6.86,0,0,0,2.68,9.33Z"/><path class="cls-2" d="M130.67,82.21l-.12-.05-3.77-2.09a.77.77,0,1,1,.75-1.35l3.77,2.09a.77.77,0,0,1-.63,1.4Z"/><path id="_路徑_5" data-name="&lt;路徑&gt;" class="cls-1" d="M160.3,110.07l4,2.23a7.63,7.63,0,0,0,10.38-3l1.52-2.74a5.13,5.13,0,0,0-.29-5.43l-1.15-1.63a14.45,14.45,0,0,0-8.42-5.74L163.17,93A5.13,5.13,0,0,0,157,96.62l-.94,3.42A8.79,8.79,0,0,0,160.3,110.07Z"/><path class="cls-2" d="M165.26,113.56a8.53,8.53,0,0,1-1.32-.59l-4-2.23h0a9.54,9.54,0,0,1-4.58-10.91l.94-3.42a5.87,5.87,0,0,1,7.07-4.16l3.18.77a15.23,15.23,0,0,1,8.87,6l1.15,1.63a5.93,5.93,0,0,1,.33,6.25l-1.52,2.74a8.41,8.41,0,0,1-10.11,3.87Zm-4.59-4.16,4,2.23a6.87,6.87,0,0,0,9.33-2.68l1.52-2.74a4.38,4.38,0,0,0-.24-4.61L174.15,100a13.67,13.67,0,0,0-8-5.44L163,93.75a4.34,4.34,0,0,0-5.23,3.07l-.94,3.42a8,8,0,0,0,3.85,9.15Z"/><path class="cls-2" d="M179.73,109.4l-.12-.05-3.77-2.09a.77.77,0,0,1,.75-1.35l3.77,2.09a.77.77,0,0,1-.63,1.4Z"/><path class="cls-2" d="M158.24,94.41a.77.77,0,0,1-.49-.51c-1.43-5-6.48-3.75-6.69-3.69a.77.77,0,0,1-.38-1.49c2.32-.59,7.09-.36,8.55,4.76a.77.77,0,0,1-1,.94Z"/><g id="_群組_3" data-name="&lt;群組&gt;"><path id="_路徑_6" data-name="&lt;路徑&gt;" class="cls-3" d="M157.9,96.86l-.16.59c5.6,2.13,11.25,2.69,15.5,1.56a13.54,13.54,0,0,0-7.1-4.36L163,93.88A4.2,4.2,0,0,0,157.9,96.86Z"/><path id="_路徑_7" data-name="&lt;路徑&gt;" class="cls-3" d="M148.42,92.35l.45-.49a4.2,4.2,0,0,0-.16-5.87h0l-2.34-2.29a13.54,13.54,0,0,0-7.8-3.75C139.95,84.21,143.53,88.74,148.42,92.35Z"/></g></g><g id="_群組_4" data-name="&lt;群組&gt;"><circle id="_路徑_8" data-name="&lt;路徑&gt;" class="cls-3" cx="67.2" cy="72.84" r="23.66" transform="translate(-23.72 112.26) rotate(-70.75)"/><path class="cls-2" d="M59.17,95.83a24.36,24.36,0,1,1,31-15A24.38,24.38,0,0,1,59.17,95.83Zm15.6-44.67A23,23,0,1,0,88.88,80.41,23,23,0,0,0,74.77,51.16Z"/><path id="_路徑_9" data-name="&lt;路徑&gt;" class="cls-3" d="M91.88,78.85,84,76.09a17.09,17.09,0,1,0-1.62,4.64l7.9,2.76a2.46,2.46,0,0,0,1.62-4.64Z"/><path class="cls-2" d="M61.33,89.63a17.79,17.79,0,1,1,23.43-14l7.34,2.56a3.15,3.15,0,1,1-2.08,6l-7.34-2.56A17.87,17.87,0,0,1,61.33,89.63ZM72.6,57.36a16.4,16.4,0,1,0,9.13,23.06.7.7,0,0,1,.85-.34l7.9,2.76a1.76,1.76,0,1,0,1.16-3.32l-7.9-2.76a.7.7,0,0,1-.45-.79A16.47,16.47,0,0,0,72.6,57.36Z"/><circle id="_路徑_10" data-name="&lt;路徑&gt;" class="cls-1" cx="67.2" cy="72.84" r="13.56" transform="translate(-23.72 112.26) rotate(-70.75)"/><path class="cls-2" d="M62.5,86.29a14.25,14.25,0,1,1,18.16-8.76A14.27,14.27,0,0,1,62.5,86.29Zm8.94-25.6a12.86,12.86,0,1,0,7.9,16.38A12.88,12.88,0,0,0,71.44,60.69Z"/><path id="_路徑_11" data-name="&lt;路徑&gt;" class="cls-3" d="M78.45,66.85A12.74,12.74,0,0,0,55.51,77.91,14.38,14.38,0,0,1,78.45,66.85Z"/></g><g id="_群組_5" data-name="&lt;群組&gt;"><rect id="_矩形_6" data-name="&lt;矩形&gt;" class="cls-3" x="226.45" y="69.31" width="50.87" height="69.61" transform="matrix(0.85, 0.53, -0.53, 0.85, 94.19, -118.19)"/><path class="cls-2" d="M254.62,147.84l-.15-.07-43.05-27.1a.76.76,0,0,1-.24-1l37.08-58.91a.76.76,0,0,1,1-.24l43.05,27.1a.76.76,0,0,1,.24,1l-37.08,58.91A.76.76,0,0,1,254.62,147.84Zm-41.76-28.05,41.77,26.3,36.28-57.63-41.77-26.3Z"/><g id="_群組_6" data-name="&lt;群組&gt;"><rect id="_矩形_7" data-name="&lt;矩形&gt;" class="cls-3" x="248.11" y="79.11" width="10.81" height="10.81" transform="translate(84 -122.07) rotate(32.19)"/><path class="cls-2" d="M255,92.68l-.15-.07-9.15-5.76a.76.76,0,0,1-.24-1l5.76-9.15a.76.76,0,0,1,1-.24l9.14,5.76a.76.76,0,0,1,.24,1l-5.76,9.14A.76.76,0,0,1,255,92.68ZM247.1,86l7.87,5,5-7.87-7.87-5Z"/><g id="_群組_7" data-name="&lt;群組&gt;"><path class="cls-2" d="M265.57,109.87l-.15-.07L241,94.43a.76.76,0,1,1,.8-1.28l24.41,15.37a.76.76,0,0,1-.65,1.35Z"/><path class="cls-2" d="M262.1,115.38l-.15-.07L237.53,99.93a.76.76,0,0,1,.8-1.28L262.75,114a.76.76,0,0,1-.65,1.35Z"/><path class="cls-2" d="M258.64,120.88l-.15-.07-24.41-15.37a.76.76,0,1,1,.8-1.28l24.41,15.37a.76.76,0,0,1-.65,1.35Z"/><path class="cls-2" d="M255.17,126.38l-.15-.07L230.6,110.94a.76.76,0,1,1,.8-1.28L255.82,125a.76.76,0,0,1-.65,1.35Z"/><path class="cls-2" d="M251.71,131.89l-.15-.07-24.41-15.37a.76.76,0,0,1,.8-1.28l24.41,15.37a.76.76,0,0,1-.65,1.35Z"/></g></g></g><g id="_群組_8" data-name="&lt;群組&gt;"><rect id="_矩形_8" data-name="&lt;矩形&gt;" class="cls-3" x="360.89" y="20.69" width="59.79" height="72.27" transform="translate(160.9 -264.26) rotate(46.13)"/><path class="cls-2" d="M385.21,104.13a.75.75,0,0,1-.3-.19l-41.44-43.1a.76.76,0,0,1,0-1.07l52.1-50.09a.76.76,0,0,1,1.07,0L438.1,52.8a.76.76,0,0,1,0,1.07L386,104A.76.76,0,0,1,385.21,104.13Zm-40.12-43.8,40.39,42,51-49-40.39-42Z"/><rect id="_矩形_9" data-name="&lt;矩形&gt;" class="cls-3" x="357.85" y="13.89" width="59.79" height="79.53" transform="translate(157.69 -263.04) rotate(46.13)"/><path class="cls-2" d="M379.54,103.48a.76.76,0,0,1-.3-.19l-41.44-43.1a.76.76,0,0,1,0-1.07L395.16,4a.76.76,0,0,1,1.07,0l41.44,43.1a.76.76,0,0,1,0,1.07l-57.33,55.12a.76.76,0,0,1-.78.17Zm-40.11-43.8,40.39,42,56.24-54.07-40.39-42Z"/><rect id="_路徑_12" data-name="&lt;路徑&gt;" class="cls-1" x="346.81" y="25.55" width="77.64" height="51.82" transform="translate(71.98 281.64) rotate(-43.87)"/><rect id="_矩形_10" data-name="&lt;矩形&gt;" class="cls-3" x="383.63" y="55.87" width="30.83" height="13.72" transform="translate(167.7 -268.41) rotate(46.13)"/><path class="cls-2" d="M404.53,79.31a.75.75,0,0,1-.3-.19L382.87,56.9a.76.76,0,0,1,0-1.07l9.89-9.51a.76.76,0,0,1,1.07,0l21.37,22.22a.76.76,0,0,1,0,1.07l-9.89,9.51A.76.76,0,0,1,404.53,79.31Zm-20-22.92,20.31,21.13,8.79-8.45L393.29,47.94Z"/><polygon id="_路徑_13" data-name="&lt;路徑&gt;" class="cls-3" points="425.62 51.15 423.79 45.92 418.64 43.89 427.78 35.1 434.76 42.36 425.62 51.15"/><path class="cls-2" d="M425.37,51.86a.76.76,0,0,1-.47-.47l-1.71-4.9-4.83-1.9a.76.76,0,0,1-.25-1.25l9.14-8.79a.76.76,0,0,1,1.07,0l7,7.26a.76.76,0,0,1,0,1.07l-9.14,8.79a.76.76,0,0,1-.7.19ZM420,43.62l4,1.6a.76.76,0,0,1,.44.46l1.44,4.11,7.74-7.44-5.92-6.16Z"/><rect id="_矩形_11" data-name="&lt;矩形&gt;" class="cls-1" x="365.77" y="-4.72" width="8.16" height="79.53" transform="translate(138.78 -255.86) rotate(46.13)"/><path class="cls-2" d="M343.76,66.27a.76.76,0,0,1-.3-.19l-5.66-5.89a.76.76,0,0,1,0-1.07L395.16,4a.76.76,0,0,1,1.07,0l5.66,5.89a.76.76,0,0,1,0,1.07L344.54,66.1a.76.76,0,0,1-.78.17Zm-4.33-6.58L344,64.48l56.24-54.07-4.61-4.79Z"/></g><g id="_群組_9" data-name="&lt;群組&gt;"><rect id="_矩形_12" data-name="&lt;矩形&gt;" class="cls-1" x="406.67" y="134.39" width="7.26" height="40.55" transform="translate(186.09 -222.16) rotate(38.59)"/><path class="cls-2" d="M400.24,173.52a.77.77,0,0,1-.23-.13l-5.68-4.53a.77.77,0,0,1-.12-1.09l25.3-31.7a.77.77,0,0,1,1.09-.12l5.68,4.53a.77.77,0,0,1,.12,1.09l-25.3,31.7a.77.77,0,0,1-.86.25Zm-4.33-5.38,4.47,3.57,24.33-30.49-4.47-3.56Z"/><path id="_矩形_13" data-name="&lt;矩形&gt;" class="cls-1" d="M425.27,131.47h.53a1.94,1.94,0,0,1,1.94,1.94v6.32a0,0,0,0,1,0,0h-4.41a0,0,0,0,1,0,0v-6.32A1.94,1.94,0,0,1,425.27,131.47Z" transform="translate(177.52 -235.82) rotate(38.59)"/><path class="cls-2" d="M424.42,140.93a.78.78,0,0,1-.23-.13l-3.45-2.75a.77.77,0,0,1-.12-1.09l3.78-4.73a3,3,0,0,1,4.19-.47h0a3,3,0,0,1,.47,4.19l-3.78,4.73A.77.77,0,0,1,424.42,140.93Zm-2.11-3.6,2.24,1.79,3.29-4.13a1.43,1.43,0,0,0-.23-2h0a1.43,1.43,0,0,0-2,.23Z"/><path id="_路徑_14" data-name="&lt;路徑&gt;" class="cls-1" d="M394.82,168.25l-1.41,5.5a1.42,1.42,0,0,0,2,1.62l5.05-2.59Z"/><path class="cls-2" d="M394.08,176.19a2.23,2.23,0,0,1-.66-.36,2.17,2.17,0,0,1-.76-2.26l1.41-5.5a.77.77,0,0,1,1.23-.41l5.68,4.53a.77.77,0,0,1-.13,1.29l-5.05,2.59A2.18,2.18,0,0,1,394.08,176.19Zm1.2-6.59-1.11,4.34a.65.65,0,0,0,.93.74l4-2Z"/><rect id="_矩形_14" data-name="&lt;矩形&gt;" class="cls-3" x="397.04" y="161.91" width="7.26" height="9.66" transform="translate(191.52 -213.51) rotate(38.59)"/><path class="cls-2" d="M400.24,173.52a.77.77,0,0,1-.23-.13l-5.68-4.53a.77.77,0,0,1-.12-1.09l6-7.55a.77.77,0,0,1,1.09-.12l5.68,4.53a.77.77,0,0,1,.12,1.09l-6,7.55a.77.77,0,0,1-.86.25Zm-4.33-5.38,4.47,3.57,5.06-6.34L401,161.79Z"/><path class="cls-2" d="M414.9,161a.77.77,0,0,1-.35-1.21l10.61-13.29-7.91-6.31a.77.77,0,0,1,1-1.21l8.51,6.8a.77.77,0,0,1,.12,1.09l-11.09,13.9A.77.77,0,0,1,414.9,161Z"/></g><g id="_群組_10" data-name="&lt;群組&gt;"><circle id="_路徑_15" data-name="&lt;路徑&gt;" class="cls-3" cx="17.93" cy="17.93" r="17.18" transform="translate(-0.59 0.61) rotate(-1.93)"/><path class="cls-2" d="M12,34.86A17.93,17.93,0,0,1,17.32,0,17.93,17.93,0,0,1,31,30.17a18,18,0,0,1-19,4.69ZM23.35,2.41a16.44,16.44,0,1,0,11,15h0a16.47,16.47,0,0,0-11-15Z"/><path id="_路徑_16" data-name="&lt;路徑&gt;" class="cls-1" d="M39.3,15.25l32.44-4a4.87,4.87,0,0,1,4,1.38h0A4.87,4.87,0,0,1,76,19.31h0A4.87,4.87,0,0,1,72.06,21l-32.64-1.8Z"/><path class="cls-2" d="M39.18,19.87a.75.75,0,0,1-.5-.68l-.13-3.91a.75.75,0,0,1,.66-.77l32.44-4A5.62,5.62,0,1,1,72,21.7l-32.64-1.8A.75.75,0,0,1,39.18,19.87Zm.89-4,.09,2.54,32,1.76A4.12,4.12,0,1,0,71.83,12Z"/><path id="_路徑_17" data-name="&lt;路徑&gt;" class="cls-3" d="M35.1,17.35a17.26,17.26,0,0,1-.19,3.15l4.56-.15-.21-6.29-4.56.15A17.26,17.26,0,0,1,35.1,17.35Z"/><path class="cls-2" d="M34.67,21.21a.75.75,0,0,1-.49-.82,16.3,16.3,0,0,0-.2-6,.75.75,0,0,1,.71-.91l4.56-.15A.75.75,0,0,1,40,14l.21,6.29a.75.75,0,0,1-.72.77l-4.56.15A.74.74,0,0,1,34.67,21.21Zm.94-6.28a17.85,17.85,0,0,1,.24,2.39h0a17.89,17.89,0,0,1-.08,2.4l2.93-.1-.16-4.79Z"/><circle id="_路徑_18" data-name="&lt;路徑&gt;" class="cls-3" cx="17.93" cy="17.93" r="12.71" transform="translate(-0.59 0.61) rotate(-1.93)"/><path class="cls-2" d="M13.51,30.64a13.46,13.46,0,1,1,4.88.74A13.48,13.48,0,0,1,13.51,30.64Zm8.35-24a12,12,0,1,0,8,10.89A11.9,11.9,0,0,0,21.86,6.63Z"/><path id="_路徑_19" data-name="&lt;路徑&gt;" class="cls-1" d="M21.39,26.42a11.7,11.7,0,0,0,6.51-2.24A11.77,11.77,0,0,0,11,8.4a11.77,11.77,0,0,0,10.37,18Z"/><line id="_路徑_20" data-name="&lt;路徑&gt;" class="cls-1" x1="72.06" y1="20.96" x2="71.74" y2="11.26"/><path class="cls-2" d="M71.82,21.66a.75.75,0,0,1-.5-.68L71,11.28a.75.75,0,0,1,1.5-.05l.33,9.7a.75.75,0,0,1-1,.73Z"/></g></g></g></svg>