<svg xmlns="http://www.w3.org/2000/svg" viewBox="0 0 886.26 778.52"><defs><style>.cls-1{fill:#ffc8b9;}</style></defs><title>bg_line_01</title><g id="圖層_2" data-name="圖層 2"><g id="圖層_10" data-name="圖層 10"><path class="cls-1" d="M536,527.68l33.9-.3,0-1.5-33.9.3Zm97.48,250,58.32.83,0-1.5-58.32-.83ZM664.25,656.5l-38.77-.87,0,1.5,38.77.87ZM113.83,274.59l13.24-.13,0-1.5-13.24.13ZM0,561.15,58.32,561l0-1.5L0,559.66Zm810.35-277-58.32.17,0,1.5,58.32-.17ZM769.59,389.6l58.32-.17,0-1.5-58.32.17ZM254.13,0,146.92,0l0,1.5,107.2,0ZM827.94,201.49l0,1.5,58.32-.17,0-1.5ZM224,163.13l31.52-.55,0-1.5-31.52.55ZM648.1,143.43l-16.87-.08,0,1.5,16.87.08Zm49.2,472.79,31.52-.55,0-1.5-31.52.55ZM132.65,391.53l34.84,0,0-1.5-34.84,0ZM509.73,349l16.87.08,0-1.5-16.87-.08Z"/></g></g></svg>