<svg xmlns="http://www.w3.org/2000/svg" viewBox="0 0 802.41 638.89"><defs><style>.cls-1{fill:#ffc8b9;fill-rule:evenodd;}</style></defs><title>bg_line_02</title><g id="圖層_2" data-name="圖層 2"><g id="圖層_1_拷貝" data-name="圖層 1 拷貝"><path class="cls-1" d="M206.59,125.22l-60.64-.42a6,6,0,1,0-.3,12l60.64.42a6,6,0,0,0,.3-12ZM190.79,6.58A6,6,0,0,0,184.93.42L124.29,0a6,6,0,1,0-.3,12l60.64.42A6,6,0,0,0,190.79,6.58ZM88.17,342.74l-82-1.51a6,6,0,1,0-.3,12l82,1.51a6,6,0,0,0,.3-12ZM684.4,626.87l-82-1.51a6,6,0,0,0-.3,12l82,1.51a6,6,0,1,0,.3-12ZM796.55,50.67l-31.67.16a6,6,0,0,0-.3,12l31.67-.16a6,6,0,0,0,.3-12Zm-149.38,447,21.53,0a6,6,0,1,0,.3-12l-21.53,0a6,6,0,1,0-.3,12Z"/></g></g></svg>