<svg xmlns="http://www.w3.org/2000/svg" viewBox="0 0 319.15 272.47"><defs><style>.cls-1,.cls-14,.cls-6{fill:#efefef;}.cls-1,.cls-12,.cls-13,.cls-14,.cls-2,.cls-3,.cls-4,.cls-5,.cls-6,.cls-7{stroke:#898989;}.cls-1,.cls-2,.cls-3,.cls-5,.cls-6,.cls-7{stroke-linejoin:round;}.cls-2,.cls-7{fill:#9fa0a0;}.cls-13,.cls-3,.cls-5{fill:#dcdddd;}.cls-12,.cls-4{fill:none;}.cls-13,.cls-14,.cls-4{stroke-linejoin:bevel;}.cls-5,.cls-6,.cls-7{stroke-linecap:round;}.cls-10,.cls-8{fill:#ff4612;}.cls-8{stroke:#c30d23;}.cls-12,.cls-8{stroke-miterlimit:10;}.cls-9{fill:#646569;}.cls-11{fill:#111820;}.cls-12{stroke-width:12px;}</style></defs><title>graphic_p1</title><g id="圖層_2" data-name="圖層 2"><g id="圖層_3" data-name="圖層 3"><polygon class="cls-1" points="138.53 210.02 218.29 256.55 218.29 256.58 275.26 223.75 248.58 208.26 263.26 200.55 318.65 169.22 126.28 58.45 0.5 130.94 77.7 176.03 48.87 193.05 108.74 227.54 138.53 210.02"/><polygon class="cls-2" points="275 223.82 275 239.02 218.34 271.74 218.34 256.54 218.29 256.55 275 223.82"/><polygon class="cls-2" points="318.63 169.46 318.63 184.66 248 224.45 248.58 208.26 318.63 169.46"/><polygon class="cls-2" points="138.53 210.04 138.53 225.24 108.58 242.35 108.58 227.15 138.53 210.04"/><polygon class="cls-3" points="49.06 192.92 49.06 208.13 108.58 242.66 108.58 227.45 49.06 192.92"/><polygon class="cls-3" points="138.53 210.04 138.53 225.24 218.34 271.97 218.34 256.76 138.53 210.04"/><polygon class="cls-3" points="0.5 130.83 0.5 146.03 80.31 192.76 80.31 177.56 0.5 130.83"/><path class="cls-4" d="M136.49,13.6"/><polygon class="cls-5" points="55.6 86.15 55.6 104.67 63.09 108.8 78.77 99.7 55.6 86.15"/><polygon class="cls-6" points="61.2 106.61 55.8 103.57 29.69 118.89 35.16 122.05 61.2 106.61"/><polygon class="cls-6" points="68.57 105.25 63.16 102.21 37.05 117.53 42.52 120.69 68.57 105.25"/><polygon class="cls-6" points="76.63 103.81 71.56 100.95 45.19 116.12 50.3 119.07 76.63 103.81"/><polygon class="cls-7" points="247.03 117.17 247.03 170.86 229.82 180.49 230.11 211.25 304.47 168.94 304.47 138.71 304.47 84.4 247.03 117.17"/><polygon class="cls-5" points="251.91 199.15 252.06 225.57 257.43 222.39 257.43 196.2 251.91 199.15"/><polygon class="cls-5" points="252.06 225.59 217.32 205.44 217.32 179.19 251.91 199.15 252.06 225.59"/><polygon class="cls-5" points="223.13 180.36 223.13 186.26 185.73 207.53 185.77 201.69 223.13 180.36"/><polygon class="cls-6" points="223.13 186.33 228.85 189.34 193.95 209.13 188.19 206.04 223.13 186.33"/><polygon class="cls-5" points="228.85 189.34 228.85 195.15 192.83 215.64 192.87 209.8 228.85 189.34"/><polygon class="cls-6" points="228.85 195.22 234.57 198.22 199.67 218.02 193.91 214.92 228.85 195.22"/><polygon class="cls-5" points="234.57 198.22 234.58 204.04 198.55 224.53 198.59 218.69 234.57 198.22"/><polygon class="cls-6" points="234.58 204.1 240.29 207.11 205.4 226.91 199.63 223.81 234.58 204.1"/><polygon class="cls-5" points="240.29 207.11 240.3 212.92 204.28 233.41 204.32 227.57 240.29 207.11"/><polygon class="cls-6" points="240.3 212.99 246.02 216 211.12 235.79 205.36 232.7 240.3 212.99"/><polygon class="cls-5" points="245.92 216.01 245.93 221.82 209.9 242.31 209.94 236.47 245.92 216.01"/><polygon class="cls-5" points="215.44 220.04 180.92 200.14 180.93 200.05 19.64 107.12 19.64 133.59 180.84 226.34 215.58 246.48 215.44 220.04"/><path class="cls-6" d="M111.76,93.64"/><polygon class="cls-5" points="215.44 220.04 215.58 246.46 220.95 243.29 220.95 217.1 215.44 220.04"/><polygon class="cls-5" points="247.03 170.87 247.03 117.17 235.71 110.52 235.3 164.28 247.03 170.87"/><polygon class="cls-6" points="293.15 77.75 304.47 84.4 247.03 117.17 235.71 110.52 293.15 77.75"/><polygon class="cls-7" points="68.46 196.54 98.55 178.63 98.55 152.38 68.6 170.1 68.46 196.54"/><polygon class="cls-5" points="91.5 156.58 91.5 161.13 127.93 182.27 128.09 177.47 91.5 156.58"/><polygon class="cls-6" points="91.5 161.2 85.77 164.16 120.53 184.2 126.31 181.15 91.5 161.2"/><polygon class="cls-5" points="85.77 164.16 85.72 169.98 121.6 190.72 121.6 184.87 85.77 164.16"/><polygon class="cls-6" points="85.72 170.04 79.98 173.01 114.74 193.05 120.53 189.99 85.72 170.04"/><polygon class="cls-5" points="79.98 173.01 79.93 178.83 115.82 199.56 115.82 193.72 79.98 173.01"/><polygon class="cls-6" points="79.93 178.89 74.2 181.86 108.96 201.9 114.74 198.84 79.93 178.89"/><polygon class="cls-5" points="74.2 181.86 74.15 187.67 110.03 208.41 110.03 202.57 74.2 181.86"/><polygon class="cls-6" points="74.15 187.74 68.46 190.71 103.17 210.74 108.96 207.69 74.15 187.74"/><polygon class="cls-5" points="103.21 190.19 103.21 210.77 68.49 190.72 68.6 170.1 63.09 167.15 63.09 193.34 68.46 196.52 68.46 196.53 103.21 216.62 103.21 216.69 108.58 219.87 108.72 193.13 103.21 190.19"/><polygon class="cls-7" points="108.58 219.87 138.67 201.82 138.67 175.42 108.72 193.13 108.58 219.87"/><polygon class="cls-6" points="235.3 164.28 235.7 112.39 134.53 54.68 126.31 71.94 84.42 96.44 61.2 83.01 55.6 86.15 78.77 99.7 48.15 117.46 25.15 104.17 19.64 107.12 42.85 120.53 42.78 120.57 93.32 149.55 63.09 167.15 68.6 170.1 91.5 156.58 126.55 176.59 103.21 190.19 108.72 193.13 138.4 175.57 215.44 220.04 220.95 217.1 220.9 217.07 220.95 217.05 191.91 200.28 223.14 182.64 251.91 199.15 257.43 196.2 229.82 180.49 247.03 170.86 235.3 164.28"/><polygon class="cls-5" points="111.99 93.62 111.99 39.92 100.67 33.27 100.26 87.03 111.99 93.62"/><polygon class="cls-6" points="158.11 0.5 169.43 7.15 111.99 39.92 100.67 33.27 158.11 0.5"/><polygon class="cls-7" points="169.43 61.32 111.99 93.62 111.99 39.92 169.43 7.15 169.43 61.32"/><polygon class="cls-6" points="114.92 86.55 216.17 144.94 235.84 133.59 132.96 78.11 114.92 86.55"/><polygon class="cls-7" points="235.84 133.59 235.84 151.01 216.17 162.37 216.17 144.94 235.84 133.59"/><polygon class="cls-5" points="114.92 86.55 114.92 103.97 216.17 162.37 216.17 144.94 114.92 86.55"/><polygon class="cls-5" points="124.62 7.15 124.62 86.97 216.78 140.18 216.78 60.36 124.62 7.15"/><polygon class="cls-6" points="124.62 7.15 216.78 60.36 228.3 53.71 136.14 0.5 124.62 7.15"/><polygon class="cls-7" points="216.78 60.36 216.78 140.18 228.3 133.53 228.3 53.71 216.78 60.36"/><polygon class="cls-8" points="127.41 80.35 209.24 59.52 214.01 63.31 214.01 68.85 134.49 88.42 128.09 85.51 127.41 80.35"/><polygon class="cls-8" points="132.29 18.33 138.98 21.93 212.86 126.59 215.22 137.1 206.11 130.14 133.11 26.93 132.29 18.33"/><path class="cls-4" d="M217.13,129.16"/><polygon class="cls-6" points="135.71 32.97 135.71 83.47 205.71 123.49 205.71 72.99 135.71 32.97"/><path class="cls-9" d="M178.18,48.38"/><polygon class="cls-10" points="173.65 45.32 169.37 47.13 169.88 47.94 172.69 49.56 177.48 47.54 173.65 45.32"/><polygon class="cls-10" points="185.72 50.81 183.79 51.62 186.88 53.41 188.81 52.59 185.72 50.81"/><polygon class="cls-10" points="162.05 39.07 165.53 41.08 169.88 39.24 166.41 37.23 162.05 39.07"/><polygon class="cls-9" points="173.21 45.51 177.56 43.67 174.08 41.66 169.73 43.5 173.21 45.51"/><polygon class="cls-9" points="178.18 48.38 181.66 50.39 186.01 48.55 182.53 46.54 178.18 48.38"/><polygon class="cls-9" points="182.53 55.24 182.53 55.24 182.53 55.24 182.53 55.24"/><polygon class="cls-9" points="182.53 55.24 182.53 55.24 185.92 57.2 190.27 55.37 186.88 53.41 182.53 55.24"/><polygon class="cls-9" points="161.18 34.21 157.7 32.2 162.05 39.07 163.79 38.33 161.18 34.21"/><polygon class="cls-9" points="165.53 41.08 162.05 39.07 163.79 41.81 166.41 45.93 169.88 47.94 165.53 41.08"/><polygon class="cls-11" points="157.7 40.91 161.18 42.92 163.79 41.81 162.05 39.07 157.7 40.91"/><polygon class="cls-11" points="182.53 55.24 184.27 54.51 181.66 50.39 178.18 48.38 182.53 55.24"/><path class="cls-12" d="M125,86.77"/><path class="cls-12" d="M136.39,83.47"/><path class="cls-13" d="M181.38,153a5.15,5.15,0,0,0-1.32-1.13c-2.9-1.78-7.78-1.72-10.89.14a6.51,6.51,0,0,0-1.28,1h-1.17v29.58h0a3.64,3.64,0,0,0,2.05,3.37,9.92,9.92,0,0,0,4.83,1.29l1.78-.07a10.72,10.72,0,0,0,4.28-1.36,4.46,4.46,0,0,0,2.43-3.23h0V153Z"/><path class="cls-14" d="M179.68,156.22c-3.11,1.86-8,1.92-10.89.14s-2.73-4.74.38-6.6,8-1.92,10.89-.14S182.79,154.35,179.68,156.22Z"/><path class="cls-8" d="M179.68,165.56c-3.11,1.86-8,1.92-10.89.14a17.06,17.06,0,0,1-2-1.67v2.57a9.51,9.51,0,0,0,2,1.71c2.9,1.78,7.61,1.3,10.89-.14a9.84,9.84,0,0,0,2.45-1.79v-2.9A19,19,0,0,1,179.68,165.56Z"/><path class="cls-13" d="M99.05,102.38a5.15,5.15,0,0,0-1.32-1.13c-2.9-1.78-7.78-1.72-10.89.14a6.51,6.51,0,0,0-1.28,1H84.38V132h0a3.64,3.64,0,0,0,2.05,3.37,9.92,9.92,0,0,0,4.83,1.29l1.78-.07a10.72,10.72,0,0,0,4.28-1.36A4.46,4.46,0,0,0,99.78,132h0V102.38Z"/><path class="cls-14" d="M97.35,105.61c-3.11,1.86-8,1.92-10.89.14s-2.73-4.74.38-6.6,8-1.92,10.89-.14S100.46,103.75,97.35,105.61Z"/><path class="cls-8" d="M97.35,115c-3.11,1.86-8,1.92-10.89.14a17.06,17.06,0,0,1-2-1.67V116a9.51,9.51,0,0,0,2,1.71c2.9,1.78,7.61,1.3,10.89-.14a9.84,9.84,0,0,0,2.45-1.79v-2.9A19,19,0,0,1,97.35,115Z"/><path class="cls-13" d="M138.62,104.64a5.15,5.15,0,0,0-1.32-1.13c-2.9-1.78-7.78-1.72-10.89.14a6.51,6.51,0,0,0-1.28,1H124v29.58h0a3.64,3.64,0,0,0,2.05,3.37,9.92,9.92,0,0,0,4.83,1.29l1.78-.07a10.72,10.72,0,0,0,4.28-1.36,4.46,4.46,0,0,0,2.43-3.23h0V104.64Z"/><path class="cls-14" d="M136.91,107.87c-3.11,1.86-8,1.92-10.89.14s-2.73-4.74.38-6.6,8-1.92,10.89-.14S140,106,136.91,107.87Z"/><path class="cls-8" d="M136.91,117.21c-3.11,1.86-8,1.92-10.89.14a17.06,17.06,0,0,1-2-1.67v2.57a9.51,9.51,0,0,0,2,1.71c2.9,1.78,7.61,1.3,10.89-.14a9.84,9.84,0,0,0,2.45-1.79v-2.9A19,19,0,0,1,136.91,117.21Z"/><path class="cls-13" d="M160.88,118a5.15,5.15,0,0,0-1.32-1.13c-2.9-1.78-7.78-1.72-10.89.14a6.51,6.51,0,0,0-1.28,1h-1.17V147.6h0a3.64,3.64,0,0,0,2.05,3.37,9.92,9.92,0,0,0,4.83,1.29l1.78-.07a10.72,10.72,0,0,0,4.28-1.36,4.46,4.46,0,0,0,2.43-3.23h0V118Z"/><path class="cls-14" d="M159.17,121.25c-3.11,1.86-8,1.92-10.89.14s-2.73-4.74.38-6.6,8-1.92,10.89-.14S162.29,119.38,159.17,121.25Z"/><path class="cls-8" d="M159.17,130.59c-3.11,1.86-8,1.92-10.89.14a17.06,17.06,0,0,1-2-1.67v2.57a9.51,9.51,0,0,0,2,1.71c2.9,1.78,7.61,1.3,10.89-.14a9.84,9.84,0,0,0,2.45-1.79v-2.9A19,19,0,0,1,159.17,130.59Z"/></g></g></svg>