<svg xmlns="http://www.w3.org/2000/svg" viewBox="0 0 69.77 120.91"><defs><style>.cls-1{fill:#efefef;}.cls-1,.cls-2,.cls-3{stroke:#898989;stroke-linejoin:bevel;}.cls-2{fill:#9fa0a0;}.cls-3{fill:#dcdddd;}.cls-4{fill:#f8f8ec;}.cls-5{fill:#f0ebcd;}.cls-6{fill:#b5b5b6;}.cls-26,.cls-6,.cls-7{stroke:#c83c00;}.cls-19,.cls-20,.cls-26,.cls-6,.cls-7{stroke-linejoin:round;}.cls-14,.cls-7{fill:#898989;}.cls-8{fill:#4b59a4;}.cls-9{fill:#f1c1ab;}.cls-10{fill:#e7a77b;}.cls-11{fill:#444f88;}.cls-12{fill:#303f88;}.cls-13{fill:#111820;}.cls-15{fill:#646569;}.cls-16{fill:#f8f8e0;}.cls-17,.cls-19,.cls-20,.cls-26{fill:none;}.cls-18{fill:#f1d2c3;}.cls-19{stroke:#e7a77b;}.cls-19,.cls-20,.cls-26{stroke-linecap:round;}.cls-20{stroke:#ce8859;}.cls-21{fill:#fff;}.cls-22{fill:#1a2866;}.cls-23{fill:#ffe261;}.cls-24{fill:#ffd54d;}.cls-25{fill:#ffc334;}</style></defs><title>graphic_p2</title><g id="圖層_2" data-name="圖層 2"><g id="圖層_3" data-name="圖層 3"><polygon class="cls-1" points="0.5 85.28 34.89 105.14 69.27 85.28 34.89 65.43 0.5 85.28"/><polygon class="cls-2" points="69.27 85.28 69.27 100.62 34.89 120.47 34.89 105.14 69.27 85.28"/><polygon class="cls-3" points="0.5 85.28 0.5 100.62 34.89 120.47 34.89 105.14 0.5 85.28"/><polygon class="cls-4" points="36.47 17.48 29.62 13.62 23.15 17.48 29.81 21.44 36.47 17.48"/><polygon class="cls-5" points="29.81 21.45 29.81 30.85 23.15 26.94 23.15 17.48 29.81 21.45"/><polygon class="cls-6" points="29.81 21.45 29.81 30.85 36.47 26.94 36.47 17.53 29.81 21.45"/><polygon class="cls-7" points="29.81 30.81 29.81 56.63 25.51 54.11 25.51 28.28 29.81 30.81"/><polygon class="cls-6" points="29.81 30.81 29.81 56.63 34.11 54.11 34.11 28.28 29.81 30.81"/><polygon class="cls-8" points="25.51 16.07 25.3 20.73 29.55 17.92 27.06 15.13 25.51 16.07"/><polygon class="cls-9" points="43.8 70.32 43.8 81.71 39.5 79.19 39.5 67.79 43.8 70.32"/><polygon class="cls-10" points="43.8 70.32 43.8 81.71 48.1 79.19 48.1 67.79 43.8 70.32"/><polygon class="cls-11" points="43.8 81.77 43.8 88.51 39.5 85.99 39.5 79.24 43.8 81.77"/><polygon class="cls-12" points="43.8 81.77 43.8 88.51 48.1 85.99 48.1 79.24 43.8 81.77"/><polygon class="cls-13" points="48.1 85.99 48.1 90.8 37.64 96.6 37.64 91.71 48.1 85.99"/><polygon class="cls-14" points="43.8 88.34 39.5 85.99 32.78 89.34 37.64 91.71 43.8 88.34"/><polygon class="cls-15" points="37.64 96.6 32.78 93.92 32.78 89.34 37.64 91.71 37.64 96.6"/><polygon class="cls-9" points="30.59 62.42 30.59 73.81 26.29 71.29 26.29 59.89 30.59 62.42"/><polygon class="cls-10" points="30.59 62.42 30.59 73.81 34.89 71.29 34.89 59.89 30.59 62.42"/><polygon class="cls-11" points="30.59 73.87 30.59 80.61 26.29 78.08 26.29 71.34 30.59 73.87"/><polygon class="cls-12" points="30.59 73.87 30.59 80.61 34.89 78.08 34.89 71.34 30.59 73.87"/><polygon class="cls-13" points="34.89 78.08 34.89 82.89 24.43 88.7 24.43 83.81 34.89 78.08"/><polygon class="cls-14" points="30.59 80.44 26.29 78.08 19.57 81.44 24.43 83.81 30.59 80.44"/><polygon class="cls-15" points="24.43 88.7 19.57 86.02 19.57 81.44 24.43 83.81 24.43 88.7"/><polygon class="cls-12" points="51.02 53.03 56.48 63.11 38.08 74.44 38.08 60.63 51.02 53.03"/><polygon class="cls-11" points="38.08 74.44 17.01 62.11 24.7 52.53 38.08 60.63 38.08 74.44"/><polygon class="cls-9" points="38.08 60.63 24.7 52.53 24.7 47.55 38.08 55.65 38.08 60.63"/><polygon class="cls-9" points="35.02 31.25 27.1 32.91 26.29 26.53 26.04 21.93 26.04 21.93 36.6 27.87 36.6 27.87 35.02 31.25"/><polygon class="cls-16" points="26.04 21.93 26.04 21.93 26.29 26.53 27.1 32.91 35.02 31.25 36.6 27.87 36.6 27.87 38.08 28.71 38.08 55.65 24.7 47.55 24.7 21.18 26.04 21.93"/><polygon class="cls-10" points="51.02 53.03 38.08 60.63 38.08 55.65 51.02 48.05 51.02 53.03"/><polygon class="cls-5" points="32.07 35.77 38.08 32.91 38.08 28.71 50.93 20.92 51.02 48.05 38.08 55.65 38.08 42.75 31.97 43.15 32.07 35.77"/><polygon class="cls-17" points="36.6 27.87 36.6 27.87 35.02 31.25 27.1 32.91 26.29 26.53 26.04 21.93 26.04 21.93 36.6 27.87"/><polygon class="cls-4" points="24.7 21.18 37.87 11.37 39.3 12.15 26.04 21.93 24.7 21.18"/><polygon class="cls-4" points="53.03 19.64 38.08 28.71 36.6 27.87 51.42 18.76 53.03 19.64"/><polygon class="cls-18" points="39.3 12.15 51.42 18.76 36.6 27.87 26.04 21.93 39.3 12.15"/><polygon class="cls-4" points="54.77 28 47.91 24.14 41.45 28 48.11 31.96 54.77 28"/><polygon class="cls-16" points="48.11 31.92 48.11 41.32 41.45 37.41 41.45 28 48.11 31.92"/><polygon class="cls-5" points="48.11 31.97 48.11 41.37 54.77 37.46 54.77 28 48.11 31.97"/><polygon class="cls-9" points="48.11 41.33 48.11 67.15 43.81 64.63 43.81 38.8 48.11 41.33"/><polygon class="cls-10" points="48.11 41.33 48.11 67.15 52.41 64.63 52.41 38.8 48.11 41.33"/><polyline class="cls-8" points="38.08 28.71 36.6 27.87 37.54 27.3 46.42 22.79 53.79 26.8 43.59 29.28 38.08 28.71 37.23 28.27"/><polygon class="cls-17" points="27.1 32.88 27.14 32.9 27.1 32.91 27.1 32.88"/><polygon class="cls-18" points="26.29 26.53 35.02 31.25 35.02 31.25 27.14 32.9 27.1 32.88 26.29 26.53"/><polygon class="cls-4" points="22.96 30.47 24.7 25.67 26.29 26.53 27.1 32.88 22.96 30.47"/><polygon class="cls-4" points="35.02 31.25 38.08 32.91 32.07 35.77 27.14 32.9 35.02 31.25 35.02 31.25"/><polygon class="cls-16" points="22.96 30.47 22.96 38.06 31.97 43.15 31.97 35.77 22.96 30.47"/><polygon class="cls-12" points="29.03 34 27.37 35.16 25.51 34.04 25.05 31.7 29.03 34"/><line class="cls-19" x1="28.1" y1="31.39" x2="29.96" y2="29.55"/><line class="cls-20" x1="29.86" y1="55.19" x2="29.86" y2="53.61"/><polygon class="cls-12" points="24.35 37.19 28.19 36.76 28.69 37.49 28.7 37.8 24.35 38.29 24.35 37.19"/><polygon class="cls-12" points="24.35 35.16 26.28 33.91 27.61 35.9 24.35 36.27 24.35 35.16"/><polygon class="cls-12" points="28.82 40.4 25.81 42.92 24.39 39.2 28.75 38.71 28.82 40.4"/><polygon class="cls-21" points="24.35 36.27 27.61 35.9 28.19 36.76 24.35 37.19 24.35 36.27"/><polygon class="cls-21" points="24.35 38.29 28.7 37.8 28.75 38.71 24.39 39.2 24.35 39.1 24.35 38.29"/><polygon class="cls-4" points="27.1 32.91 26.87 31.07 29.34 32.44 27.1 32.91"/><polygon class="cls-21" points="43.84 28.23 52.53 25.85 52.28 24.97 43.77 27.3 38.51 26.8 37.28 27.42 43.84 28.23"/><polygon class="cls-21" points="43.06 26.55 51.74 24.18 51.49 23.29 42.98 25.62 37.98 25.16 37.9 26.07 43.06 26.55"/><polygon class="cls-22" points="53.79 26.8 53.74 27.42 52.99 27 53.79 26.8"/><polygon class="cls-8" points="26.04 21.93 24.7 21.18 32.5 15.26 36.47 17.53 30.66 18.53 26.04 21.93"/><polygon class="cls-23" points="35.69 3.75 29.82 7.14 23.64 3.75 29.66 0.4 35.69 3.75"/><polygon class="cls-6" points="35.69 3.75 32.87 16.32 32.87 16.32 29.66 7.14 35.69 3.75"/><polygon class="cls-24" points="23.64 3.75 30.19 14.37 32.87 16.32 29.66 7.04 23.64 3.75"/><polygon class="cls-9" points="26.75 7.04 26.75 20.92 38.83 27.82 38.83 13.01 26.75 7.04"/><polygon class="cls-10" points="50.51 6.77 38.83 13.01 38.83 27.82 50.51 20.85 50.51 6.77"/><polygon class="cls-25" points="50.51 6.66 50.51 19.07 43.02 23.11 38.73 21.05 38.73 13.22 50.51 6.66"/><polygon class="cls-23" points="38.73 0 50.51 6.77 38.73 13.22 26.75 7.04 38.73 0"/><polygon class="cls-24" points="38.73 13.22 38.83 21.11 33.43 13.72 26.75 14.24 26.75 7.04 38.73 13.22"/><polygon class="cls-23" points="54.95 13.8 49.08 17.19 42.9 13.8 48.93 10.45 54.95 13.8"/><polygon class="cls-25" points="54.95 13.8 52.13 26.36 52.13 26.36 49.08 17.19 54.95 13.8"/><polygon class="cls-24" points="42.9 13.8 49.45 24.41 52.13 26.36 49.08 17.19 42.9 13.8"/><path class="cls-26" d="M35.28,21.23s-4,1.84-6.58-3.62"/><polygon class="cls-17" points="29.34 32.44 27.1 32.91 26.29 26.53 35.02 31.25 35.02 31.25 29.34 32.44"/><polygon class="cls-12" points="24.7 21.18 26.04 21.93 26.29 26.53 26.29 26.53 24.7 25.67 24.7 21.18"/><polygon class="cls-12" points="36.6 27.87 38.08 28.71 38.08 32.91 35.02 31.25 36.6 27.87"/><polygon class="cls-8" points="24.7 25.67 26.29 26.53 27.1 32.91 29.34 32.44 35.02 31.25 35.02 31.25 38.08 32.91 31.97 35.77 22.96 30.47 24.7 25.67"/></g></g></svg>