<svg xmlns="http://www.w3.org/2000/svg" viewBox="0 0 268.13 264.21"><defs><style>.cls-1,.cls-10,.cls-3,.cls-7{fill:#efefef;}.cls-2,.cls-5{fill:#dcdddd;}.cls-10,.cls-11,.cls-12,.cls-2,.cls-3,.cls-4,.cls-5,.cls-6,.cls-7,.cls-8,.cls-9{stroke:#898989;}.cls-2,.cls-3,.cls-4{stroke-linejoin:bevel;}.cls-4,.cls-8{fill:#9fa0a0;}.cls-12,.cls-28,.cls-29,.cls-35,.cls-5,.cls-7,.cls-8{stroke-linecap:round;}.cls-12,.cls-15,.cls-16,.cls-28,.cls-29,.cls-35,.cls-5,.cls-7,.cls-8{stroke-linejoin:round;}.cls-6{fill:#ff4612;}.cls-10,.cls-11,.cls-6,.cls-9{stroke-miterlimit:10;}.cls-9{fill:#c9caca;}.cls-11,.cls-12,.cls-15{fill:#b5b5b6;}.cls-13{fill:#f8f8ec;}.cls-14{fill:#f0ebcd;}.cls-15,.cls-16,.cls-35{stroke:#c83c00;}.cls-16,.cls-23{fill:#898989;}.cls-17{fill:#4b59a4;}.cls-18{fill:#f1c1ab;}.cls-19{fill:#e7a77b;}.cls-20{fill:#444f88;}.cls-21{fill:#303f88;}.cls-22{fill:#111820;}.cls-24{fill:#646569;}.cls-25{fill:#f8f8e0;}.cls-26,.cls-28,.cls-29,.cls-35{fill:none;}.cls-27{fill:#f1d2c3;}.cls-28{stroke:#e7a77b;}.cls-29{stroke:#ce8859;}.cls-30{fill:#fff;}.cls-31{fill:#1a2866;}.cls-32{fill:#ffe261;}.cls-33{fill:#ffd54d;}.cls-34{fill:#ffc334;}</style></defs><title>graphic_p5</title><g id="圖層_2" data-name="圖層 2"><g id="圖層_3" data-name="圖層 3"><polygon class="cls-1" points="63.05 138.5 222.58 234.71 245.22 221.65 83.82 128.79 63.05 138.5"/><polygon class="cls-2" points="63.05 138.5 63.05 150.75 222.58 246.96 222.58 234.71 63.05 138.5"/><polygon class="cls-3" points="0.5 148.09 173.76 247.94 267.63 193.15 94.37 93.29 0.5 148.09"/><polygon class="cls-4" points="267.63 193.15 173.76 247.94 173.76 263.78 222.58 235.11 222.58 246.96 245.22 233.89 245.22 221.98 267.63 208.97 267.63 193.15"/><polygon class="cls-2" points="0.5 148.09 0.5 163.92 173.76 263.78 173.76 247.94 0.5 148.09"/><polygon class="cls-3" points="63.05 99.53 179.58 166.74 202.22 153.68 83.82 89.82 63.05 99.53"/><polygon class="cls-4" points="202.22 153.68 202.22 173.72 179.58 186.79 179.58 166.74 202.22 153.68"/><polygon class="cls-2" points="63.05 99.53 63.05 119.58 179.58 186.79 179.58 166.74 63.05 99.53"/><polygon class="cls-2" points="74.21 100.02 180.28 161.26 180.28 88.34 74.21 27.09 74.21 100.02"/><polygon class="cls-5" points="74.21 8.15 74.21 27.09 180.28 88.34 180.28 69.4 74.21 8.15"/><polygon class="cls-6" points="74.21 27.03 74.21 30.97 180.28 92.21 180.28 88.27 74.21 27.03"/><polygon class="cls-7" points="74.21 8.15 180.28 69.4 193.54 61.74 87.47 0.5 74.21 8.15"/><polygon class="cls-4" points="180.28 161.26 193.54 153.6 193.54 80.68 180.28 88.34 180.28 161.26"/><polygon class="cls-8" points="180.28 69.4 180.28 88.34 193.54 80.68 193.54 61.74 180.28 69.4"/><polygon class="cls-6" points="180.28 88.53 180.28 92.18 193.54 84.52 193.54 80.88 180.28 88.53"/><path class="cls-9" d="M102.52,155.9h-.42a2.92,2.92,0,0,0-.75-.64,6.53,6.53,0,0,0-6.17.08,3.68,3.68,0,0,0-.72.56h-.66v1.27h0A2.06,2.06,0,0,0,95,159.07a6.53,6.53,0,0,0,6.17-.08,2.52,2.52,0,0,0,1.38-1.83h0Z"/><path class="cls-10" d="M101.13,157.57a6.53,6.53,0,0,1-6.17.08c-1.64-1-1.55-2.69.22-3.74a6.53,6.53,0,0,1,6.17-.08C103,154.84,102.9,156.52,101.13,157.57Z"/><path class="cls-2" d="M106.17,132.94a5.93,5.93,0,0,0-1.52-1.3c-3.34-2.05-9-2-12.54.16a7.49,7.49,0,0,0-1.47,1.14H89.29v2.58h0c-.13,1.41.65,2.83,2.36,3.88a11.41,11.41,0,0,0,5.56,1.48V155.6c0,.37.46.68,1,.68s1-.3,1-.68V140.8a12.34,12.34,0,0,0,4.93-1.56,5.13,5.13,0,0,0,2.8-3.72h0v-2.58Z"/><path class="cls-3" d="M104.2,136.35c-3.58,2.14-9.2,2.21-12.54.16s-3.14-5.46.44-7.6,9.2-2.21,12.54-.16S107.79,134.21,104.2,136.35Z"/><path class="cls-9" d="M131.15,172.43h-.42a2.92,2.92,0,0,0-.75-.64,6.53,6.53,0,0,0-6.17.08,3.68,3.68,0,0,0-.72.56h-.66v1.27h0a2.06,2.06,0,0,0,1.16,1.91,6.53,6.53,0,0,0,6.17-.08,2.52,2.52,0,0,0,1.38-1.83h0Z"/><path class="cls-10" d="M129.76,174.11a6.53,6.53,0,0,1-6.17.08c-1.64-1-1.55-2.69.22-3.74a6.53,6.53,0,0,1,6.17-.08C131.62,171.38,131.52,173.05,129.76,174.11Z"/><path class="cls-2" d="M134.79,149.48a5.93,5.93,0,0,0-1.52-1.3c-3.34-2.05-9-2-12.54.16a7.49,7.49,0,0,0-1.47,1.14h-1.35v2.58h0c-.13,1.41.65,2.83,2.36,3.88a11.41,11.41,0,0,0,5.56,1.48v14.71c0,.37.46.68,1,.68s1-.3,1-.68V157.34a12.34,12.34,0,0,0,4.93-1.56,5.13,5.13,0,0,0,2.8-3.72h0v-2.58Z"/><path class="cls-3" d="M132.83,152.89c-3.58,2.14-9.2,2.21-12.54.16s-3.14-5.46.44-7.6,9.2-2.21,12.54-.16S136.41,150.74,132.83,152.89Z"/><path class="cls-9" d="M159.77,188.19h-.42a2.92,2.92,0,0,0-.75-.64,6.53,6.53,0,0,0-6.17.08,3.68,3.68,0,0,0-.72.56H151v1.27h0a2.06,2.06,0,0,0,1.16,1.91,6.53,6.53,0,0,0,6.17-.08,2.52,2.52,0,0,0,1.38-1.83h0Z"/><path class="cls-10" d="M158.38,189.86a6.53,6.53,0,0,1-6.17.08c-1.64-1-1.55-2.69.22-3.74a6.53,6.53,0,0,1,6.17-.08C160.24,187.13,160.14,188.81,158.38,189.86Z"/><path class="cls-2" d="M163.41,165.23a5.93,5.93,0,0,0-1.52-1.3c-3.34-2.05-9-2-12.54.16a7.49,7.49,0,0,0-1.47,1.14h-1.35v2.58h0c-.13,1.41.65,2.83,2.36,3.88a11.41,11.41,0,0,0,5.56,1.48v14.71c0,.37.46.68,1,.68s1-.3,1-.68V173.1a12.34,12.34,0,0,0,4.93-1.56,5.13,5.13,0,0,0,2.8-3.72h0v-2.58Z"/><path class="cls-3" d="M161.45,168.64c-3.58,2.14-9.2,2.21-12.54.16s-3.14-5.46.44-7.6,9.2-2.21,12.54-.16S165,166.5,161.45,168.64Z"/><polygon class="cls-11" points="81.57 88.35 81.57 97.71 94.83 105.37 94.83 96 81.57 88.35"/><polygon class="cls-10" points="81.57 57.73 81.57 88.35 94.83 96 94.83 65.38 81.57 57.73"/><polygon class="cls-11" points="89.43 52.9 89.43 48.52 87.39 47.38 87.39 51.72 81.57 48.37 81.57 57.73 94.83 65.38 94.83 56.02 89.43 52.9"/><polygon class="cls-12" points="76.86 88.35 76.86 97.71 90.12 105.37 90.12 96 76.86 88.35"/><polygon class="cls-7" points="81.57 57.65 76.86 88.35 90.12 96 94.83 65.31 81.57 57.65"/><polygon class="cls-11" points="89.43 52.9 89.43 48.52 87.39 47.38 87.39 51.72 81.57 48.37 81.57 57.73 94.83 65.38 94.83 56.02 89.43 52.9"/><polygon class="cls-12" points="94.83 65.31 94.83 103.17 90.12 105.37 90.12 96 94.83 65.31"/><polygon class="cls-11" points="106.98 103.17 106.98 112.53 120.24 120.19 120.24 110.82 106.98 103.17"/><polygon class="cls-10" points="106.98 72.55 106.98 103.17 120.24 110.82 120.24 80.2 106.98 72.55"/><polygon class="cls-11" points="114.84 67.72 114.84 63.34 112.8 62.2 112.8 66.54 106.98 63.18 106.98 72.55 120.24 80.2 120.24 70.84 114.84 67.72"/><polygon class="cls-12" points="102.28 103.17 102.28 112.53 115.54 120.19 115.54 110.82 102.28 103.17"/><polygon class="cls-7" points="106.98 72.47 102.28 103.17 115.54 110.82 120.24 80.13 106.98 72.47"/><polygon class="cls-11" points="114.84 67.72 114.84 63.34 112.8 62.2 112.8 66.54 106.98 63.18 106.98 72.55 120.24 80.2 120.24 70.84 114.84 67.72"/><polygon class="cls-12" points="120.24 80.13 120.24 117.99 115.54 120.19 115.54 110.82 120.24 80.13"/><polygon class="cls-11" points="133.18 118.66 133.18 128.02 146.43 135.68 146.43 126.31 133.18 118.66"/><polygon class="cls-10" points="133.18 88.04 133.18 118.66 146.43 126.31 146.43 95.69 133.18 88.04"/><polygon class="cls-11" points="141.04 83.21 141.04 78.83 138.99 77.69 138.99 82.03 133.18 78.67 133.18 88.04 146.43 95.69 146.43 86.33 141.04 83.21"/><polygon class="cls-12" points="128.47 118.66 128.47 128.02 141.73 135.68 141.73 126.31 128.47 118.66"/><polygon class="cls-7" points="133.18 87.96 128.47 118.66 141.73 126.31 146.43 95.62 133.18 87.96"/><polygon class="cls-11" points="141.04 83.21 141.04 78.83 138.99 77.69 138.99 82.03 133.18 78.67 133.18 88.04 146.43 95.69 146.43 86.33 141.04 83.21"/><polygon class="cls-12" points="146.43 95.62 146.43 133.48 141.73 135.68 141.73 126.31 146.43 95.62"/><polygon class="cls-11" points="159.37 132.61 159.37 141.97 172.63 149.63 172.63 140.26 159.37 132.61"/><polygon class="cls-10" points="159.37 101.99 159.37 132.61 172.63 140.26 172.63 109.64 159.37 101.99"/><polygon class="cls-11" points="167.23 97.17 167.23 92.78 165.19 91.64 165.19 95.98 159.37 92.63 159.37 101.99 172.63 109.64 172.63 100.28 167.23 97.17"/><polygon class="cls-12" points="154.66 132.65 154.66 142.02 167.92 149.67 167.92 140.31 154.66 132.65"/><polygon class="cls-7" points="159.37 101.96 154.66 132.65 167.92 140.31 172.63 109.61 159.37 101.96"/><polygon class="cls-11" points="167.23 97.21 167.23 92.83 165.19 91.69 165.19 96.03 159.37 92.67 159.37 102.03 172.63 109.69 172.63 100.33 167.23 97.21"/><polygon class="cls-12" points="172.63 109.61 172.63 147.47 167.92 149.67 167.92 140.31 172.63 109.61"/><polygon class="cls-13" points="47.5 76.11 40.65 72.25 34.18 76.11 40.84 80.07 47.5 76.11"/><polygon class="cls-14" points="40.84 80.08 40.84 89.48 34.18 85.58 34.18 76.11 40.84 80.08"/><polygon class="cls-15" points="40.84 80.08 40.84 89.48 47.5 85.58 47.5 76.16 40.84 80.08"/><polygon class="cls-16" points="40.84 89.45 40.84 115.27 36.54 112.75 36.54 86.92 40.84 89.45"/><polygon class="cls-15" points="40.84 89.45 40.84 115.27 45.14 112.75 45.14 86.92 40.84 89.45"/><polygon class="cls-17" points="36.54 74.7 36.33 79.36 40.58 76.55 38.09 73.76 36.54 74.7"/><polygon class="cls-18" points="54.83 128.95 54.83 140.34 50.53 137.82 50.53 126.42 54.83 128.95"/><polygon class="cls-19" points="54.83 128.95 54.83 140.34 59.13 137.82 59.13 126.42 54.83 128.95"/><polygon class="cls-20" points="54.83 140.41 54.83 147.14 50.53 144.62 50.53 137.87 54.83 140.41"/><polygon class="cls-21" points="54.83 140.41 54.83 147.14 59.13 144.62 59.13 137.87 54.83 140.41"/><polygon class="cls-22" points="59.13 144.62 59.13 149.43 48.66 155.23 48.66 150.34 59.13 144.62"/><polygon class="cls-23" points="54.83 146.97 50.53 144.62 43.81 147.98 48.66 150.34 54.83 146.97"/><polygon class="cls-24" points="48.66 155.23 43.81 152.56 43.81 147.98 48.66 150.34 48.66 155.23"/><polygon class="cls-18" points="41.62 121.05 41.62 132.44 37.32 129.92 37.32 118.52 41.62 121.05"/><polygon class="cls-19" points="41.62 121.05 41.62 132.44 45.91 129.92 45.91 118.52 41.62 121.05"/><polygon class="cls-20" points="41.62 132.5 41.62 139.24 37.32 136.72 37.32 129.97 41.62 132.5"/><polygon class="cls-21" points="41.62 132.5 41.62 139.24 45.91 136.72 45.91 129.97 41.62 132.5"/><polygon class="cls-22" points="45.91 136.72 45.91 141.53 35.45 147.33 35.45 142.44 45.91 136.72"/><polygon class="cls-23" points="41.62 139.07 37.32 136.72 30.6 140.08 35.45 142.44 41.62 139.07"/><polygon class="cls-24" points="35.45 147.33 30.6 144.66 30.6 140.08 35.45 142.44 35.45 147.33"/><polygon class="cls-21" points="62.05 111.66 67.51 121.74 49.11 133.08 49.11 119.26 62.05 111.66"/><polygon class="cls-20" points="49.11 133.08 28.04 120.75 35.73 111.16 49.11 119.26 49.11 133.08"/><polygon class="cls-18" points="49.11 119.26 35.73 111.16 35.73 106.19 49.11 114.28 49.11 119.26"/><polygon class="cls-18" points="46.05 89.89 38.13 91.54 37.32 85.16 37.07 80.57 37.07 80.57 47.63 86.5 47.63 86.5 46.05 89.89"/><polygon class="cls-25" points="37.07 80.57 37.07 80.57 37.32 85.16 38.13 91.54 46.05 89.89 47.63 86.5 47.63 86.5 49.11 87.34 49.11 114.28 35.73 106.19 35.73 79.82 37.07 80.57"/><polygon class="cls-19" points="62.05 111.66 49.11 119.26 49.11 114.28 62.05 106.68 62.05 111.66"/><polygon class="cls-14" points="43.09 94.4 49.11 91.54 49.11 87.34 61.96 79.55 62.05 106.68 49.11 114.28 49.11 101.38 43 101.78 43.09 94.4"/><polygon class="cls-26" points="47.63 86.5 47.63 86.5 46.05 89.89 38.13 91.54 37.32 85.16 37.07 80.57 37.07 80.57 47.63 86.5"/><polygon class="cls-13" points="35.73 79.82 48.9 70 50.33 70.78 37.07 80.57 35.73 79.82"/><polygon class="cls-13" points="64.06 78.28 49.11 87.34 47.63 86.5 62.45 77.4 64.06 78.28"/><polygon class="cls-27" points="50.33 70.78 62.45 77.4 47.63 86.5 37.07 80.57 50.33 70.78"/><polygon class="cls-13" points="65.8 86.63 58.94 82.77 52.48 86.63 59.13 90.59 65.8 86.63"/><polygon class="cls-25" points="59.13 90.55 59.13 99.95 52.48 96.05 52.48 86.63 59.13 90.55"/><polygon class="cls-14" points="59.13 90.6 59.13 100 65.8 96.09 65.8 86.63 59.13 90.6"/><polygon class="cls-18" points="59.13 99.96 59.13 125.79 54.84 123.27 54.84 97.43 59.13 99.96"/><polygon class="cls-19" points="59.13 99.96 59.13 125.79 63.43 123.27 63.43 97.43 59.13 99.96"/><polyline class="cls-17" points="49.11 87.34 47.63 86.5 48.56 85.93 57.45 81.42 64.82 85.44 54.62 87.91 49.11 87.34 48.26 86.9"/><polygon class="cls-26" points="38.13 91.51 38.16 91.53 38.13 91.54 38.13 91.51"/><polygon class="cls-27" points="37.32 85.16 46.05 89.89 46.05 89.89 38.16 91.53 38.13 91.51 37.32 85.16"/><polygon class="cls-13" points="33.99 89.11 35.73 84.3 37.32 85.16 38.13 91.51 33.99 89.11"/><polygon class="cls-13" points="46.05 89.89 49.11 91.54 43.09 94.4 38.16 91.53 46.05 89.89 46.05 89.89"/><polygon class="cls-25" points="33.99 89.11 33.99 96.69 43 101.78 43 94.4 33.99 89.11"/><polygon class="cls-21" points="40.06 92.64 38.4 93.8 36.54 92.67 36.07 90.33 40.06 92.64"/><line class="cls-28" x1="39.13" y1="90.03" x2="40.99" y2="88.18"/><line class="cls-29" x1="40.89" y1="113.82" x2="40.89" y2="112.24"/><polygon class="cls-21" points="35.38 95.82 39.22 95.39 39.72 96.13 39.73 96.43 35.38 96.92 35.38 95.82"/><polygon class="cls-21" points="35.38 93.8 37.31 92.55 38.64 94.53 35.38 94.9 35.38 93.8"/><polygon class="cls-21" points="39.85 99.03 36.84 101.55 35.42 97.84 39.77 97.35 39.85 99.03"/><polygon class="cls-30" points="35.38 94.9 38.64 94.53 39.22 95.39 35.38 95.82 35.38 94.9"/><polygon class="cls-30" points="35.38 96.92 39.73 96.43 39.77 97.35 35.42 97.84 35.38 97.73 35.38 96.92"/><polygon class="cls-13" points="38.13 91.54 37.9 89.7 40.37 91.07 38.13 91.54"/><polygon class="cls-30" points="54.87 86.86 63.55 84.49 63.31 83.6 54.8 85.93 49.53 85.44 48.31 86.06 54.87 86.86"/><polygon class="cls-30" points="54.09 85.18 62.77 82.81 62.52 81.93 54.01 84.25 49.01 83.8 48.93 84.71 54.09 85.18"/><polygon class="cls-31" points="64.82 85.44 64.77 86.06 64.02 85.63 64.82 85.44"/><polygon class="cls-17" points="37.07 80.57 35.73 79.82 43.53 73.9 47.5 76.16 41.69 77.16 37.07 80.57"/><polygon class="cls-32" points="46.72 62.39 40.85 65.78 34.67 62.39 40.69 59.03 46.72 62.39"/><polygon class="cls-15" points="46.72 62.39 43.9 74.95 43.9 74.95 40.69 65.78 46.72 62.39"/><polygon class="cls-33" points="34.67 62.39 41.22 73 43.9 74.95 40.69 65.67 34.67 62.39"/><polygon class="cls-18" points="37.78 65.67 37.78 79.56 49.86 86.45 49.86 71.64 37.78 65.67"/><polygon class="cls-19" points="61.54 65.4 49.86 71.64 49.86 86.45 61.54 79.48 61.54 65.4"/><polygon class="cls-34" points="61.54 65.29 61.54 77.7 54.05 81.74 49.76 79.68 49.76 71.86 61.54 65.29"/><polygon class="cls-32" points="49.76 58.63 61.54 65.4 49.76 71.86 37.78 65.67 49.76 58.63"/><polygon class="cls-33" points="49.76 71.86 49.86 79.75 44.46 72.36 37.78 72.87 37.78 65.67 49.76 71.86"/><polygon class="cls-32" points="65.98 72.43 60.11 75.82 53.93 72.43 59.96 69.08 65.98 72.43"/><polygon class="cls-34" points="65.98 72.43 63.16 85 63.16 85 60.11 75.82 65.98 72.43"/><polygon class="cls-33" points="53.93 72.43 60.48 83.05 63.16 85 60.11 75.82 53.93 72.43"/><path class="cls-35" d="M46.31,79.86s-4,1.84-6.58-3.62"/><polygon class="cls-26" points="40.37 91.07 38.13 91.54 37.32 85.16 46.05 89.89 46.05 89.89 40.37 91.07"/><polygon class="cls-21" points="35.73 79.82 37.07 80.57 37.32 85.16 37.32 85.16 35.73 84.3 35.73 79.82"/><polygon class="cls-21" points="47.63 86.5 49.11 87.34 49.11 91.54 46.05 89.89 47.63 86.5"/><polygon class="cls-17" points="35.73 84.3 37.32 85.16 38.13 91.54 40.37 91.07 46.05 89.89 46.05 89.89 49.11 91.54 43 94.4 33.99 89.11 35.73 84.3"/></g></g></svg>