<svg xmlns="http://www.w3.org/2000/svg" viewBox="0 0 197.84 351.21"><defs><style>.cls-1,.cls-4{fill:#efefef;}.cls-1,.cls-2,.cls-3,.cls-7,.cls-8,.cls-9{stroke:#898989;}.cls-1,.cls-2,.cls-3,.cls-7{stroke-linejoin:bevel;}.cls-2,.cls-6,.cls-9{fill:#9fa0a0;}.cls-3,.cls-5,.cls-8{fill:#dcdddd;}.cls-7{fill:none;}.cls-8,.cls-9{stroke-miterlimit:10;}</style></defs><title>graphic_p3</title><g id="圖層_2" data-name="圖層 2"><g id="圖層_3" data-name="圖層 3"><polygon class="cls-1" points="0.5 285.3 86.45 334.92 197.34 270.88 111.39 221.25 0.5 285.3"/><polygon class="cls-2" points="197.34 270.88 197.34 286.73 86.45 350.77 86.45 334.92 197.34 270.88"/><polygon class="cls-3" points="0.5 285.3 0.5 301.15 86.45 350.77 86.45 334.92 0.5 285.3"/><polygon class="cls-4" points="111.69 6.61 106.26 3.51 111.72 0.44 117.21 3.64 111.69 6.61"/><polygon class="cls-5" points="106.21 61.17 111.69 64.17 111.69 6.61 106.21 3.64 106.21 61.17"/><polygon class="cls-6" points="117.21 61.17 111.72 64.17 111.72 6.61 117.21 3.64 117.21 61.17"/><polygon class="cls-7" points="111.72 64.17 106.28 61.2 106.28 3.64 111.72 6.61 111.72 64.17"/><polygon class="cls-7" points="111.69 64.15 117.13 61.18 117.13 3.62 111.69 6.59 111.69 64.15"/><polygon class="cls-7" points="117.21 3.6 111.72 6.76 106.28 3.6 111.72 0.44 117.21 3.6"/><polygon class="cls-4" points="51.9 48.43 111.73 82.97 171.55 48.43 111.73 13.89 51.9 48.43"/><polygon class="cls-1" points="117.21 3.64 177.01 37.59 171.56 40.75 111.72 6.8 117.21 3.64"/><polygon class="cls-8" points="111.72 13.89 171.56 47.84 171.56 40.75 111.72 6.8 111.72 13.89"/><polygon class="cls-5" points="111.73 75.91 111.73 306.19 51.9 271.64 51.9 41.37 111.73 75.91"/><polygon class="cls-6" points="111.73 75.91 111.73 306.19 171.55 271.64 171.55 41.37 111.73 75.91"/><polygon class="cls-4" points="177.01 216.66 171.58 213.56 177.05 210.48 182.53 213.69 177.01 216.66"/><polygon class="cls-5" points="171.53 271.22 177.01 274.22 177.01 216.66 171.53 213.69 171.53 271.22"/><polygon class="cls-6" points="182.53 271.22 177.05 274.22 177.05 216.66 182.53 213.69 182.53 271.22"/><polygon class="cls-7" points="177.05 274.22 171.6 271.25 171.6 213.69 177.05 216.66 177.05 274.22"/><polygon class="cls-7" points="177.01 274.19 182.45 271.22 182.45 213.66 177.01 216.63 177.01 274.19"/><polygon class="cls-7" points="182.53 213.64 177.05 216.8 171.6 213.64 177.05 210.48 182.53 213.64"/><polygon class="cls-4" points="177.01 159.24 171.58 156.14 177.05 153.06 182.53 156.27 177.01 159.24"/><polygon class="cls-5" points="171.53 213.8 177.01 216.8 177.01 159.24 171.53 156.27 171.53 213.8"/><polygon class="cls-6" points="182.53 213.8 177.05 216.8 177.05 159.24 182.53 156.27 182.53 213.8"/><polygon class="cls-7" points="177.05 216.8 171.6 213.83 171.6 156.27 177.05 159.24 177.05 216.8"/><polygon class="cls-7" points="177.01 216.77 182.45 213.8 182.45 156.24 177.01 159.21 177.01 216.77"/><polygon class="cls-7" points="182.53 156.22 177.05 159.38 171.6 156.22 177.05 153.06 182.53 156.22"/><polygon class="cls-4" points="177.01 101.6 171.58 98.5 177.05 95.42 182.53 98.63 177.01 101.6"/><polygon class="cls-5" points="171.53 156.16 177.01 159.16 177.01 101.6 171.53 98.63 171.53 156.16"/><polygon class="cls-6" points="182.53 156.16 177.05 159.16 177.05 101.6 182.53 98.63 182.53 156.16"/><polygon class="cls-7" points="177.05 159.16 171.6 156.19 171.6 98.63 177.05 101.6 177.05 159.16"/><polygon class="cls-7" points="177.01 159.13 182.45 156.16 182.45 98.6 177.01 101.57 177.01 159.13"/><polygon class="cls-7" points="182.53 98.58 177.05 101.74 171.6 98.58 177.05 95.42 182.53 98.58"/><polygon class="cls-4" points="177.01 43.96 171.58 40.86 177.05 37.78 182.53 40.99 177.01 43.96"/><polygon class="cls-5" points="171.53 98.52 177.01 101.52 177.01 43.96 171.53 40.99 171.53 98.52"/><polygon class="cls-6" points="182.53 98.52 177.05 101.52 177.05 43.96 182.53 40.99 182.53 98.52"/><polygon class="cls-7" points="177.05 101.52 171.6 98.55 171.6 40.99 177.05 43.96 177.05 101.52"/><polygon class="cls-7" points="177.01 101.49 182.45 98.52 182.45 40.96 177.01 43.93 177.01 101.49"/><polygon class="cls-7" points="182.53 40.94 177.05 44.1 171.6 40.94 177.05 37.78 182.53 40.94"/><polygon class="cls-4" points="46.43 217.32 41 214.22 46.46 211.15 51.95 214.35 46.43 217.32"/><polygon class="cls-5" points="40.95 271.88 46.43 274.88 46.43 217.32 40.95 214.35 40.95 271.88"/><polygon class="cls-6" points="51.95 271.88 46.46 274.88 46.46 217.32 51.95 214.35 51.95 271.88"/><polygon class="cls-7" points="46.46 274.88 41.02 271.91 41.02 214.35 46.46 217.32 46.46 274.88"/><polygon class="cls-7" points="46.43 274.86 51.87 271.89 51.87 214.33 46.43 217.3 46.43 274.86"/><polygon class="cls-7" points="51.95 214.31 46.46 217.47 41.02 214.31 46.46 211.15 51.95 214.31"/><polygon class="cls-4" points="46.43 159.91 41 156.81 46.46 153.73 51.95 156.94 46.43 159.91"/><polygon class="cls-5" points="40.95 214.47 46.43 217.47 46.43 159.91 40.95 156.94 40.95 214.47"/><polygon class="cls-6" points="51.95 214.47 46.46 217.47 46.46 159.91 51.95 156.94 51.95 214.47"/><polygon class="cls-7" points="46.46 217.47 41.02 214.5 41.02 156.94 46.46 159.91 46.46 217.47"/><polygon class="cls-7" points="46.43 217.44 51.87 214.47 51.87 156.91 46.43 159.88 46.43 217.44"/><polygon class="cls-7" points="51.95 156.89 46.46 160.05 41.02 156.89 46.46 153.73 51.95 156.89"/><polygon class="cls-4" points="46.43 102.27 41 99.17 46.46 96.09 51.95 99.3 46.43 102.27"/><polygon class="cls-5" points="40.95 156.83 46.43 159.83 46.43 102.27 40.95 99.3 40.95 156.83"/><polygon class="cls-6" points="51.95 156.83 46.46 159.83 46.46 102.27 51.95 99.3 51.95 156.83"/><polygon class="cls-7" points="46.46 159.83 41.02 156.86 41.02 99.3 46.46 102.27 46.46 159.83"/><polygon class="cls-7" points="46.43 159.8 51.87 156.83 51.87 99.27 46.43 102.24 46.43 159.8"/><polygon class="cls-7" points="51.95 99.25 46.46 102.41 41.02 99.25 46.46 96.09 51.95 99.25"/><polygon class="cls-4" points="46.43 44.63 41 41.52 46.46 38.45 51.95 41.66 46.43 44.63"/><polygon class="cls-5" points="40.95 99.19 46.43 102.19 46.43 44.63 40.95 41.66 40.95 99.19"/><polygon class="cls-6" points="51.95 99.19 46.46 102.19 46.46 44.63 51.95 41.66 51.95 99.19"/><polygon class="cls-7" points="46.46 102.19 41.02 99.22 41.02 41.66 46.46 44.63 46.46 102.19"/><polygon class="cls-7" points="46.43 102.16 51.87 99.19 51.87 41.63 46.43 44.6 46.43 102.16"/><polygon class="cls-7" points="51.95 41.61 46.46 44.77 41.02 41.61 46.46 38.45 51.95 41.61"/><polygon class="cls-1" points="51.95 264.75 111.74 298.7 106.3 301.86 46.46 267.91 51.95 264.75"/><polygon class="cls-8" points="46.46 275 106.3 308.95 106.3 301.86 46.46 267.91 46.46 275"/><polygon class="cls-1" points="171.5 264.39 111.71 298.34 117.15 301.5 176.99 267.55 171.5 264.39"/><polygon class="cls-9" points="176.99 274.64 117.15 308.59 117.15 301.5 176.99 267.55 176.99 274.64"/><polygon class="cls-1" points="171.5 41.23 111.71 75.18 117.15 78.34 176.99 44.39 171.5 41.23"/><polygon class="cls-9" points="176.99 51.48 117.15 85.43 117.15 78.34 176.99 44.39 176.99 51.48"/><polygon class="cls-9" points="111.73 13.89 51.9 47.84 51.9 40.75 111.73 6.8 111.73 13.89"/><polygon class="cls-1" points="51.95 41.61 111.74 75.56 106.3 78.72 46.46 44.77 51.95 41.61"/><polygon class="cls-8" points="46.46 51.86 106.3 85.81 106.3 78.72 46.46 44.77 46.46 51.86"/><polygon class="cls-4" points="111.71 254.44 106.28 251.34 111.74 248.26 117.23 251.47 111.71 254.44"/><polygon class="cls-5" points="106.23 309 111.71 312 111.71 254.44 106.23 251.47 106.23 309"/><polygon class="cls-6" points="117.23 309 111.74 312 111.74 254.44 117.23 251.47 117.23 309"/><polygon class="cls-7" points="111.74 312 106.3 309.03 106.3 251.47 111.74 254.44 111.74 312"/><polygon class="cls-7" points="111.71 311.97 117.15 309 117.15 251.44 111.71 254.41 111.71 311.97"/><polygon class="cls-7" points="117.23 251.42 111.74 254.58 106.3 251.42 111.74 248.26 117.23 251.42"/><polygon class="cls-4" points="111.71 197.02 106.28 193.92 111.74 190.84 117.23 194.05 111.71 197.02"/><polygon class="cls-5" points="106.23 251.58 111.71 254.58 111.71 197.02 106.23 194.05 106.23 251.58"/><polygon class="cls-6" points="117.23 251.58 111.74 254.58 111.74 197.02 117.23 194.05 117.23 251.58"/><polygon class="cls-7" points="111.74 254.58 106.3 251.61 106.3 194.05 111.74 197.02 111.74 254.58"/><polygon class="cls-7" points="111.71 254.55 117.15 251.58 117.15 194.02 111.71 196.99 111.71 254.55"/><polygon class="cls-7" points="117.23 194 111.74 197.16 106.3 194 111.74 190.84 117.23 194"/><polygon class="cls-4" points="111.71 139.38 106.28 136.28 111.74 133.2 117.23 136.41 111.71 139.38"/><polygon class="cls-5" points="106.23 193.94 111.71 196.94 111.71 139.38 106.23 136.41 106.23 193.94"/><polygon class="cls-6" points="117.23 193.94 111.74 196.94 111.74 139.38 117.23 136.41 117.23 193.94"/><polygon class="cls-7" points="111.74 196.94 106.3 193.97 106.3 136.41 111.74 139.38 111.74 196.94"/><polygon class="cls-7" points="111.71 196.91 117.15 193.94 117.15 136.38 111.71 139.35 111.71 196.91"/><polygon class="cls-7" points="117.23 136.36 111.74 139.52 106.3 136.36 111.74 133.2 117.23 136.36"/><polygon class="cls-4" points="111.71 81.74 106.28 78.64 111.74 75.56 117.23 78.77 111.71 81.74"/><polygon class="cls-5" points="106.23 136.3 111.71 139.3 111.71 81.74 106.23 78.77 106.23 136.3"/><polygon class="cls-6" points="117.23 136.3 111.74 139.3 111.74 81.74 117.23 78.77 117.23 136.3"/><polygon class="cls-7" points="111.74 139.3 106.3 136.33 106.3 78.77 111.74 81.74 111.74 139.3"/><polygon class="cls-7" points="111.71 139.27 117.15 136.3 117.15 78.74 111.71 81.71 111.71 139.27"/><polygon class="cls-7" points="117.23 78.72 111.74 81.88 106.3 78.72 111.74 75.56 117.23 78.72"/><polygon class="cls-1" points="106.23 3.52 46.46 38.38 51.91 41.54 111.71 6.68 106.23 3.52"/><polygon class="cls-1" points="111.73 6.61 106.3 3.51 111.76 0.44 117.25 3.64 111.73 6.61"/></g></g></svg>