<svg xmlns="http://www.w3.org/2000/svg" viewBox="0 0 69.77 123.19"><defs><style>.cls-1{fill:#efefef;}.cls-1,.cls-2,.cls-3{stroke:#898989;stroke-linejoin:bevel;}.cls-2{fill:#9fa0a0;}.cls-3{fill:#dcdddd;}.cls-4{fill:#f8f8ec;}.cls-5{fill:#f0ebcd;}.cls-6{fill:#b5b5b6;}.cls-26,.cls-6,.cls-7{stroke:#c83c00;}.cls-19,.cls-20,.cls-26,.cls-6,.cls-7{stroke-linejoin:round;}.cls-14,.cls-7{fill:#898989;}.cls-8{fill:#4b59a4;}.cls-9{fill:#e7a77b;}.cls-10{fill:#f1c1ab;}.cls-11{fill:#303f88;}.cls-12{fill:#444f88;}.cls-13{fill:#646569;}.cls-15{fill:#111820;}.cls-16{fill:#f8f8e0;}.cls-17,.cls-19,.cls-20,.cls-26{fill:none;}.cls-18{fill:#f1d2c3;}.cls-19{stroke:#e7a77b;}.cls-19,.cls-20,.cls-26{stroke-linecap:round;}.cls-20{stroke:#ce8859;}.cls-21{fill:#fff;}.cls-22{fill:#1a2866;}.cls-23{fill:#ffe261;}.cls-24{fill:#ffc334;}.cls-25{fill:#ffd54d;}</style></defs><title>graphic_p4</title><g id="圖層_2" data-name="圖層 2"><g id="圖層_3" data-name="圖層 3"><polygon class="cls-1" points="0.5 87.56 34.89 107.42 69.27 87.56 34.89 67.71 0.5 87.56"/><polygon class="cls-2" points="69.27 87.56 69.27 102.91 34.89 122.76 34.89 107.42 69.27 87.56"/><polygon class="cls-3" points="0.5 87.56 0.5 102.91 34.89 122.76 34.89 107.42 0.5 87.56"/><polygon class="cls-4" points="34.07 17.48 40.92 13.62 47.39 17.48 40.73 21.44 34.07 17.48"/><polygon class="cls-5" points="40.73 21.45 40.73 30.85 47.39 26.94 47.39 17.53 40.73 21.45"/><polygon class="cls-6" points="40.73 21.45 40.73 30.85 34.07 26.94 34.07 17.53 40.73 21.45"/><polygon class="cls-7" points="40.73 30.81 40.73 56.63 45.03 54.11 45.03 28.28 40.73 30.81"/><polygon class="cls-6" points="40.73 30.81 40.73 56.63 36.43 54.11 36.43 28.28 40.73 30.81"/><polygon class="cls-8" points="45.03 16.07 45.24 20.73 40.99 17.92 43.48 15.13 45.03 16.07"/><polygon class="cls-9" points="26.74 70.32 26.74 81.71 31.04 79.19 31.04 67.79 26.74 70.32"/><polygon class="cls-10" points="26.74 70.32 26.74 81.71 22.45 79.19 22.45 67.79 26.74 70.32"/><polygon class="cls-11" points="26.74 81.77 26.74 88.51 31.04 85.99 31.04 79.24 26.74 81.77"/><polygon class="cls-12" points="26.74 81.77 26.74 88.51 22.45 85.99 22.45 79.24 26.74 81.77"/><polygon class="cls-13" points="22.45 85.99 22.45 90.8 32.91 96.6 32.91 91.71 22.45 85.99"/><polygon class="cls-14" points="26.74 88.34 31.04 85.99 37.76 89.34 32.91 91.71 26.74 88.34"/><polygon class="cls-15" points="32.91 96.6 37.76 93.92 37.76 89.34 32.91 91.71 32.91 96.6"/><polygon class="cls-9" points="39.96 62.42 39.96 73.81 44.26 71.29 44.26 59.89 39.96 62.42"/><polygon class="cls-10" points="39.96 62.42 39.96 73.81 35.66 71.29 35.66 59.89 39.96 62.42"/><polygon class="cls-11" points="39.96 73.87 39.96 80.61 44.26 78.08 44.26 71.34 39.96 73.87"/><polygon class="cls-12" points="39.96 73.87 39.96 80.61 35.66 78.08 35.66 71.34 39.96 73.87"/><polygon class="cls-13" points="35.66 78.08 35.66 82.89 46.12 88.7 46.12 83.81 35.66 78.08"/><polygon class="cls-14" points="39.96 80.44 44.26 78.08 50.97 81.44 46.12 83.81 39.96 80.44"/><polygon class="cls-15" points="46.12 88.7 50.97 86.02 50.97 81.44 46.12 83.81 46.12 88.7"/><polygon class="cls-12" points="19.52 53.03 14.06 63.11 32.46 74.44 32.46 60.63 19.52 53.03"/><polygon class="cls-11" points="32.46 74.44 53.53 62.11 45.84 52.53 32.46 60.63 32.46 74.44"/><polygon class="cls-9" points="32.46 60.63 45.84 52.53 45.84 47.55 32.46 55.65 32.46 60.63"/><polygon class="cls-9" points="35.52 31.25 43.44 32.91 44.26 26.53 44.5 21.93 44.5 21.93 33.95 27.87 33.95 27.87 35.52 31.25"/><polygon class="cls-5" points="44.5 21.93 44.5 21.93 44.26 26.53 43.44 32.91 35.52 31.25 33.95 27.87 33.95 27.87 32.46 28.71 32.46 55.65 45.84 47.55 45.84 21.18 44.5 21.93"/><polygon class="cls-10" points="19.52 53.03 32.46 60.63 32.46 55.65 19.52 48.05 19.52 53.03"/><polygon class="cls-16" points="38.48 35.77 32.46 32.91 32.46 28.71 19.61 20.92 19.52 48.05 32.46 55.65 32.46 42.75 38.58 43.15 38.48 35.77"/><polygon class="cls-17" points="33.95 27.87 33.95 27.87 35.52 31.25 43.44 32.91 44.26 26.53 44.5 21.93 44.5 21.93 33.95 27.87"/><polygon class="cls-4" points="45.84 21.18 32.68 11.37 31.25 12.15 44.5 21.93 45.84 21.18"/><polygon class="cls-4" points="17.51 19.64 32.46 28.71 33.95 27.87 19.13 18.76 17.51 19.64"/><polygon class="cls-10" points="31.25 12.15 19.13 18.76 33.95 27.87 44.5 21.93 31.25 12.15"/><polygon class="cls-4" points="15.78 28 22.63 24.14 29.1 28 22.44 31.96 15.78 28"/><polygon class="cls-5" points="22.44 31.97 22.44 41.37 29.1 37.46 29.1 28.05 22.44 31.97"/><polygon class="cls-16" points="22.44 31.97 22.44 41.37 15.78 37.46 15.78 28 22.44 31.97"/><polygon class="cls-9" points="22.44 41.33 22.44 67.15 26.73 64.63 26.73 38.8 22.44 41.33"/><polygon class="cls-10" points="22.44 41.33 22.44 67.15 18.14 64.63 18.14 38.8 22.44 41.33"/><polyline class="cls-8" points="32.46 28.71 33.95 27.87 33.01 27.3 24.12 22.79 16.75 26.8 26.95 29.28 32.46 28.71 33.32 28.27"/><polygon class="cls-17" points="43.44 32.88 43.41 32.9 43.44 32.91 43.44 32.88"/><polygon class="cls-18" points="44.26 26.53 35.52 31.25 35.52 31.25 43.41 32.9 43.44 32.88 44.26 26.53"/><polygon class="cls-4" points="47.58 30.47 45.84 25.67 44.26 26.53 43.44 32.88 47.58 30.47"/><polygon class="cls-4" points="35.52 31.25 32.46 32.91 38.48 35.77 43.41 32.9 35.52 31.25 35.52 31.25"/><polygon class="cls-5" points="47.58 30.47 47.58 38.06 38.58 43.15 38.58 35.77 47.58 30.47"/><polygon class="cls-11" points="41.51 34 43.17 35.16 45.03 34.04 45.66 31.63 41.51 34"/><line class="cls-19" x1="42.45" y1="31.39" x2="40.58" y2="29.55"/><line class="cls-20" x1="40.68" y1="55.19" x2="40.68" y2="53.61"/><polygon class="cls-11" points="46.19 37.19 42.35 36.76 41.85 37.49 41.84 37.8 46.19 38.29 46.19 37.19"/><polygon class="cls-11" points="46.19 35.16 44.27 33.91 42.93 35.9 46.19 36.27 46.19 35.16"/><polygon class="cls-11" points="41.72 40.4 44.73 42.92 46.15 39.2 41.8 38.71 41.72 40.4"/><polygon class="cls-21" points="46.19 36.27 42.93 35.9 42.35 36.76 46.19 37.19 46.19 36.27"/><polygon class="cls-21" points="46.19 38.29 41.84 37.8 41.8 38.71 46.15 39.2 46.19 39.1 46.19 38.29"/><polygon class="cls-4" points="43.44 32.91 43.67 31.07 41.2 32.44 43.44 32.91"/><polygon class="cls-21" points="26.7 28.23 18.02 25.85 18.26 24.97 26.77 27.3 32.04 26.8 33.26 27.42 26.7 28.23"/><polygon class="cls-21" points="27.48 26.55 18.81 24.18 19.05 23.29 27.57 25.62 32.56 25.16 32.65 26.07 27.48 26.55"/><polygon class="cls-22" points="16.75 26.8 16.8 27.42 17.55 27 16.75 26.8"/><polygon class="cls-8" points="44.5 21.93 45.84 21.18 38.04 15.26 34.07 17.53 39.89 18.53 44.5 21.93"/><polygon class="cls-23" points="34.85 3.75 40.72 7.14 46.91 3.75 40.88 0.4 34.85 3.75"/><polygon class="cls-6" points="34.85 3.75 37.67 16.32 37.67 16.32 40.88 7.14 34.85 3.75"/><polygon class="cls-24" points="46.91 3.75 40.35 14.37 37.67 16.32 40.88 7.14 46.91 3.75"/><polygon class="cls-9" points="43.79 7.04 43.79 20.92 31.71 27.82 31.71 13.01 43.79 7.04"/><polygon class="cls-10" points="20.03 6.77 31.71 13.01 31.71 27.82 20.03 20.85 20.03 6.77"/><polygon class="cls-25" points="20.03 6.66 20.03 19.07 27.52 23.11 31.82 21.05 31.82 13.22 20.03 6.66"/><polygon class="cls-23" points="31.82 0 20.03 6.77 31.82 13.22 43.79 7.04 31.82 0"/><polygon class="cls-24" points="31.82 13.22 31.71 21.11 37.12 13.72 43.79 14.24 43.79 7.04 31.82 13.22"/><polygon class="cls-23" points="15.59 13.8 21.46 17.19 27.64 13.8 21.61 10.45 15.59 13.8"/><polygon class="cls-25" points="15.59 13.8 18.41 26.36 18.41 26.36 21.61 17.19 15.59 13.8"/><polygon class="cls-24" points="27.64 13.8 21.09 24.41 18.41 26.36 21.61 17.19 27.64 13.8"/><path class="cls-26" d="M35.26,21.23s4,1.84,6.58-3.62"/><polygon class="cls-17" points="41.2 32.44 43.44 32.91 44.26 26.53 35.52 31.25 35.52 31.25 41.2 32.44"/><polygon class="cls-11" points="45.84 21.18 44.5 21.93 44.26 26.53 44.26 26.53 45.84 25.67 45.84 21.18"/><polygon class="cls-11" points="33.95 27.87 32.46 28.71 32.46 32.91 35.52 31.25 33.95 27.87"/><polygon class="cls-8" points="45.84 25.67 44.26 26.53 43.44 32.91 41.2 32.44 35.52 31.25 35.52 31.25 32.46 32.91 38.58 35.77 47.58 30.47 45.84 25.67"/></g></g></svg>