<svg id="Div" xmlns="http://www.w3.org/2000/svg" width="2797" height="926" viewBox="0 0 2797 926">
  <metadata><?xpacket begin="﻿" id="W5M0MpCehiHzreSzNTczkc9d"?>
<x:xmpmeta xmlns:x="adobe:ns:meta/" x:xmptk="Adobe XMP Core 5.6-c138 79.159824, 2016/09/14-01:09:01        ">
   <rdf:RDF xmlns:rdf="http://www.w3.org/1999/02/22-rdf-syntax-ns#">
      <rdf:Description rdf:about=""/>
   </rdf:RDF>
</x:xmpmeta>
                                                                                                    
                                                                                                    
                                                                                                    
                                                                                                    
                                                                                                    
                                                                                                    
                                                                                                    
                                                                                                    
                                                                                                    
                                                                                                    
                                                                                                    
                                                                                                    
                                                                                                    
                                                                                                    
                                                                                                    
                                                                                                    
                                                                                                    
                                                                                                    
                                                                                                    
                                                                                                    
                           
<?xpacket end="w"?></metadata>
<defs>
    <style>
      .cls-1 {
        fill: #a12300;
      }

      .cls-1, .cls-2, .cls-3, .cls-4, .cls-5 {
        fill-rule: evenodd;
      }

      .cls-2 {
        fill: #fc4513;
      }

      .cls-3 {
        fill: #2c2c2c;
      }

      .cls-4 {
        fill: #65646a;
      }

      .cls-5 {
        fill: #a2a0a3;
      }
    </style>
  </defs>
  <path id="色彩填色_1373" data-name="色彩填色 1373" class="cls-1" d="M2795.98,926h-985l66.53-67H1936l113.4-114h439.98l132.37-133H2796l0.24,247h0.77ZM286.2,691H583l-84.868,85.27,423.35,0.23L812.532,886H982.011L942.29,926H3.634L2.5,776l198.988,0.108ZM1597.27,886l30.24-31h166l-69.26,71H1209.29l39.72-40h348.26Z"/>
  <path id="色彩填色_1372" data-name="色彩填色 1372" class="cls-2" d="M2789.98,917h-985l66.53-67H1930l113.4-114h439.98l132.37-133H2790l0.24,247h0.77ZM280.2,682H577l-84.868,85.27,423.35,0.23L806.532,877H976.011L936.29,917H-2.366L-3.5,767l198.988,0.108ZM1591.27,877l30.24-31h166l-69.26,71H1203.29l39.72-40h348.26Z"/>
  <path id="矩形_48_拷貝_9" data-name="矩形 48 拷貝 9" class="cls-1" d="M2156.01,220l-51.43,52H2063l51.43-52h41.58ZM1985,542l51.43-52h41.58l-51.43,52H1985Zm810.89-398-0.08,90h-325.8l89.65-90H1843l68.52-69H1796l65.65-66h934.12l0.02,10H2796l-0.07,83.05L2796,144h-0.11ZM2007.01,288l-41.51,41h-34l41.51-41h34ZM1666,730.5l41.51-41h34l-41.51,41h-34ZM1933.01,594l-43.51,43h-70l43.51-43h70ZM1592.99,137l30.52-31H1673l-30.52,31h-49.49ZM1391,58l48.15-49h71.93l-48.15,49H1391Zm1.57,126h-52.58l32.43-33H1425Zm-223.08-75L1239,39h96l-69.51,70h-96Zm-360.5,8-67.018,68H604.5l67.018-68H349.37L232.815,234,5,234,4.692,19H6.046L6,9H1006.43L899.4,117H808.992ZM789.574,564H747.992l51.426-52H841ZM853,390l-51.426,52H759.992l51.426-52H853Zm62.489,1L957,350h34l-41.511,41h-34Z"/>
  <path id="矩形_48_拷貝_10" data-name="矩形 48 拷貝 10" class="cls-2" d="M2150.01,211l-51.43,52H2057l51.43-52h41.58ZM1979,533l51.43-52h41.58l-51.43,52H1979Zm809.81-308h-324.8l89.65-90H1837l68.52-69H1790l65.65-66h933.12Zm-787.8,54-41.51,41h-34l41.51-41h34ZM1661.5,721.5l41.51-41h34l-41.51,41h-34Zm265.51-138-43.51,43h-70l43.51-43h70ZM1586.99,128l30.52-31H1667l-30.52,31h-49.49ZM1385,49l48.15-49h71.93l-48.15,49H1385Zm1.57,126h-52.58l32.43-33H1419Zm-223.08-75L1233,30h96l-69.51,70h-96Zm-360.5,8-67.018,68H598.5l67.018-68H343.37L226.815,225-2,225V0H1000.43L893.4,108H802.992ZM783.574,555H741.992l51.426-52H835ZM847,381l-51.426,52H753.992l51.426-52H847Zm62.489,1L951,341h34l-41.511,41h-34Z"/>
  <path id="矩形_49" data-name="矩形 49" class="cls-3" d="M1747,230h84l-51.51,52h-84ZM1030,572H946l51.511-52h84Z"/>
  <path id="矩形_49_拷貝" data-name="矩形 49 拷貝" class="cls-4" d="M1741.5,217h84l-51.51,52h-84ZM1023,562H939l51.511-52h84Z"/>
  <path id="矩形_48_拷貝" data-name="矩形 48 拷貝" class="cls-4" d="M1873.5,385h80l-98.51,99h-78ZM1064,681.5H984l98.51-99h78Z"/>
  <path id="矩形_48_拷貝_2" data-name="矩形 48 拷貝 2" class="cls-5" d="M1870,374h80l-98.51,99h-78ZM1057,671.5H977l98.51-99h78Z"/>
</svg>
