<svg id="Div" xmlns="http://www.w3.org/2000/svg" width="2800.5" height="746" viewBox="0 0 2800.5 746">
  <metadata><?xpacket begin="﻿" id="W5M0MpCehiHzreSzNTczkc9d"?>
<x:xmpmeta xmlns:x="adobe:ns:meta/" x:xmptk="Adobe XMP Core 5.6-c138 79.159824, 2016/09/14-01:09:01        ">
   <rdf:RDF xmlns:rdf="http://www.w3.org/1999/02/22-rdf-syntax-ns#">
      <rdf:Description rdf:about=""/>
   </rdf:RDF>
</x:xmpmeta>
                                                                                                    
                                                                                                    
                                                                                                    
                                                                                                    
                                                                                                    
                                                                                                    
                                                                                                    
                                                                                                    
                                                                                                    
                                                                                                    
                                                                                                    
                                                                                                    
                                                                                                    
                                                                                                    
                                                                                                    
                                                                                                    
                                                                                                    
                                                                                                    
                                                                                                    
                                                                                                    
                           
<?xpacket end="w"?></metadata>
<defs>
    <style>
      .cls-1 {
        fill: #a12300;
      }

      .cls-1, .cls-2, .cls-3, .cls-4, .cls-5 {
        fill-rule: evenodd;
      }

      .cls-2 {
        fill: #fc4513;
      }

      .cls-3 {
        fill: #2c2c2c;
      }

      .cls-4 {
        fill: #65646a;
      }

      .cls-5 {
        fill: #a2a0a3;
      }
    </style>
  </defs>
  <path id="矩形_48_拷貝_9" data-name="矩形 48 拷貝 9" class="cls-1" d="M2803.98,750h-985l66.53-67H1944l113.4-114h439.98l132.37-133H2804l0.24,247h0.77ZM2164.01,224l-51.43,52H2071l51.43-52h41.58ZM1993,436l51.43-52h41.58l-51.43,52H1993Zm806.89-288-0.08,90h-321.8l89.65-90H1851l68.52-69H1804l65.65-66h930.12l0.02,10H2800l-0.07,83.05L2800,148h-0.11ZM1985.01,292l-41.51,41h-34l41.51-41h34ZM1835.5,474.5l41.51-41h34l-41.51,41h-34Zm65.51,92-43.51,43h-70l43.51-43h70ZM1600.99,141l30.52-31H1681l-30.52,31h-49.49ZM1399,62l48.15-49h71.93l-48.15,49H1399Zm1.57,126h-52.58l32.43-33H1433Zm-223.08-75L1247,43h96l-69.51,70h-96Zm-360.5,8-67.018,68H612.5l67.018-68H357.37L240.815,238,13,238,12.692,23h1.354L14,13H1014.43L907.4,121H816.992ZM797.574,458H755.992l51.426-52H849ZM861,284l-51.426,52H767.992l51.426-52H861Zm62.489,1L965,244h34l-41.511,41h-34ZM294.2,515H591l-84.868,85.27,423.35,0.23L820.532,710H990.011L950.29,750H11.634L10.5,600l198.988,0.108ZM1605.27,710l30.24-31h166l-69.26,71H1217.29l39.72-40h348.26Z" transform="translate(-4.5 -4)"/>
  <path id="矩形_48_拷貝_10" data-name="矩形 48 拷貝 10" class="cls-2" d="M2797.98,741h-985l66.53-67H1938l113.4-114h439.98l132.37-133H2798l0.24,247h0.77ZM2158.01,215l-51.43,52H2065l51.43-52h41.58ZM1987,427l51.43-52h41.58l-51.43,52H1987Zm806.89-288-0.08,90h-321.8l89.65-90H1845l68.52-69H1798l65.65-66h930.12l0.02,10H2794l-0.07,83.05L2794,139h-0.11ZM1979.01,283l-41.51,41h-34l41.51-41h34ZM1829.5,465.5l41.51-41h34l-41.51,41h-34Zm65.51,92-43.51,43h-70l43.51-43h70ZM1594.99,132l30.52-31H1675l-30.52,31h-49.49ZM1393,53l48.15-49h71.93l-48.15,49H1393Zm1.57,126h-52.58l32.43-33H1427Zm-223.08-75L1241,34h96l-69.51,70h-96Zm-360.5,8-67.018,68H606.5l67.018-68H351.37L234.815,229,7,229,6.692,14H8.046L8,4H1008.43L901.4,112H810.992ZM791.574,449H749.992l51.426-52H843ZM855,275l-51.426,52H761.992l51.426-52H855Zm62.489,1L959,235h34l-41.511,41h-34ZM288.2,506H585l-84.868,85.27,423.35,0.23L814.532,701H984.011L944.29,741H5.634L4.5,591l198.988,0.108ZM1599.27,701l30.24-31h166l-69.26,71H1211.29l39.72-40h348.26Z" transform="translate(-4.5 -4)"/>
  <path id="矩形_49" data-name="矩形 49" class="cls-3" d="M1708,161h84l-51.51,52h-84ZM1037,476H953l51.51-52h84Z" transform="translate(-4.5 -4)"/>
  <path id="矩形_49_拷貝" data-name="矩形 49 拷貝" class="cls-4" d="M1702,151h84l-51.51,52h-84ZM1031,466H947l51.511-52h84Z" transform="translate(-4.5 -4)"/>
  <path id="矩形_48_拷貝" data-name="矩形 48 拷貝" class="cls-4" d="M1743,209h80l-98.51,99h-78ZM1021,585.5H941l98.51-99h78Z" transform="translate(-4.5 -4)"/>
  <path id="矩形_48_拷貝_2" data-name="矩形 48 拷貝 2" class="cls-5" d="M1737,199h80l-98.51,99h-78ZM1015,575.5H935l98.51-99h78Z" transform="translate(-4.5 -4)"/>
</svg>
