<svg id="Header_polygon" xmlns="http://www.w3.org/2000/svg" width="1295" height="730" viewBox="0 0 1295 730">
  <metadata><?xpacket begin="﻿" id="W5M0MpCehiHzreSzNTczkc9d"?>
<x:xmpmeta xmlns:x="adobe:ns:meta/" x:xmptk="Adobe XMP Core 5.6-c138 79.159824, 2016/09/14-01:09:01        ">
   <rdf:RDF xmlns:rdf="http://www.w3.org/1999/02/22-rdf-syntax-ns#">
      <rdf:Description rdf:about=""/>
   </rdf:RDF>
</x:xmpmeta>
                                                                                                    
                                                                                                    
                                                                                                    
                                                                                                    
                                                                                                    
                                                                                                    
                                                                                                    
                                                                                                    
                                                                                                    
                                                                                                    
                                                                                                    
                                                                                                    
                                                                                                    
                                                                                                    
                                                                                                    
                                                                                                    
                                                                                                    
                                                                                                    
                                                                                                    
                                                                                                    
                           
<?xpacket end="w"?></metadata>
<defs>
    <style>
      .cls-1 {
        fill: #a2a0a3;
      }

      .cls-1, .cls-2, .cls-3 {
        fill-rule: evenodd;
      }

      .cls-2 {
        fill: #65646a;
      }

      .cls-3 {
        fill: #fc4513;
      }
    </style>
  </defs>
  <g id="_1" data-name="1">
    <path id="矩形_48_拷貝" data-name="矩形 48 拷貝" class="cls-1" d="M370,96h80l-98.511,99h-78Z" transform="translate(-39 -48)"/>
    <path id="矩形_49" data-name="矩形 49" class="cls-2" d="M335,48h84l-51.511,52h-84Z" transform="translate(-39 -48)"/>
  </g>
  <g id="_2" data-name="2">
    <path id="矩形_48_拷貝-2" data-name="矩形 48 拷貝" class="cls-1" d="M1003,730H923l98.51-99h78Z" transform="translate(-39 -48)"/>
    <path id="矩形_49-2" data-name="矩形 49" class="cls-2" d="M1038,778H954l51.51-52h84Z" transform="translate(-39 -48)"/>
  </g>
  <g id="_3" data-name="3">
    <path id="矩形_48_拷貝_3" data-name="矩形 48 拷貝 3" class="cls-3" d="M530,48h96l-69.511,70h-96ZM206,215h70l-43.511,43h-70ZM914.511,115H964l-30.518,31H883.993ZM663.418,160H716l-32.426,33H630.992Zm-573,251H132L80.574,463H38.992ZM118,73h34l-41.511,41h-34ZM843,778H747l69.511-70h96Zm324-167h-70l43.51-43h70ZM458.489,711H409l30.518-31h49.489Zm251.093-45H657l32.426-33h52.582Zm573-251H1241l51.43-52h41.58ZM1255,753h-34l41.51-41h34Z" transform="translate(-39 -48)"/>
  </g>
</svg>
