<svg id="Div" xmlns="http://www.w3.org/2000/svg" width="2553.155" height="746" viewBox="0 0 2553.155 746">
  <metadata><?xpacket begin="﻿" id="W5M0MpCehiHzreSzNTczkc9d"?>
<x:xmpmeta xmlns:x="adobe:ns:meta/" x:xmptk="Adobe XMP Core 5.6-c138 79.159824, 2016/09/14-01:09:01        ">
   <rdf:RDF xmlns:rdf="http://www.w3.org/1999/02/22-rdf-syntax-ns#">
      <rdf:Description rdf:about=""/>
   </rdf:RDF>
</x:xmpmeta>
                                                                                                    
                                                                                                    
                                                                                                    
                                                                                                    
                                                                                                    
                                                                                                    
                                                                                                    
                                                                                                    
                                                                                                    
                                                                                                    
                                                                                                    
                                                                                                    
                                                                                                    
                                                                                                    
                                                                                                    
                                                                                                    
                                                                                                    
                                                                                                    
                                                                                                    
                                                                                                    
                           
<?xpacket end="w"?></metadata>
<defs>
    <style>
      .cls-1 {
        fill: #a12300;
      }

      .cls-1, .cls-2, .cls-3, .cls-4, .cls-5 {
        fill-rule: evenodd;
      }

      .cls-2 {
        fill: #fc4513;
      }

      .cls-3 {
        fill: #2c2c2c;
      }

      .cls-4 {
        fill: #65646a;
      }

      .cls-5 {
        fill: #a2a0a3;
      }
    </style>
  </defs>
  <path id="矩形_48_拷貝_4" data-name="矩形 48 拷貝 4" class="cls-1" d="M813.482,600.5L704.532,710H874.011L834.29,750H15.634L164.383,600.5h649.1ZM807.489,285L849,244h34l-41.511,41h-34ZM1227,43l-69.51,70h-96L1131,43h96Zm262.27,667,30.24-31h166l-69.26,71H1101.29l39.72-40h348.26Zm1073.24-27-66.53,67h-793l66.53-67h793ZM1828,683l113.4-114h156.62l-113.4,114H1828Zm220.01-459-51.43,52H1955l51.43-52h41.58ZM1877,436l51.43-52h41.58l-51.43,52H1877Zm563.5-288H1735l68.52-69H1688l65.65-66h809.12l-64.66,65h11.9Zm-769,461.5,43.51-43h70l-43.51,43h-70ZM1869.01,292l-41.51,41h-34l41.51-41h34ZM1719.5,474.5l41.51-41h34l-41.51,41h-34ZM1534.48,141h-49.49l30.52-31H1565ZM1354.93,62H1283l48.15-49h71.93Zm-70.36,126h-52.58l32.43-33H1317ZM703.418,284H745l-51.426,52H651.992ZM639.992,458l51.426-52H733l-51.426,52H639.992ZM791.4,121H700.992l-67.018,68H496.5l67.018-68H20L127.027,13h771.4Z" transform="translate(-9.625 -4)"/>
  <path id="矩形_48_拷貝_5" data-name="矩形 48 拷貝 5" class="cls-2" d="M807.482,591.5L698.532,701H868.011L828.29,741H9.634L158.383,591.5h649.1ZM801.489,276L843,235h34l-41.511,41h-34ZM1221,34l-69.51,70h-96L1125,34h96Zm262.27,667,30.24-31h166l-69.26,71H1095.29l39.72-40h348.26Zm1075.24-27-66.53,67h-795l66.53-67h795ZM1822,674l113.4-114h156.62l-113.4,114H1822Zm220.01-459-51.43,52H1949l51.43-52h41.58ZM1871,427l51.43-52h41.58l-51.43,52H1871Zm567-288H1729l68.52-69H1682l65.65-66h812.62l-64.66,65h11.9ZM1665.5,600.5l43.51-43h70l-43.51,43h-70ZM1863.01,283l-41.51,41h-34l41.51-41h34ZM1713.5,465.5l41.51-41h34l-41.51,41h-34ZM1528.48,132h-49.49l30.52-31H1559ZM1348.93,53H1277l48.15-49h71.93Zm-70.36,126h-52.58l32.43-33H1311ZM697.418,275H739l-51.426,52H645.992ZM633.992,449l51.426-52H727l-51.426,52H633.992ZM785.4,112H694.992l-67.018,68H490.5l67.018-68H14L121.027,4h771.4Z" transform="translate(-9.625 -4)"/>
  <path id="矩形_49" data-name="矩形 49" class="cls-3" d="M1592,161h84l-51.51,52h-84ZM921,476H837l51.511-52h84Z" transform="translate(-9.625 -4)"/>
  <path id="矩形_49_拷貝" data-name="矩形 49 拷貝" class="cls-4" d="M1586,151h84l-51.51,52h-84ZM915,466H831l51.511-52h84Z" transform="translate(-9.625 -4)"/>
  <path id="矩形_48_拷貝" data-name="矩形 48 拷貝" class="cls-4" d="M1627,209h80l-98.51,99h-78ZM905,585.5H825l98.511-99h78Z" transform="translate(-9.625 -4)"/>
  <path id="矩形_48_拷貝_2" data-name="矩形 48 拷貝 2" class="cls-5" d="M1621,199h80l-98.51,99h-78ZM899,575.5H819l98.511-99h78Z" transform="translate(-9.625 -4)"/>
</svg>
