<svg id="Div" xmlns="http://www.w3.org/2000/svg" width="1727.655" height="746" viewBox="0 0 1727.655 746">
  <metadata><?xpacket begin="﻿" id="W5M0MpCehiHzreSzNTczkc9d"?>
<x:xmpmeta xmlns:x="adobe:ns:meta/" x:xmptk="Adobe XMP Core 5.6-c138 79.159824, 2016/09/14-01:09:01        ">
   <rdf:RDF xmlns:rdf="http://www.w3.org/1999/02/22-rdf-syntax-ns#">
      <rdf:Description rdf:about=""/>
   </rdf:RDF>
</x:xmpmeta>
                                                                                                    
                                                                                                    
                                                                                                    
                                                                                                    
                                                                                                    
                                                                                                    
                                                                                                    
                                                                                                    
                                                                                                    
                                                                                                    
                                                                                                    
                                                                                                    
                                                                                                    
                                                                                                    
                                                                                                    
                                                                                                    
                                                                                                    
                                                                                                    
                                                                                                    
                                                                                                    
                           
<?xpacket end="w"?></metadata>
<defs>
    <style>
      .cls-1 {
        fill: #a12300;
      }

      .cls-1, .cls-2, .cls-3, .cls-4, .cls-5 {
        fill-rule: evenodd;
      }

      .cls-2 {
        fill: #fc4513;
      }

      .cls-3 {
        fill: #2c2c2c;
      }

      .cls-4 {
        fill: #65646a;
      }

      .cls-5 {
        fill: #a2a0a3;
      }
    </style>
  </defs>
  <path id="矩形_48_拷貝_4" data-name="矩形 48 拷貝 4" class="cls-1" d="M523.482,636.5L414.532,746H584.011L544.29,786H145.634L294.383,636.5h229.1ZM517.489,321L559,280h34l-41.511,41h-34ZM937,79l-69.511,70h-96L841,79h96Zm262.27,667,30.24-31h166l-69.26,71H811.29l39.721-40H1199.27Zm573.24-27-66.53,67h-293l66.53-67h293ZM1538,719l113.4-114h156.62l-113.4,114H1538Zm220.01-459-51.43,52H1665l51.43-52h41.58ZM1587,472l51.43-52h41.58l-51.43,52H1587Zm158-288H1445l68.52-69H1398l65.65-66h403.62l-64.66,65h11.9ZM1381.5,645.5l43.51-43h70l-43.51,43h-70ZM1579.01,328l-41.51,41h-34l41.51-41h34ZM1429.5,510.5l41.51-41h34l-41.51,41h-34ZM1244.48,177h-49.49l30.52-31H1275ZM1064.93,98H993l48.15-49h71.93ZM994.574,224H941.992l32.426-33H1027ZM413.418,320H455l-51.426,52H361.992ZM349.992,494l51.426-52H443l-51.426,52H349.992ZM501.4,157H410.992l-67.018,68H206.5l67.018-68H150L257.027,49h351.4Z" transform="translate(-139.625 -40)"/>
  <path id="矩形_48_拷貝_5" data-name="矩形 48 拷貝 5" class="cls-2" d="M517.482,627.5L408.532,737H578.011L538.29,777H139.634L288.383,627.5h229.1ZM511.489,312L553,271h34l-41.511,41h-34ZM931,70l-69.511,70h-96L835,70h96Zm262.27,667,30.24-31h166l-69.26,71H805.29l39.721-40H1193.27Zm573.24-27-66.53,67h-293l66.53-67h293ZM1532,710l113.4-114h156.62l-113.4,114H1532Zm220.01-459-51.43,52H1659l51.43-52h41.58ZM1581,463l51.43-52h41.58l-51.43,52H1581Zm158-288H1439l68.52-69H1392l65.65-66h403.62l-64.66,65h11.9ZM1375.5,636.5l43.51-43h70l-43.51,43h-70ZM1573.01,319l-41.51,41h-34l41.51-41h34ZM1423.5,501.5l41.51-41h34l-41.51,41h-34ZM1238.48,168h-49.49l30.52-31H1269ZM1058.93,89H987l48.15-49h71.93ZM988.574,215H935.992l32.426-33H1021ZM407.418,311H449l-51.426,52H355.992ZM343.992,485l51.426-52H437l-51.426,52H343.992ZM495.4,148H404.992l-67.018,68H200.5l67.018-68H144L251.027,40h351.4Z" transform="translate(-139.625 -40)"/>
  <path id="矩形_49" data-name="矩形 49" class="cls-3" d="M1302,197h84l-51.51,52h-84ZM631,512H547l51.511-52h84Z" transform="translate(-139.625 -40)"/>
  <path id="矩形_49_拷貝" data-name="矩形 49 拷貝" class="cls-4" d="M1296,187h84l-51.51,52h-84ZM625,502H541l51.511-52h84Z" transform="translate(-139.625 -40)"/>
  <path id="矩形_48_拷貝" data-name="矩形 48 拷貝" class="cls-4" d="M1337,245h80l-98.51,99h-78ZM615,621.5H535l98.511-99h78Z" transform="translate(-139.625 -40)"/>
  <path id="矩形_48_拷貝_2" data-name="矩形 48 拷貝 2" class="cls-5" d="M1331,235h80l-98.51,99h-78ZM609,611.5H529l98.511-99h78Z" transform="translate(-139.625 -40)"/>
</svg>
