<svg id="Div" xmlns="http://www.w3.org/2000/svg" width="2799.959" height="746.522" viewBox="0 0 2798 746">
  <metadata><?xpacket begin="﻿" id="W5M0MpCehiHzreSzNTczkc9d"?>
<x:xmpmeta xmlns:x="adobe:ns:meta/" x:xmptk="Adobe XMP Core 5.6-c138 79.159824, 2016/09/14-01:09:01        ">
   <rdf:RDF xmlns:rdf="http://www.w3.org/1999/02/22-rdf-syntax-ns#">
      <rdf:Description rdf:about=""/>
   </rdf:RDF>
</x:xmpmeta>
                                                                                                    
                                                                                                    
                                                                                                    
                                                                                                    
                                                                                                    
                                                                                                    
                                                                                                    
                                                                                                    
                                                                                                    
                                                                                                    
                                                                                                    
                                                                                                    
                                                                                                    
                                                                                                    
                                                                                                    
                                                                                                    
                                                                                                    
                                                                                                    
                                                                                                    
                                                                                                    
                           
<?xpacket end="w"?></metadata>
<defs>
    <style>
      .cls-1 {
        fill: #a12300;
      }

      .cls-1, .cls-2, .cls-3, .cls-4, .cls-5 {
        fill-rule: evenodd;
      }

      .cls-2 {
        fill: #fc4513;
      }

      .cls-3 {
        fill: #2c2c2c;
      }

      .cls-4 {
        fill: #65646a;
      }

      .cls-5 {
        fill: #a2a0a3;
      }
    </style>
  </defs>
  <path id="矩形_48_拷貝_9" data-name="矩形 48 拷貝 9" class="cls-1" d="M2797.98,746h-985l66.53-67H1938l113.4-114h439.98l132.37-133H2798l0.24,247h0.77ZM2158.01,220l-51.43,52H2065l51.43-52h41.58ZM1987,432l51.43-52h41.58l-51.43,52H1987Zm810.89-288-0.08,90h-325.8l89.65-90H1845l68.52-69H1798l65.65-66h934.12l0.02,10H2798l-0.07,83.05L2798,144h-0.11ZM1979.01,288l-41.51,41h-34l41.51-41h34ZM1829.5,470.5l41.51-41h34l-41.51,41h-34Zm65.51,92-43.51,43h-70l43.51-43h70ZM1594.99,137l30.52-31H1675l-30.52,31h-49.49ZM1393,58l48.15-49h71.93l-48.15,49H1393Zm1.57,126h-52.58l32.43-33H1427Zm-223.08-75L1241,39h96l-69.51,70h-96Zm-360.5,8-67.018,68H606.5l67.018-68H351.37L234.815,234,7,234,6.692,19H8.046L8,9H1008.43L901.4,117H810.992ZM791.574,454H749.992l51.426-52H843ZM855,280l-51.426,52H761.992l51.426-52H855Zm62.489,1L959,240h34l-41.511,41h-34ZM288.2,511H585l-84.868,85.27,423.35,0.23L814.532,706H984.011L944.29,746H5.634L4.5,596l198.988,0.108ZM1599.27,706l30.24-31h166l-69.26,71H1211.29l39.72-40h348.26Z"/>
  <path id="矩形_48_拷貝_10" data-name="矩形 48 拷貝 10" class="cls-2" d="M2791.98,737h-985l66.53-67H1932l113.4-114h439.98l132.37-133H2792l0.24,247h0.77ZM2152.01,211l-51.43,52H2059l51.43-52h41.58ZM1981,423l51.43-52h41.58l-51.43,52H1981Zm809.81-198h-324.8l89.65-90H1839l68.52-69H1792l65.65-66h933.12Zm-817.8,54-41.51,41h-34l41.51-41h34ZM1823.5,461.5l41.51-41h34l-41.51,41h-34Zm65.51,92-43.51,43h-70l43.51-43h70ZM1588.99,128l30.52-31H1669l-30.52,31h-49.49ZM1387,49l48.15-49h71.93l-48.15,49H1387Zm1.57,126h-52.58l32.43-33H1421Zm-223.08-75L1235,30h96l-69.51,70h-96Zm-360.5,8-67.018,68H600.5l67.018-68H345.37L228.815,225,0,225V0H1002.43L895.4,108H804.992ZM785.574,445H743.992l51.426-52H837ZM849,271l-51.426,52H755.992l51.426-52H849Zm62.489,1L953,231h34l-41.511,41h-34ZM282.2,502H579l-84.868,85.27,423.35,0.23L808.532,697H978.011L938.29,737H-0.366L-1.5,587l198.988,0.108ZM1593.27,697l30.24-31h166l-69.26,71H1205.29l39.72-40h348.26Z"/>
  <path id="矩形_49" data-name="矩形 49" class="cls-3" d="M1702,157h84l-51.51,52h-84ZM1031,472H947l51.511-52h84Z"/>
  <path id="矩形_49_拷貝" data-name="矩形 49 拷貝" class="cls-4" d="M1696,147h84l-51.51,52h-84ZM1025,462H941l51.511-52h84Z"/>
  <path id="矩形_48_拷貝" data-name="矩形 48 拷貝" class="cls-4" d="M1737,205h80l-98.51,99h-78ZM1015,581.5H935l98.51-99h78Z"/>
  <path id="矩形_48_拷貝_2" data-name="矩形 48 拷貝 2" class="cls-5" d="M1731,195h80l-98.51,99h-78ZM1009,571.5H929l98.51-99h78Z"/>
</svg>
