<svg id="Div" xmlns="http://www.w3.org/2000/svg" width="1366" height="746" viewBox="0 0 1366 746">
  <metadata><?xpacket begin="﻿" id="W5M0MpCehiHzreSzNTczkc9d"?>
<x:xmpmeta xmlns:x="adobe:ns:meta/" x:xmptk="Adobe XMP Core 5.6-c138 79.159824, 2016/09/14-01:09:01        ">
   <rdf:RDF xmlns:rdf="http://www.w3.org/1999/02/22-rdf-syntax-ns#">
      <rdf:Description rdf:about=""/>
   </rdf:RDF>
</x:xmpmeta>
                                                                                                    
                                                                                                    
                                                                                                    
                                                                                                    
                                                                                                    
                                                                                                    
                                                                                                    
                                                                                                    
                                                                                                    
                                                                                                    
                                                                                                    
                                                                                                    
                                                                                                    
                                                                                                    
                                                                                                    
                                                                                                    
                                                                                                    
                                                                                                    
                                                                                                    
                                                                                                    
                           
<?xpacket end="w"?></metadata>
<defs>
    <style>
      .cls-1 {
        fill: #a12300;
      }

      .cls-1, .cls-2, .cls-3, .cls-4, .cls-5 {
        fill-rule: evenodd;
      }

      .cls-2 {
        fill: #fc4513;
      }

      .cls-3 {
        fill: #2c2c2c;
      }

      .cls-4 {
        fill: #65646a;
      }

      .cls-5 {
        fill: #a2a0a3;
      }
    </style>
  </defs>
  <path id="矩形_48_拷貝_4" data-name="矩形 48 拷貝 4" class="cls-1" d="M206.482,636.5L97.532,746H267.011L227.29,786H-171.366L-22.617,636.5h229.1ZM200.489,321L242,280h34l-41.511,41h-34ZM620,79l-69.511,70h-96L524,79h96ZM882.272,746l30.239-31h166l-69.26,71H494.29l39.721-40H882.272Zm573.238-27-66.53,67h-293l66.53-67h293ZM1221,719l113.4-114h156.62l-113.4,114H1221Zm220.01-459-51.43,52H1348l51.43-52h41.58ZM1270,472l51.43-52h41.58l-51.43,52H1270Zm158-288H1128l68.52-69H1081l65.65-66h403.62l-64.66,65h11.9ZM1064.5,645.5l43.51-43h70l-43.51,43h-70ZM1262.01,328l-41.51,41h-34l41.51-41h34ZM1112.5,510.5l41.51-41h34l-41.51,41h-34ZM927.482,177H877.993l30.518-31H958ZM747.927,98H676l48.149-49h71.928ZM677.574,224H624.992l32.426-33H710ZM96.418,320H138L86.574,372H44.992ZM32.992,494l51.426-52H126L74.574,494H32.992ZM184.4,157H93.992L26.974,225H-110.5l67.018-68H-167L-59.973,49h351.4Z" transform="translate(0 -40)"/>
  <path id="矩形_48_拷貝_5" data-name="矩形 48 拷貝 5" class="cls-2" d="M200.482,627.5L91.532,737H261.011L221.29,777H-177.366L-28.617,627.5h229.1ZM194.489,312L236,271h34l-41.511,41h-34ZM614,70l-69.511,70h-96L518,70h96ZM876.272,737l30.239-31h166l-69.26,71H488.29l39.721-40H876.272Zm573.238-27-66.53,67h-293l66.53-67h293ZM1215,710l113.4-114h156.62l-113.4,114H1215Zm220.01-459-51.43,52H1342l51.43-52h41.58ZM1264,463l51.43-52h41.58l-51.43,52H1264Zm158-288H1122l68.52-69H1075l65.65-66h403.62l-64.66,65h11.9ZM1058.5,636.5l43.51-43h70l-43.51,43h-70ZM1256.01,319l-41.51,41h-34l41.51-41h34ZM1106.5,501.5l41.51-41h34l-41.51,41h-34ZM921.482,168H871.993l30.518-31H952ZM741.927,89H670l48.149-49h71.928ZM671.574,215H618.992l32.426-33H704ZM90.418,311H132L80.574,363H38.992ZM26.992,485l51.426-52H120L68.574,485H26.992ZM178.4,148H87.992L20.974,216H-116.5l67.018-68H-173L-65.973,40h351.4Z" transform="translate(0 -40)"/>
  <path id="矩形_49" data-name="矩形 49" class="cls-3" d="M985,197h84l-51.51,52h-84ZM314,512H230l51.511-52h84Z" transform="translate(0 -40)"/>
  <path id="矩形_49_拷貝" data-name="矩形 49 拷貝" class="cls-4" d="M979,187h84l-51.51,52h-84ZM308,502H224l51.511-52h84Z" transform="translate(0 -40)"/>
  <path id="矩形_48_拷貝" data-name="矩形 48 拷貝" class="cls-4" d="M1020,245h80l-98.51,99h-78ZM298,621.5H218l98.511-99h78Z" transform="translate(0 -40)"/>
  <path id="矩形_48_拷貝_2" data-name="矩形 48 拷貝 2" class="cls-5" d="M1014,235h80l-98.511,99h-78ZM292,611.5H212l98.511-99h78Z" transform="translate(0 -40)"/>
</svg>
