<svg xmlns="http://www.w3.org/2000/svg" viewBox="0 0 156.36 156.36"><defs><style>.cls-1{fill:#a4cf27;}.cls-2{fill:none;stroke:#80a938;stroke-miterlimit:10;stroke-width:7px;}.cls-3{fill:#80a938;}</style></defs><title>icon_A</title><g id="圖層_2" data-name="圖層 2"><g id="OBJECTS"><circle class="cls-1" cx="78.18" cy="78.18" r="73.23"/><circle class="cls-2" cx="78.18" cy="78.18" r="74.68"/><path class="cls-3" d="M87.74,111.66c0,1.23-1.38,2.23-3.08,2.23H72.31c-1.71,0-3.09-1-3.09-2.23h0c0-1.23,1.38-2.23,3.09-2.23H84.65c1.7,0,3.08,1,3.08,2.23Z"/><path class="cls-3" d="M87.74,116.41c0,1.23-1.38,2.24-3.08,2.24H72.31c-1.71,0-3.09-1-3.09-2.24h0c0-1.23,1.38-2.23,3.09-2.23H84.65c1.7,0,3.08,1,3.08,2.23Z"/><path class="cls-3" d="M84.05,121.15a2.07,2.07,0,0,1-1.85,2.23H74.76a2.07,2.07,0,0,1-1.86-2.23h0a2.08,2.08,0,0,1,1.86-2.24H82.2a2.08,2.08,0,0,1,1.85,2.24Z"/><path class="cls-3" d="M78.85,38.39v0l-.78,0c-.26,0,.78,0-.76,0v0c-38.58,1-29.2,39.33-18.73,48.73a29.88,29.88,0,0,1,10.21,21.5H88.11a28.61,28.61,0,0,1,9.84-21.5C108.41,77.72,117.42,39.41,78.85,38.39ZM97.49,74C104.05,56,86.31,46.07,86.31,46.07,112.67,50.3,97.49,74,97.49,74Z"/></g></g></svg>