<svg id="圖層_1" data-name="圖層 1" xmlns="http://www.w3.org/2000/svg" viewBox="0 0 111 79"><defs><style>.cls-1{fill:#ff4612;}.cls-2{fill:#ececec;}</style></defs><title>工作區域 3</title><path class="cls-1" d="M9.16,54.5l1.31-1a1.26,1.26,0,0,0,1.08.8c.62,0,1-.31,1-1.36V47.82h1.93v5.29A2.55,2.55,0,0,1,11.81,56,2.79,2.79,0,0,1,9.16,54.5Z"/><path class="cls-1" d="M17.62,53l-2.41-5.17h2l.67,1.77.65,1.79h0c.23-.62.44-1.18.67-1.79l.67-1.77h2L19.53,53v2.83H17.62Z"/><path class="cls-1" d="M22.6,52.06V47.82h1.91v4.44c0,1.52.45,2.05,1.33,2.05s1.36-.54,1.36-2.05V47.82h1.85v4.24c0,2.7-1.08,3.92-3.21,3.92S22.6,54.76,22.6,52.06Z"/><path class="cls-1" d="M30.85,47.82h2l2,3.83.79,1.77h.05a25.16,25.16,0,0,1-.26-3V47.82h1.83v8h-2l-2-3.86-.79-1.75h-.05c.09.89.25,2,.25,3v2.66H30.85Z"/><path class="cls-1" d="M40.6,46.62l.85.4L40,49.75l-1.31-.68Z"/><path class="cls-1" d="M41.62,55.11l.85-1.19a2.59,2.59,0,0,0,1.55.65c.51,0,.72-.18.72-.48s-.59-.54-1.22-.79-1.59-.79-1.59-1.8c0-1.16.95-1.95,2.37-1.95a3.56,3.56,0,0,1,2.19.79l-.86,1.14A2.35,2.35,0,0,0,44.36,51c-.43,0-.65.15-.65.44s.56.51,1.19.73,1.61.73,1.61,1.84-.88,2-2.55,2A3.93,3.93,0,0,1,41.62,55.11Z"/><path class="cls-2" d="M52.71,47.82h2.81c1.76,0,3.22.62,3.22,2.6s-1.47,2.74-3.16,2.74h-.94v2.66H52.71Zm2.76,3.83c.94,0,1.39-.44,1.39-1.23s-.52-1.09-1.44-1.09h-.79v2.31Z"/><path class="cls-2" d="M59.64,52.45c0-2.19,1.24-3.43,3.06-3.43s3.06,1.25,3.06,3.43-1.24,3.5-3.06,3.5S59.64,54.64,59.64,52.45Zm4.49,0c0-1.29-.55-2.05-1.43-2.05s-1.42.76-1.42,2.05.54,2.12,1.42,2.12S64.13,53.75,64.13,52.45Z"/><path class="cls-2" d="M70.6,55.82l-1.23-2.35H68.6v2.35H67V49.15h2.45c1.43,0,2.61.48,2.61,2.1a2,2,0,0,1-1.15,1.93l1.49,2.65Zm-2-3.62h.72c.76,0,1.17-.33,1.17-1s-.4-.83-1.17-.83H68.6Z"/><path class="cls-2" d="M74.44,50.48h-1.8V49.15h5.22v1.33H76v5.35H74.44Z"/><path class="cls-2" d="M78.88,49.15h4.26v1.33H80.49v1.46h2.28v1.34H80.49v2.55H78.88Z"/><path class="cls-2" d="M83.88,52.45c0-2.19,1.24-3.43,3.06-3.43S90,50.27,90,52.45s-1.24,3.5-3.06,3.5S83.88,54.64,83.88,52.45Zm4.49,0c0-1.29-.55-2.05-1.43-2.05s-1.42.76-1.42,2.05.54,2.12,1.42,2.12S88.37,53.75,88.37,52.45Z"/><path class="cls-2" d="M91.23,49.15h1.61v5.33h2.59v1.35h-4.2Z"/><path class="cls-2" d="M96.59,49.15h1.61v6.68H96.59Z"/><path class="cls-2" d="M99.42,52.45c0-2.19,1.24-3.43,3.06-3.43s3.06,1.25,3.06,3.43-1.24,3.5-3.06,3.5S99.42,54.64,99.42,52.45Zm4.49,0c0-1.29-.55-2.05-1.43-2.05s-1.42.76-1.42,2.05.54,2.12,1.42,2.12S103.91,53.75,103.91,52.45Z"/><polygon class="cls-2" points="93.17 20.17 87.3 26.04 96.69 26.04 102.56 20.17 93.17 20.17 93.17 20.17"/><path class="cls-2" d="M57.78,12.81,44.55,26H55.13L43.46,37.7,31.8,26l6.61-6.61L45,12.81H34.45l-7.94,7.94-7.94-7.94H8L21.22,26,8,39.26H18.57l7.94-7.94h0l7.94,7.94h19.1L68.1,24.7H56.46L68.35,12.81Zm-46,1.57h6.13l7.48,7.48-3.07,3.07Zm6.13,23.31H11.79L22.34,27.15l3.07,3.07Zm17.18,0-7.48-7.48L25,27.61h6.13L41.23,37.69ZM54.48,24.47H48.34L58.43,14.38h6.14Z"/><path class="cls-2" d="M96.69,26,88.75,34,80.81,26h0L94,12.81H83.46L70.24,26,83.46,39.26H93.78L107,26ZM84.11,14.38h6.13L80.16,24.47H74ZM72.46,26h6.13l9,9-3.07,3.07ZM93.13,37.69H87.25L97.34,27.61h5.87Z"/><path class="cls-2" d="M40,66.16a4.36,4.36,0,0,1,.81-2.54l.28.12a4.45,4.45,0,0,0,0,4.84l-.28.12A4.35,4.35,0,0,1,40,66.16Z"/><path class="cls-2" d="M42.82,67.47c1.3-1,1.87-1.77,1.87-2.4a.7.7,0,0,0-.77-.76,1.22,1.22,0,0,0-.86.44l-.27-.23A1.6,1.6,0,0,1,44,64a1,1,0,0,1,1.16,1.07c0,.74-.64,1.5-1.63,2.34.22,0,.46,0,.66,0h1.16v.35H42.82Z"/><path class="cls-2" d="M45.89,65.87c0-1.27.48-1.89,1.25-1.89s1.23.62,1.23,1.89-.48,1.92-1.23,1.92S45.89,67.15,45.89,65.87Zm2,0c0-1.07-.32-1.56-.8-1.56s-.81.48-.81,1.56.33,1.59.81,1.59S47.93,67,47.93,65.87Z"/><path class="cls-2" d="M49.15,67.38h.91V64.56h-.71V64.3a2.48,2.48,0,0,0,.82-.25h.34v3.33h.83v.34H49.15Z"/><path class="cls-2" d="M51.85,67.3l.23-.27a1.4,1.4,0,0,0,1,.42.87.87,0,0,0,.89-.9.81.81,0,0,0-.87-.87,1.21,1.21,0,0,0-.69.22l-.25-.14L52.31,64h1.94v.35H52.71l-.11,1.11a1.32,1.32,0,0,1,.63-.16,1.1,1.1,0,0,1,1.21,1.17,1.25,1.25,0,0,1-1.31,1.26A1.78,1.78,0,0,1,51.85,67.3Z"/><path class="cls-2" d="M56.94,65.79c-.18,0-.33.1-.48.35L56.21,66a.91.91,0,0,1,.75-.5c.48,0,.75.48,1.1.48a.55.55,0,0,0,.48-.34l.25.17a.9.9,0,0,1-.74.49C57.56,66.27,57.29,65.79,56.94,65.79Z"/><path class="cls-2" d="M60.51,67.47c1.3-1,1.87-1.77,1.87-2.4a.7.7,0,0,0-.77-.76,1.22,1.22,0,0,0-.86.44l-.27-.23A1.6,1.6,0,0,1,61.66,64a1,1,0,0,1,1.16,1.07c0,.74-.64,1.5-1.63,2.34.22,0,.46,0,.66,0H63v.35H60.51Z"/><path class="cls-2" d="M63.58,65.87c0-1.27.48-1.89,1.25-1.89s1.23.62,1.23,1.89-.48,1.92-1.23,1.92S63.58,67.15,63.58,65.87Zm2,0c0-1.07-.32-1.56-.8-1.56s-.81.48-.81,1.56.33,1.59.81,1.59S65.62,67,65.62,65.87Z"/><path class="cls-2" d="M66.84,67.38h.91V64.56H67V64.3a2.48,2.48,0,0,0,.82-.25h.34v3.33H69v.34H66.84Z"/><path class="cls-2" d="M71.65,64.4h-2V64h2.51v.25A4.83,4.83,0,0,0,71,67.72h-.47A5.15,5.15,0,0,1,71.65,64.4Z"/><path class="cls-2" d="M73.89,68.58a4.46,4.46,0,0,0,0-4.84l.28-.12a4.37,4.37,0,0,1,0,5.08Z"/></svg>