<svg xmlns="http://www.w3.org/2000/svg" width="324" height="192.969" viewBox="0 0 324 192.969">
  <metadata><?xpacket begin="﻿" id="W5M0MpCehiHzreSzNTczkc9d"?>
<x:xmpmeta xmlns:x="adobe:ns:meta/" x:xmptk="Adobe XMP Core 5.6-c138 79.159824, 2016/09/14-01:09:01        ">
   <rdf:RDF xmlns:rdf="http://www.w3.org/1999/02/22-rdf-syntax-ns#">
      <rdf:Description rdf:about=""/>
   </rdf:RDF>
</x:xmpmeta>
                                                                                                    
                                                                                                    
                                                                                                    
                                                                                                    
                                                                                                    
                                                                                                    
                                                                                                    
                                                                                                    
                                                                                                    
                                                                                                    
                                                                                                    
                                                                                                    
                                                                                                    
                                                                                                    
                                                                                                    
                                                                                                    
                                                                                                    
                                                                                                    
                                                                                                    
                                                                                                    
                           
<?xpacket end="w"?></metadata>
<defs>
    <style>
      .cls-1 {
        fill: #fff;
        fill-rule: evenodd;
      }
    </style>
  </defs>
  <path id="形狀_2" data-name="形狀 2" class="cls-1" d="M524.8,456.4l4.3-3.227c0.916,1.809,2.254,2.626,3.521,2.626,2.042,0,3.133-1.029,3.133-4.468V434.382h6.3v17.445c0,5.177-2.712,9.43-8.591,9.43A9.132,9.132,0,0,1,524.8,456.4Zm27.674-4.963-7.886-17.055h6.69l2.182,5.85c0.7,1.987,1.373,3.829,2.111,5.886h0.142c0.739-2.057,1.444-3.9,2.183-5.886l2.182-5.85h6.583l-7.921,17.055v9.325h-6.266v-9.325Zm16.3-3.085v-13.97h6.266v14.644c0,5,1.478,6.773,4.366,6.773,2.852,0,4.436-1.774,4.436-6.773V434.382H589.9v13.97c0,8.9-3.521,12.905-10.491,12.905C572.4,461.257,568.777,457.251,568.777,448.352Zm27-13.97h6.406L608.7,447l2.57,5.851h0.177a83.54,83.54,0,0,1-.845-9.751v-8.722h5.984v26.38H610.18L603.7,448.033l-2.571-5.779h-0.175c0.282,2.942.81,6.557,0.81,9.749v8.759h-5.985v-26.38Zm31.9-3.972,2.782,1.312-4.577,9.006-4.295-2.234Zm3.346,28.011,2.781-3.936a8.44,8.44,0,0,0,5.07,2.128c1.654,0,2.359-.6,2.359-1.6,0-1.206-1.937-1.774-3.979-2.588-2.394-.958-5.21-2.59-5.21-5.923,0-3.829,3.1-6.416,7.746-6.416a11.6,11.6,0,0,1,7.181,2.587l-2.817,3.759a7.664,7.664,0,0,0-4.153-1.7c-1.41,0-2.113.5-2.113,1.454,0,1.2,1.83,1.667,3.907,2.411,2.5,0.957,5.282,2.41,5.282,6.064,0,3.722-2.888,6.593-8.343,6.593A12.808,12.808,0,0,1,631.026,458.421Zm36.3-24.039h9.189c5.773,0,10.526,2.057,10.526,8.58,0,6.276-4.823,9.041-10.35,9.041h-3.064v8.759h-6.3v-26.38ZM676.371,447c3.062,0,4.542-1.452,4.542-4.042,0-2.658-1.691-3.581-4.717-3.581h-2.572V447h2.747Zm13.638,2.638c0-7.216,4.052-11.3,10.013-11.3s10.013,4.111,10.013,11.3c0,7.217-4.052,11.533-10.013,11.533S690.009,456.859,690.009,449.642Zm14.682,0c0-4.258-1.791-6.772-4.669-6.772s-4.639,2.514-4.639,6.772c0,4.288,1.763,6.979,4.639,6.979S704.691,453.93,704.691,449.642Zm21.182,11.12-4.022-7.748h-2.527v7.748h-5.255v-22h8.017c4.667,0,8.544,1.6,8.544,6.92a6.514,6.514,0,0,1-3.758,6.357l4.874,8.725h-5.873Zm-6.549-11.918h2.349c2.5,0,3.818-1.094,3.818-3.164s-1.321-2.75-3.818-2.75h-2.349v5.914Zm19.1-5.706h-5.9V438.76h17.089v4.378H743.68v17.624h-5.256V443.138Zm14.55-4.378h13.947v4.378h-8.692v4.819h7.46v4.405h-7.46v8.4h-5.255v-22Zm16.373,10.882c0-7.216,4.051-11.3,10.011-11.3s10.013,4.111,10.013,11.3c0,7.217-4.051,11.533-10.013,11.533S769.347,456.859,769.347,449.642Zm14.681,0c0-4.258-1.791-6.772-4.67-6.772s-4.639,2.514-4.639,6.772c0,4.288,1.763,6.979,4.639,6.979S784.028,453.93,784.028,449.642Zm9.377-10.882h5.256v17.567h8.487v4.435H793.405v-22Zm17.516,0h5.256v22h-5.256v-22Zm9.271,10.882c0-7.216,4.051-11.3,10.012-11.3s10.013,4.111,10.013,11.3c0,7.217-4.051,11.533-10.013,11.533S820.192,456.859,820.192,449.642Zm14.681,0c0-4.258-1.791-6.772-4.669-6.772s-4.639,2.514-4.639,6.772c0,4.288,1.763,6.979,4.639,6.979S834.873,453.93,834.873,449.642Zm-35.14-106.4-19.206,19.347h30.719l19.207-19.347h-30.72ZM683.909,319l-43.277,43.589H675.24l-38.175,38.448-38.176-38.448L620.53,340.8,642.171,319H607.562l-25.973,26.159L555.608,319H521l43.281,43.589L521,406.181h34.608l25.981-26.162h0l25.973,26.162h62.5L717.7,358.194h-38.1L718.522,319H683.909Zm-150.5,5.175h20.077l24.474,24.643-10.041,10.113Zm20.077,76.83H533.4l34.511-34.757,10.04,10.11Zm56.209,0L585.222,376.36l-8.535-8.594h20.074l33.006,33.241H609.69Zm63.422-43.59H653.035l33-33.24h20.08Zm138.136,5.174-25.977,26.161L759.3,362.591h0L802.576,319H767.967l-43.28,43.589,43.28,43.59h33.755L845,362.591H811.248ZM770.1,324.177h20.076l-33,33.24H737.09Zm-38.143,38.414h20.076l29.609,29.821L771.6,402.521Zm67.641,38.416H780.37l33.006-33.24H832.6Zm-234.874,93.4a30.438,30.438,0,0,1,5.557-17.571l1.893,0.834a31.135,31.135,0,0,0,0,33.47l-1.893.835A30.354,30.354,0,0,1,564.72,494.412Zm19.145,9.06c8.851-7.081,12.785-12.221,12.785-16.628,0-2.989-1.7-5.245-5.258-5.245a8.3,8.3,0,0,0-5.9,3.023l-1.814-1.6c2.231-2.222,4.614-3.718,8.054-3.718,4.918,0,7.941,2.918,7.941,7.433,0,5.137-4.387,10.382-11.154,16.213,1.473-.138,3.136-0.209,4.537-0.209H601v2.431H583.865v-1.7Zm20.965-11.11c0-8.817,3.291-13.056,8.511-13.056,5.181,0,8.431,4.272,8.431,13.056,0,8.888-3.25,13.265-8.431,13.265C608.121,505.627,604.83,501.25,604.83,492.362Zm13.955,0c0-7.43-2.194-10.763-5.444-10.763-3.29,0-5.524,3.333-5.524,10.763,0,7.572,2.234,10.972,5.524,10.972C616.591,503.334,618.785,499.934,618.785,492.362Zm8.3,10.452h6.2V483.335h-4.877V481.5a16.854,16.854,0,0,0,5.6-1.736h2.343v23.055h5.634v2.36h-14.9v-2.36Zm18.469-.557,1.55-1.875a9.508,9.508,0,0,0,6.921,2.885,5.97,5.97,0,0,0,6.087-6.252c0-3.748-2.343-6.007-5.937-6.007a8.16,8.16,0,0,0-4.691,1.53l-1.7-.973,0.87-11.806h13.235v2.432H651.375l-0.757,7.706a8.893,8.893,0,0,1,4.31-1.074c4.574,0,8.281,2.5,8.281,8.122,0,5.521-4.347,8.682-8.924,8.682A12.075,12.075,0,0,1,645.551,502.257Zm34.733-10.449c-1.21,0-2.27.693-3.254,2.395l-1.776-1.112c1.473-2.394,3.327-3.437,5.107-3.437,3.287,0,5.141,3.333,7.524,3.333,1.21,0,2.27-.658,3.25-2.361l1.74,1.145c-1.436,2.327-3.29,3.37-5.067,3.37C684.481,495.141,682.664,491.808,680.284,491.808Zm24.333,11.664c8.85-7.081,12.784-12.221,12.784-16.628,0-2.989-1.7-5.245-5.257-5.245a8.3,8.3,0,0,0-5.9,3.023l-1.813-1.6c2.23-2.222,4.614-3.718,8.054-3.718,4.917,0,7.941,2.918,7.941,7.433,0,5.137-4.388,10.382-11.155,16.213,1.474-.138,3.137-0.209,4.538-0.209h7.94v2.431H704.617v-1.7Zm20.965-11.11c0-8.817,3.29-13.056,8.51-13.056,5.181,0,8.431,4.272,8.431,13.056,0,8.888-3.25,13.265-8.431,13.265C728.872,505.627,725.582,501.25,725.582,492.362Zm13.954,0c0-7.43-2.193-10.763-5.444-10.763-3.29,0-5.523,3.333-5.523,10.763,0,7.572,2.233,10.972,5.523,10.972C737.343,503.334,739.536,499.934,739.536,492.362Zm8.3,10.452h6.2V483.335h-4.877V481.5a16.861,16.861,0,0,0,5.6-1.736H757.1v23.055h5.634v2.36h-14.9v-2.36Zm32.836-20.623H767.1v-2.432h17.132v1.7c-6.544,7.743-7.753,13.785-8.207,23.713h-3.213C773.26,495.385,775.226,489.134,780.67,482.191Zm15.335,28.954a31.145,31.145,0,0,0,0-33.47l1.891-.834a30.54,30.54,0,0,1,0,35.139Z" transform="translate(-521 -319)"/>
</svg>
