<svg id="圖層_1" data-name="圖層 1" xmlns="http://www.w3.org/2000/svg" viewBox="0 0 262.2 119.55"><defs><style>.cls-1{fill:#a09fa2;}.cls-2{fill:#646569;}.cls-3{fill:#a1a1a4;}.cls-4{fill:#72767b;}.cls-5{fill:#50555b;}.cls-6{fill:#74787d;}.cls-7{fill:#ff4612;}</style></defs><title>工作區域 4</title><polygon class="cls-1" points="69.78 90.24 59.12 100.9 67.65 100.9 78.31 90.24 69.78 90.24"/><polygon class="cls-2" points="149.73 51.38 164.57 36.54 152.7 36.54 137.87 51.38 149.73 51.38"/><polygon class="cls-2" points="195.87 43.33 185.2 54 193.73 54 204.39 43.33 195.87 43.33"/><polygon class="cls-1" points="243.86 83 252.82 74.03 245.65 74.03 236.69 83 243.86 83"/><polygon class="cls-2" points="218.74 76.64 233.57 61.8 221.71 61.8 206.88 76.64 218.74 76.64"/><polygon class="cls-3" points="144.18 81.16 163.66 61.69 148.09 61.69 128.61 81.16 144.18 81.16"/><polygon class="cls-2" points="141.08 100.9 161.54 80.44 145.18 80.44 124.71 100.9 141.08 100.9"/><polygon class="cls-4" points="61.62 86.07 73.43 74.26 63.99 74.26 52.19 86.07 61.62 86.07"/><polygon class="cls-4" points="209.47 100.9 225.8 84.57 212.74 84.57 196.41 100.9 209.47 100.9"/><polygon class="cls-5" points="104.11 54.66 84.64 74.13 100.21 74.13 119.69 54.66 104.11 54.66"/><polygon class="cls-6" points="195.58 77.55 215.05 58.08 199.48 58.08 180.01 77.55 195.58 77.55"/><polygon class="cls-5" points="228.52 42.85 239.84 31.53 230.79 31.53 219.47 42.85 228.52 42.85"/><polygon class="cls-7" points="102.51 100.84 126.55 76.8 107.33 76.8 83.28 100.84 102.51 100.84"/><polygon class="cls-7" points="21.2 116.11 45.24 92.06 26.02 92.06 1.97 116.11 21.2 116.11"/><polygon class="cls-7" points="237.93 116.11 261.97 92.06 241.36 92.06 217.31 116.11 237.93 116.11"/><polygon class="cls-7" points="161.89 119.44 185.94 95.39 160.05 95.39 136.01 119.44 161.89 119.44"/><polygon class="cls-7" points="82.07 61.99 75.49 68.58 86.02 68.58 92.6 61.99 82.07 61.99"/><polygon class="cls-7" points="194.62 85.79 202.8 77.62 196.26 77.62 188.09 85.79 194.62 85.79"/><polygon class="cls-7" points="248.34 44.65 241.76 51.24 252.29 51.24 258.87 44.65 248.34 44.65"/><polygon class="cls-7" points="171.99 49.01 163.35 57.65 177.17 57.65 185.81 49.01 171.99 49.01"/><polygon class="cls-7" points="32.04 71.33 25.86 77.51 35.74 77.51 41.91 71.33 32.04 71.33"/><polygon class="cls-7" points="200.24 18.69 210.52 8.41 202.3 8.41 192.02 18.69 200.24 18.69"/><polygon class="cls-7" points="237.16 1.72 232.6 6.28 239.9 6.28 244.46 1.72 237.16 1.72"/></svg>