<svg id="圖層_1" data-name="圖層 1" xmlns="http://www.w3.org/2000/svg" viewBox="0 0 271.27 143.91"><defs><style>.cls-1{fill:#a09fa2;}.cls-2{fill:#646569;}.cls-3{fill:#a1a1a4;}.cls-4{fill:#72767b;}.cls-5{fill:#50555b;}.cls-6{fill:#74787d;}.cls-7{fill:#ff4612;}</style></defs><title>工作區域 4</title><polygon class="cls-1" points="71 99.88 60.34 110.54 68.86 110.54 79.53 99.88 71 99.88"/><polygon class="cls-2" points="150.95 61.01 165.78 46.18 153.92 46.18 139.09 61.01 150.95 61.01"/><polygon class="cls-2" points="197.08 52.97 186.41 63.63 194.94 63.63 205.61 52.97 197.08 52.97"/><polygon class="cls-1" points="245.07 92.63 254.04 83.67 246.87 83.67 237.9 92.63 245.07 92.63"/><polygon class="cls-2" points="219.96 86.27 234.79 71.44 222.93 71.44 208.09 86.27 219.96 86.27"/><polygon class="cls-3" points="145.4 90.79 164.87 71.32 149.3 71.32 129.83 90.79 145.4 90.79"/><polygon class="cls-2" points="142.29 110.54 162.76 90.07 146.39 90.07 125.93 110.54 142.29 110.54"/><polygon class="cls-4" points="62.84 95.7 74.64 83.9 65.2 83.9 53.4 95.7 62.84 95.7"/><polygon class="cls-4" points="210.69 110.54 227.02 94.2 213.96 94.2 197.63 110.54 210.69 110.54"/><polygon class="cls-5" points="105.33 64.29 85.86 83.76 101.43 83.76 120.9 64.29 105.33 64.29"/><polygon class="cls-6" points="196.8 87.18 216.27 67.71 200.7 67.71 181.23 87.18 196.8 87.18"/><polygon class="cls-5" points="229.74 52.48 241.06 41.16 232 41.16 220.69 52.48 229.74 52.48"/><polygon class="cls-7" points="103.72 110.48 127.77 86.44 108.54 86.44 84.5 110.48 103.72 110.48"/><polygon class="cls-7" points="22.42 125.74 46.46 101.7 27.23 101.7 3.19 125.74 22.42 125.74"/><polygon class="cls-7" points="239.15 125.74 263.19 101.7 242.57 101.7 218.53 125.74 239.15 125.74"/><polygon class="cls-7" points="163.11 129.07 187.15 105.03 161.27 105.03 137.22 129.07 163.11 129.07"/><polygon class="cls-7" points="83.29 71.63 76.7 78.21 87.23 78.21 93.82 71.63 83.29 71.63"/><polygon class="cls-7" points="195.84 95.43 204.01 87.25 197.48 87.25 189.3 95.43 195.84 95.43"/><polygon class="cls-7" points="249.56 54.29 242.97 60.87 253.5 60.87 260.09 54.29 249.56 54.29"/><polygon class="cls-7" points="173.21 58.64 164.57 67.29 178.39 67.29 187.03 58.64 173.21 58.64"/><polygon class="cls-7" points="33.26 80.97 27.08 87.14 36.96 87.14 43.13 80.97 33.26 80.97"/><polygon class="cls-7" points="201.46 28.33 211.74 18.05 203.51 18.05 193.23 28.33 201.46 28.33"/><polygon class="cls-7" points="238.38 11.35 233.81 15.92 241.11 15.92 245.67 11.35 238.38 11.35"/></svg>