<svg id="圖層_1" data-name="圖層 1" xmlns="http://www.w3.org/2000/svg" viewBox="0 0 271.27 143.91"><defs><style>.cls-1{fill:#a09fa2;}.cls-2{fill:#646569;}.cls-3{fill:#a1a1a4;}.cls-4{fill:#72767b;}.cls-5{fill:#50555b;}.cls-6{fill:#74787d;}.cls-7{fill:#ff4612;}</style></defs><title>工作區域 4</title><polygon class="cls-1" points="36.41 119.74 23.94 132.22 33.91 132.22 46.39 119.74 36.41 119.74"/><polygon class="cls-2" points="129.95 74.27 147.31 56.92 133.43 56.92 116.07 74.27 129.95 74.27"/><polygon class="cls-2" points="183.93 64.86 171.45 77.34 181.43 77.34 193.91 64.86 183.93 64.86"/><polygon class="cls-1" points="240.08 111.27 250.57 100.78 242.18 100.78 231.69 111.27 240.08 111.27"/><polygon class="cls-2" points="210.69 103.83 228.05 86.47 214.17 86.47 196.81 103.83 210.69 103.83"/><polygon class="cls-3" points="123.46 109.12 146.25 86.33 128.03 86.33 105.24 109.12 123.46 109.12"/><polygon class="cls-2" points="119.83 132.22 143.77 108.27 124.62 108.27 100.68 132.22 119.83 132.22"/><polygon class="cls-4" points="26.87 114.86 40.68 101.05 29.63 101.05 15.82 114.86 26.87 114.86"/><polygon class="cls-4" points="199.85 132.22 218.96 113.11 203.68 113.11 184.57 132.22 199.85 132.22"/><polygon class="cls-5" points="76.58 78.11 53.8 100.89 72.02 100.89 94.8 78.11 76.58 78.11"/><polygon class="cls-6" points="183.6 104.89 206.38 82.11 188.16 82.11 165.38 104.89 183.6 104.89"/><polygon class="cls-5" points="222.14 64.29 235.38 51.05 224.79 51.05 211.55 64.29 222.14 64.29"/><polygon class="cls-7" points="75.6 132.22 94.71 113.11 79.43 113.11 60.32 132.22 75.6 132.22"/><polygon class="cls-7" points="50.79 86.69 43.09 94.39 55.41 94.39 63.11 86.69 50.79 86.69"/><polygon class="cls-7" points="182.48 114.54 192.04 104.98 184.39 104.98 174.83 114.54 182.48 114.54"/><polygon class="cls-7" points="245.33 66.41 237.63 74.11 249.95 74.11 257.65 66.41 245.33 66.41"/><polygon class="cls-7" points="156 71.5 145.89 81.61 162.06 81.61 172.17 71.5 156 71.5"/><polygon class="cls-7" points="189.05 36.03 201.08 24 191.46 24 179.43 36.03 189.05 36.03"/><polygon class="cls-7" points="232.25 16.17 226.91 21.51 235.45 21.51 240.78 16.17 232.25 16.17"/></svg>